<svg xmlns="http://www.w3.org/2000/svg" width="37.5" height="37.5" viewBox="0 0 37.5 37.5"><g transform="translate(-1244.416 -369.75)"><g transform="translate(1243 368)"><g transform="translate(-0.834 -0.5)"><path d="M19.25,15.75H35a3.5,3.5,0,0,1,3.5,3.5V35A3.5,3.5,0,0,1,35,38.5H19.25a3.5,3.5,0,0,1-3.5-3.5V19.25a3.5,3.5,0,0,1,3.5-3.5Z" fill="none" stroke="#3d3e47" stroke-linecap="round" stroke-linejoin="round" stroke-width="2.5"/><path d="M8.75,26.25H7a3.5,3.5,0,0,1-3.5-3.5V7A3.5,3.5,0,0,1,7,3.5H22.75A3.5,3.5,0,0,1,26.25,7V8.75" fill="none" stroke="#3d3e47" stroke-linecap="round" stroke-linejoin="round" stroke-width="2.5"/></g></g></g></svg>