<svg xmlns="http://www.w3.org/2000/svg" xmlns:xlink="http://www.w3.org/1999/xlink" width="356.613" height="217.886" viewBox="0 0 356.613 217.886"><defs><linearGradient id="a" x1="-0.196" y1="-0.472" x2="1.464" y2="1.584" gradientUnits="objectBoundingBox"><stop offset="0" stop-color="#73f188"/><stop offset="1" stop-color="#06f"/></linearGradient></defs><g transform="translate(-233.32 -706.57)"><path d="M7.448,0h328.3A7.448,7.448,0,0,1,343.2,7.448V195.211a7.448,7.448,0,0,1-7.448,7.448H7.448A7.448,7.448,0,0,1,0,195.211V7.448A7.448,7.448,0,0,1,7.448,0Z" transform="matrix(1, 0, 0, 1, 240.301, 721.797)" fill="#4e4f5a"/><path d="M7.739,0H348.874a7.739,7.739,0,0,1,7.739,7.739v195.1a7.739,7.739,0,0,1-7.739,7.739H7.739A7.739,7.739,0,0,1,0,202.843V7.739A7.739,7.739,0,0,1,7.739,0Z" transform="matrix(1, 0, 0, 1, 233.32, 706.57)" fill="url(#a)"/><g transform="matrix(1, 0, 0, 1, 252.367, 717.946)"><g transform="translate(0 0)"><text transform="translate(2.116 170.544)" fill="#fff" font-size="20" font-family="SegoeUI-Semibold, Segoe UI" font-weight="600" letter-spacing="0.012em"><tspan x="0" y="0">JOHN SMITH</tspan></text><text transform="translate(2.116 21)" fill="#fff" font-size="15" font-family="SegoeUI-Semibold, Segoe UI" font-weight="600" letter-spacing="0.012em"><tspan x="0" y="0">MasterCard</tspan></text><text transform="translate(0 89.822)" fill="#fff" font-size="24" font-family="SegoeUI-Semibold, Segoe UI" font-weight="600" letter-spacing="0.012em"><tspan x="0" y="0">5535</tspan><tspan y="0" fill="#000"> </tspan></text><text transform="translate(67.481 90.917)" fill="#fff" font-size="34" font-family="SegoeUI-Semibold, Segoe UI" font-weight="600" letter-spacing="0.012em"><tspan x="0" y="0">••••</tspan></text><text transform="translate(131.323 90.917)" fill="#fff" font-size="34" font-family="SegoeUI-Semibold, Segoe UI" font-weight="600" letter-spacing="0.012em"><tspan x="0" y="0">••••</tspan></text><text transform="translate(195.047 89.822)" fill="#fff" font-size="24" font-family="SegoeUI-Semibold, Segoe UI" font-weight="600" letter-spacing="0.012em"><tspan x="0" y="0">2296</tspan></text></g><g transform="translate(255.383 144.707)"><path d="M1.7.784V0H1.5L1.261.538,1.027,0h-.2V.784H.967V.193L1.188.7h.15L1.559.192V.784H1.7Zm-1.3,0V.134H.668V0H0V.134H.261v.65H.405Z" transform="translate(63.023 31.93)" fill="#f79410"/><path d="M17.672,31.759H0V0H17.672Z" transform="translate(23.842 4.318)" fill="#ff5f00"/><path d="M24.963,20.2a20.165,20.165,0,0,1,7.714-15.88,20.2,20.2,0,1,0,0,31.759A20.164,20.164,0,0,1,24.963,20.2" transform="translate(0 0)" fill="#eb001b"/><path d="M32.678,20.2A20.2,20.2,0,0,1,0,36.078,20.161,20.161,0,0,0,7.715,20.2,20.161,20.161,0,0,0,0,4.319,20.2,20.2,0,0,1,32.678,20.2" transform="translate(32.678 0)" fill="#f79e1b"/></g></g></g></svg>