<svg xmlns="http://www.w3.org/2000/svg" width="255.9" height="77.712" viewBox="0 0 255.9 77.712"><defs><style>.a{fill:#fff;}.b{fill:#ed1a3b;}.c{fill:none;stroke:#ec1a3b;stroke-width:1.063px;}.d{fill:#004fa2;}</style></defs><g transform="translate(0 0)"><g transform="translate(0 0)"><path class="a" d="M-56.983,989.66H5.227v63.766h-62.21V989.66Z" transform="translate(56.983 -982.611)"/><path class="b" d="M-29.733,993.47H-2.954v55.414H-29.733Z" transform="translate(60.815 -982.075)"/><path class="c" d="M.708,1041H190.735" transform="translate(65.095 -975.392)"/><path class="d" d="M89.328,0a4.076,4.076,0,0,1-1.894,1.383,5.212,5.212,0,0,1-.617,2.584l-3.712,9.827c-1.528,4.076-2.549,6.442-3.2,8.116a2.42,2.42,0,0,1-2.183,1.782l-1.2.109a.716.716,0,0,0,.071.911c.982-.036,2.293-.109,3.493-.109,1.711.037,2.84.036,3.787.109a.586.586,0,0,0,.071-.911l-1.2-.109c-.874-.073-1.056-.29-1.056-.726a13.946,13.946,0,0,1,.8-3.021l1.272-3.823c.255-.764.474-.873,1.383-.873h5.5c1.092,0,1.239.109,1.493.909l1.6,4.952a7.478,7.478,0,0,1,.475,1.929c0,.364-.51.58-1.274.653l-1.056.109a.612.612,0,0,0,.074.911c1.055-.036,2.437-.109,4.184-.109,1.638,0,2.913.036,4.4.109a.714.714,0,0,0,0-.911l-.982-.109c-1.566-.181-2.039-.727-3.094-3.858L91.477,5.2c-.546-1.6-1.129-3.276-1.6-4.877A.515.515,0,0,0,89.329,0ZM193.158,1.9a14.474,14.474,0,0,0-9.069,2.854,11.158,11.158,0,0,0-4.233,8.9,10.834,10.834,0,0,0,4.77,9.239,14.721,14.721,0,0,0,8.365,2.25,19.767,19.767,0,0,0,5.307-.773,6.839,6.839,0,0,1,1.176-.334,12.622,12.622,0,0,0,1.611-4.6.7.7,0,0,0-.871-.134,7.163,7.163,0,0,1-7.022,4.8c-5.509,0-9.976-3.9-9.976-10.952,0-6.954,4.367-10.21,9.506-10.21,4.87,0,6.383,2.619,6.886,4.9a.707.707,0,0,0,.907-.067c-.269-2.049-.436-4.166-.47-4.939a2.538,2.538,0,0,1-.94-.134,25.855,25.855,0,0,0-5.946-.8Zm18.671,0a3.754,3.754,0,0,1-1.744,1.274,4.828,4.828,0,0,1-.573,2.384l-3.426,9.071c-1.41,3.763-2.349,5.944-2.954,7.49a2.236,2.236,0,0,1-2.016,1.646l-1.107.1a.662.662,0,0,0,.067.84c.907-.034,2.114-.1,3.224-.1,1.578.034,2.619.033,3.493.1a.54.54,0,0,0,.067-.84l-1.107-.1c-.807-.067-.976-.269-.976-.673a12.8,12.8,0,0,1,.74-2.787l1.176-3.527c.235-.706.438-.806,1.276-.806h5.073c1.008,0,1.142.1,1.377.84L215.9,21.38a6.865,6.865,0,0,1,.434,1.778c0,.336-.471.539-1.176.606l-.974.1a.564.564,0,0,0,.067.84c.975-.034,2.251-.1,3.865-.1,1.5,0,2.665.034,4.026.1h.038l0,0c1.156-.066,2.06-.1,3.453-.1,1.243,0,2.418.033,3.93.1a.616.616,0,0,0,.069-.84l-1.043-.1a2.273,2.273,0,0,1-1.713-.637c-.538-1.008-.6-5.377-.6-6.955V8.849a8.485,8.485,0,0,1,.167-2.183h.067c.706.739,2.99,3.495,3.9,4.536l7.793,8.866c2.923,3.325,3.9,4.5,4.3,5.073a.605.605,0,0,0,.639-.37c-.1-.873-.1-4.871-.1-5.879V10.865c0-1.546-.067-5.71.5-6.919.134-.269.805-.538,1.88-.706l.47-.067a.589.589,0,0,0-.067-.84c-1.142.067-2.015.1-3.46.1-1.277,0-2.418-.033-3.963-.1-.268.1-.3.637-.069.84l.573.067c1.343.168,1.881.371,2.083.673.637,1.008.673,5.373.673,6.953v7.187a3.4,3.4,0,0,1-.136,1.412h-.067c-1.578-1.613-3.259-3.46-5.543-6.08l-3.257-3.66c-1.075-1.243-5.074-5.679-5.745-7.392a10.861,10.861,0,0,1-1.544.1c-.6,0-2.385,0-3.8-.1a.589.589,0,0,0-.069.84l.573.067a3.635,3.635,0,0,1,2.083.806,3.083,3.083,0,0,1,.74,2.419v9.706c0,1.613.032,5.71-.439,6.919-.167.369-.7.605-1.477.673l-.853.094-.855-.094c-1.444-.168-1.881-.671-2.856-3.56L213.805,6.7c-.5-1.477-1.043-3.022-1.479-4.5a.478.478,0,0,0-.506-.3Zm-109.8.434a.629.629,0,0,0-.136.84l.539.067c2.049.335,2.317.774,2.25,2.889-.067,1.848-.2,4.7-.368,7.492-.2,3.325-.37,5.172-.573,7.387-.2,2.353-.671,2.587-2.083,2.756l-.74.1a.665.665,0,0,0,.067.84c1.142-.067,2.351-.1,3.426-.1,1.277,0,2.587.033,3.729.1.235-.1.269-.639.033-.84l-1.274-.1c-1.31-.1-1.513-.639-1.513-3.126,0-2.854.134-5.844.234-7.893.1-1.948.2-3.9.336-5.979h.067c.739,1.546,1.444,3.293,2.15,4.839l3.023,6.483c.773,1.645,2.386,4.936,2.956,6.717a.42.42,0,0,0,.3.136.394.394,0,0,0,.336-.136c.6-1.546,2.115-4.7,3.627-7.659l2.99-5.877c.672-1.309,1.948-4,2.183-4.366h.067l.1,14.006c0,2.15,0,2.688-1.644,2.856l-.976.1a.622.622,0,0,0,.069.84c1.377-.067,2.887-.1,4.063-.1,1.209,0,2.586.033,3.963.1a.621.621,0,0,0,.067-.84l-1.074-.1c-1.58-.168-1.545-1.041-1.646-2.72-.268-4.836-.3-11.052-.37-14.612-.033-2.351.234-2.957,2.35-3.192l.706-.067a.707.707,0,0,0-.033-.84c-1.042.067-2.15.1-2.99.1-.672,0-1.378,0-2.52-.1-.067,1.544-1.007,3.393-2.553,6.449L118.029,15.2c-.84,1.712-1.68,3.459-2.586,5.039h-.067c-.807-1.478-1.544-3.024-2.317-4.6l-3.829-7.759c-1.041-2.15-1.881-4.234-1.747-5.543-1.108.1-2.016.1-2.789.1-.84,0-1.647-.033-2.653-.1Zm28.684,0c-.2.1-.269.7-.067.84l.539.067c1.982.235,2.047.74,2.047,4.233V19.565c0,3.527-.168,4.031-2.083,4.2l-1.107.1a.651.651,0,0,0,.067.84c1.982-.067,3.125-.1,4.569-.1H137.7c2.99,0,5.98.035,9,.1a29.308,29.308,0,0,0,1.513-4.669.619.619,0,0,0-.84-.236,8.452,8.452,0,0,1-2.386,3.259c-.739.369-1.711.5-4.3.5-2.956,0-3.662-.37-4.066-.773-.538-.57-.639-1.712-.639-3.493V14.559c0-.873.1-.907,1.109-.907h1.947a11.223,11.223,0,0,1,2.586.169,1.436,1.436,0,0,1,1.043,1.276l.3,1.31a.661.661,0,0,0,.871-.033c0-.739-.134-2.017-.134-3.226,0-1.277.134-2.586.134-3.393a.659.659,0,0,0-.871-.031l-.27,1.377c-.167.84-.4,1.04-.806,1.174a12.463,12.463,0,0,1-2.856.2H137.1c-1.008,0-1.109,0-1.109-.94V4.819c0-1.276,0-1.343,1.009-1.343h2.417a16.041,16.041,0,0,1,3.259.2c1.747.436,2.05,1.614,2.553,3.192a.662.662,0,0,0,.84-.069,37.361,37.361,0,0,0-.539-4.467c-.4.1-2.383.1-4.533.1h-6.314c-1.377,0-2.521-.033-3.965-.1Zm25.43,0c-3.292,0-5.609.1-7.49.27a.56.56,0,0,0-.033.84l1.074.134c1.377.168,1.479.739,1.479,3.93V19.564c0,3.527-.067,3.964-2.016,4.2l-.84.1a.649.649,0,0,0,.067.84c1.58-.067,2.789-.1,4.2-.1,1.345,0,2.485.033,4,.1a.658.658,0,0,0,.067-.84l-.7-.1c-1.948-.268-2.016-.672-2.016-4.2V15.331c0-.706.068-.737,1.58-.737a2.394,2.394,0,0,1,2.384,1.074c1.041,1.511,2.42,3.829,3.293,5.073,2.385,3.393,4.1,4.233,6.953,4.233a5.284,5.284,0,0,0,1.479-.169.284.284,0,0,0,.082-.114c1.366-.052,2.471-.087,3.707-.087,1.343,0,2.486.033,4.166.1.2-.1.269-.706.067-.84l-.84-.1c-1.982-.235-2.05-.7-2.05-4.266V7.539c0-3.56.068-4.131,2.05-4.3l.84-.067c.2-.135.134-.74-.067-.84-1.68.067-2.823.1-4.166.1-1.412,0-2.552-.033-4.233-.1-.2.1-.268.7-.067.84l.84.067c1.982.168,2.05.739,2.05,4.3V19.5c0,3.562-.068,4.031-2.05,4.266l-.84.1a.536.536,0,0,0-.114.376,3.922,3.922,0,0,1-1.729-.847c-2.283-1.915-4.065-4.6-6.752-8.936-.168-.268-.334-.605-.167-.806,1.68-.672,4.2-2.416,4.2-5.607a5.008,5.008,0,0,0-2.787-4.705,11.9,11.9,0,0,0-5.61-1.007Zm-.033,1.043c3.728,0,5.373,2.52,5.373,5.173,0,2.284-.772,3.459-1.68,4.164a5.614,5.614,0,0,1-3.457.873c-1.714,0-2.218-.066-2.319-.167a2.671,2.671,0,0,1-.1-1.109V4.449c0-.941.1-1.074,2.183-1.074ZM88.089,4.44h.071A23.81,23.81,0,0,1,89,6.732l1.967,5.933c.326.982.253,1.129-.8,1.129H85.686c-1.018,0-1.055-.039-.764-.876l2.292-6.331a21.758,21.758,0,0,1,.876-2.148ZM210.683,5.995h.067a22.272,22.272,0,0,1,.773,2.116l1.813,5.474c.3.907.236,1.043-.74,1.043h-4.13c-.941,0-.974-.034-.706-.806l2.116-5.843a20.558,20.558,0,0,1,.806-1.983ZM3.935,11.388V66.8H33.76l-3.085-3.429V11.388H3.935ZM66.557,35.364c-.22.11-.292.728-.074.873l.911.074c2.11.183,2.183.8,2.183,4.585v8.588c0,4.331.909,6.989,2.838,8.59a10.34,10.34,0,0,0,6.806,2,9.581,9.581,0,0,0,6.951-2.658c2.039-2.183,2.549-5.532,2.549-8.7V44.607c0-2.039-.036-6.222.51-7.423.181-.473.91-.8,1.82-.873l.871-.074a.627.627,0,0,0-.071-.873c-1.31.072-2.292.109-3.821.109-1.419,0-2.767-.036-4.15-.109a.658.658,0,0,0-.071.873l.909.074a2.256,2.256,0,0,1,1.82.764c.619,1.092.693,5.275.693,7.532v4.186c0,5.532-2,9.682-7.28,9.682-5.568,0-7.389-3.858-7.389-9.717V40.9c0-3.785.074-4.4,2.185-4.585l.873-.074c.218-.145.146-.764-.074-.873-1.782.072-2.984.109-4.476.109-1.456,0-2.694-.036-4.513-.109Zm148.611.855a.78.78,0,0,0-.321.062,35.184,35.184,0,0,1-1.274,5.006.647.647,0,0,0,.873.234,6.11,6.11,0,0,1,1.51-2.317c.84-.772,2.686-.838,4.13-.838h1.849c1.008,0,1.007.031,1.007,1.074V54.454c0,3.527-.168,4.031-2.083,4.2l-1.21.1a.588.588,0,0,0,0,.84c2.15-.067,3.326-.1,4.669-.1s2.487.035,4.4.1c.2-.1.269-.706.067-.84l-1.076-.1c-1.947-.2-2.014-.672-2.014-4.2V39.507c0-1.109-.034-1.143.974-1.143h2.386a6.693,6.693,0,0,1,3.9.84c.5.369.739,1.611.84,2.45a.627.627,0,0,0,.871-.067,18.794,18.794,0,0,1,.209-3.5l.8.143c1.008.168,1.511.336,2.653,2.553l3.963,7.726a6.766,6.766,0,0,1,1.076,4.166v1.713c0,3.593-.069,4.063-2.016,4.264l-1.043.1a.654.654,0,0,0,.069.84c1.781-.067,2.988-.1,4.4-.1,1.343,0,2.485.035,4.567.1a.652.652,0,0,0,.069-.84l-1.276-.1c-1.815-.134-2.016-.671-2.016-4.264V52.64c0-2.586.068-2.921,1.58-5.44l2.114-3.66c1.68-2.888,2.689-5.039,4.436-5.309l.94-.167a.564.564,0,0,0-.067-.84c-1.142.066-2.083.1-3.123.1s-2.017-.033-3.226-.1a.559.559,0,0,0-.067.84l.6.067c.807.1,1.412.337,1.412.539A30.685,30.685,0,0,1,248.54,43.1c-1.007,1.948-2.116,3.9-3.157,5.676-1.31-2.318-2.555-4.971-3.8-7.456a16.818,16.818,0,0,1-1.04-2.586c0-.269.236-.4,1.412-.606l.437-.067c.2-.2.2-.741-.1-.84-.84.066-2.049.1-3.593.1-1.512,0-2.655-.032-3.678-.091.049-.26.1-.542.152-.751-.067-.133-.436-.166-.606-.1-.5.872-.806.94-2.62.94H218.34c-1.544,0-2.653.032-2.854-1.043a.5.5,0,0,0-.319-.062Zm-18.149.568c-4.366,0-6.853,2.584-6.853,5.777,0,2.753,1.95,4.667,3.629,5.777l3.19,2.083c2.452,1.58,2.756,3.224,2.756,4.7,0,2.015-1.378,3.863-4.2,3.863-3.9,0-5.273-3.293-5.777-5.006-.135-.2-.638-.133-.806.1a15.541,15.541,0,0,0,.907,4.7,10.488,10.488,0,0,0,5.24,1.241c4.366,0,7.156-2.519,7.156-6.213,0-3.191-2.083-5.141-4.2-6.449l-2.687-1.68c-1.243-.807-2.856-2.183-2.856-4.13,0-1.546.7-3.729,4-3.729,3.225,0,4.133,2.183,4.569,3.8.168.2.706.1.84-.1a14.681,14.681,0,0,0-.606-4.1,6.746,6.746,0,0,1-1.176-.2,11.463,11.463,0,0,0-3.123-.437ZM92.9,37.224c-.269.134-.268.637-.067.84l.57.067a3.638,3.638,0,0,1,2.083.806,3.083,3.083,0,0,1,.74,2.417v9.709c0,1.613.034,5.71-.437,6.919-.168.369-.706.6-1.479.671l-.907.1a.623.623,0,0,0,.067.84c1.176-.067,2.083-.1,3.493-.1,1.243,0,2.419.035,3.932.1a.616.616,0,0,0,.067-.84l-1.043-.1a2.273,2.273,0,0,1-1.713-.637c-.538-1.008-.6-5.374-.6-6.953V43.74a8.488,8.488,0,0,1,.167-2.183h.069c.706.738,2.988,3.493,3.9,4.533l7.791,8.869c2.923,3.325,3.9,4.5,4.3,5.07a.6.6,0,0,0,.637-.368c-.1-.873-.1-4.871-.1-5.879V45.754c0-1.546-.067-5.708.5-6.917.134-.27.807-.538,1.882-.706l.468-.067a.589.589,0,0,0-.067-.84c-1.142.066-2.015.1-3.46.1-1.277,0-2.419-.031-3.963-.1-.269.1-.3.637-.067.84l.57.067c1.343.168,1.881.368,2.083.671.637,1.008.673,5.373.673,6.953v7.189a3.38,3.38,0,0,1-.136,1.41h-.067c-1.573-1.613-3.252-3.462-5.535-6.081l-3.257-3.66c-1.075-1.243-5.072-5.677-5.745-7.389a11,11,0,0,1-1.544.1c-.6,0-2.386,0-3.8-.1Zm26.2,0c-.2.1-.27.7-.069.84l.84.067c1.982.168,2.05.739,2.05,4.3V54.389c0,3.559-.068,4.03-2.05,4.264l-.84.1a.654.654,0,0,0,.069.84c1.68-.067,2.821-.1,4.233-.1,1.343,0,2.484.035,4.164.1.2-.1.268-.706.067-.84l-.84-.1c-1.982-.234-2.047-.705-2.047-4.264V42.431c0-3.56.065-4.131,2.047-4.3l.84-.067c.2-.136.134-.741-.067-.84-1.68.066-2.821.1-4.164.1C121.922,37.322,120.78,37.292,119.1,37.224Zm9.3,0a.563.563,0,0,0-.069.84l.606.067c1.444.168,1.947.871,2.72,2.754l5.908,14.578a33.613,33.613,0,0,1,1.546,4.467,1.326,1.326,0,0,0,.5.1.666.666,0,0,0,.37-.1c.57-1.779,2.149-5.677,3.493-8.766l1.816-4.132a81.078,81.078,0,0,1,3.76-7.726,2.145,2.145,0,0,1,1.747-1.174l.5-.033.267.033c1.982.235,2.05.737,2.05,4.231V54.454c0,3.527-.168,4.031-2.083,4.2l-1.107.1a.651.651,0,0,0,.067.84c1.982-.067,3.123-.1,4.567-.1h3.023c2.99,0,5.978.035,9,.1a29.31,29.31,0,0,0,1.513-4.669.619.619,0,0,0-.84-.236,8.416,8.416,0,0,1-2.386,3.257c-.739.371-1.713.506-4.3.506-2.956,0-3.66-.37-4.063-.773-.538-.572-.637-1.712-.637-3.493V49.451c0-.873.1-.907,1.107-.907h1.947a11.23,11.23,0,0,1,2.586.169,1.433,1.433,0,0,1,1.043,1.274l.3,1.31a.666.666,0,0,0,.873-.031c0-.74-.134-2.017-.134-3.226,0-1.277.134-2.586.134-3.393a.662.662,0,0,0-.873-.033l-.267,1.377c-.168.84-.4,1.042-.806,1.176a12.508,12.508,0,0,1-2.856.2h-1.947c-1.008,0-1.107,0-1.107-.94V39.709c0-1.276,0-1.343,1-1.343H159.8a16,16,0,0,1,3.259.2c1.747.436,2.05,1.612,2.553,3.19a.659.659,0,0,0,.838-.067,37.437,37.437,0,0,0-.537-4.467c-.4.1-2.383.1-4.533.1h-6.316c-1.15,0-2.174-.036-3.308-.082-.006,0-.008-.012-.013-.016-.1.006-.192,0-.29.009-.124-.005-.224,0-.352-.009-.007,0-.009.016-.016.02-.867.042-1.715.078-2.6.078-1.276,0-2.552-.031-3.493-.1a.587.587,0,0,0-.067.84l.6.067c1.175.134,1.513.4,1.513.637a3.592,3.592,0,0,1-.3,1.31c-.572,1.444-2.115,5.239-3.123,7.523-.739,1.781-2.184,5.243-3.226,7.459-1.68-3.828-3.224-7.692-4.77-11.589a42.2,42.2,0,0,1-1.68-4.7c.033-.268.3-.469,1.58-.637l.5-.067a.587.587,0,0,0-.067-.84c-1.412.066-2.586.1-4.063.1-1.444,0-2.519-.031-3.493-.1Zm47.794,0c-3.292,0-5.608.1-7.49.267a.562.562,0,0,0-.033.84l1.076.134c1.376.168,1.477.741,1.477,3.932V54.453c0,3.527-.067,3.965-2.016,4.2l-.84.1a.645.645,0,0,0,.067.84c1.578-.067,2.788-.1,4.2-.1,1.343,0,2.485.035,4,.1a.657.657,0,0,0,.067-.84l-.706-.1c-1.948-.268-2.014-.672-2.014-4.2V50.223c0-.705.068-.74,1.58-.74a2.4,2.4,0,0,1,2.384,1.074c1.042,1.513,2.419,3.831,3.293,5.073,2.384,3.393,4.1,4.233,6.953,4.233a5.246,5.246,0,0,0,1.477-.167.281.281,0,0,0-.031-.47,4.014,4.014,0,0,1-2.319-.942c-2.284-1.913-4.065-4.6-6.752-8.936-.167-.268-.335-.6-.167-.8,1.68-.672,4.2-2.419,4.2-5.61a5.006,5.006,0,0,0-2.789-4.7,11.907,11.907,0,0,0-5.61-1.007Zm28.609,0c-.2.1-.268.7-.067.84l.84.067c1.982.168,2.047.739,2.047,4.3V54.389c0,3.559-.065,4.03-2.047,4.264l-.84.1a.654.654,0,0,0,.067.84c1.68-.067,2.821-.1,4.233-.1,1.343,0,2.484.035,4.164.1.2-.1.27-.706.069-.84l-.84-.1c-1.982-.234-2.05-.705-2.05-4.264V42.431c0-3.56.068-4.131,2.05-4.3l.84-.067c.2-.136.133-.741-.069-.84-1.68.066-2.821.1-4.164.1C207.628,37.322,206.486,37.292,204.807,37.224Zm-28.642,1.04c3.728,0,5.376,2.52,5.376,5.173,0,2.284-.773,3.459-1.68,4.164a5.629,5.629,0,0,1-3.462.876c-1.712,0-2.217-.068-2.317-.169a2.631,2.631,0,0,1-.1-1.107v-7.86c0-.941.1-1.076,2.183-1.076ZM98.348,71.189a1.732,1.732,0,0,0-1.94,1.571c0,.974.777,1.275,1.548,1.477s1.542.3,1.542.858c0,.53-.612.648-1.011.648-.61,0-1.149-.27-1.149-.96h-1.1c-.014,1.279,1.062,1.847,2.21,1.847,1.412,0,2.161-.714,2.161-1.666,0-1.178-1.164-1.417-1.542-1.51-1.3-.335-1.548-.387-1.548-.786,0-.436.421-.588.784-.588.546,0,.989.16,1.025.784h1.107c0-1.2-1-1.673-2.081-1.673Zm56.572,0a2.726,2.726,0,0,0,0,5.44,1.76,1.76,0,0,0,1.426-.713l.116.588h.726V73.7h-2.181v.851h1.15a1.123,1.123,0,0,1-1.236,1.118c-1.025,0-1.41-.872-1.41-1.738,0-.91.385-1.782,1.41-1.782a1.067,1.067,0,0,1,1.1.873h1.092a2.088,2.088,0,0,0-2.19-1.833Zm29.159,0a2.726,2.726,0,1,0,2.551,2.742,2.519,2.519,0,0,0-2.551-2.742Zm68.468,0a2.726,2.726,0,0,0,0,5.44,2.193,2.193,0,0,0,2.284-2.123h-1.1a1.17,1.17,0,0,1-1.178,1.163c-1.027,0-1.412-.872-1.412-1.738,0-.91.386-1.782,1.412-1.782a1.122,1.122,0,0,1,1.134.909h1.1a2.107,2.107,0,0,0-2.239-1.869Zm-187.38.125L66.541,76.5H67.7l.867-3.533h.013l.88,3.533h1.134l1.4-5.191H70.868l-.851,3.578H70l-.887-3.578H68.045l-.9,3.533h-.016l-.82-3.533H65.167Zm18.229,0L81.427,76.5h1.156l.408-1.154h1.94l.392,1.154h1.185l-1.94-5.191H83.4Zm27.48,0V76.5h1.143V74.265h2.1V76.5h1.143V71.313h-1.143v1.994h-2.1V71.313h-1.143Zm14.987,0V76.5h1.143V71.313Zm11.745,0V76.5h1.069V73.029h.013l2.159,3.475h1.143V71.313h-1.069V74.8h-.016l-2.165-3.482h-1.134Zm29.7,0v.96h1.555V76.5H170V72.273h1.557v-.96Zm29.7,0V76.5h1.069V73.029h.016L200.25,76.5h1.141V71.313h-1.069V74.8h-.013l-2.168-3.482h-1.134Zm38.227,0V76.5h2.239c1.585,0,2.355-1.119,2.355-2.624a2.272,2.272,0,0,0-2.355-2.566h-2.239Zm-51.154.835c1.025,0,1.41.873,1.41,1.782,0,.865-.385,1.738-1.41,1.738s-1.412-.872-1.412-1.738c0-.91.387-1.782,1.412-1.782Zm52.295.125h.815c1.135,0,1.5.669,1.5,1.715,0,1.149-.633,1.555-1.294,1.555h-1.018v-3.27Zm-152.409.321h.013l.657,1.9H83.289l.675-1.9ZM211.93,75.386V76.5h.524a.665.665,0,0,1-.517.684v.524a1.238,1.238,0,0,0,1.136-1.207V75.386H211.93Z" transform="translate(0.553 0)"/><path class="a" d="M-25.719,989.765l-10.72,27.118c-3.482,8.623-5.11,13.321-10.388,13.8v.893h15.833v-.893c-7.654-1.174-7.691-2.937-4.139-12.074v.082c5.476.774,5.524,2.225,5.661,7.209v10.838c0,3.871-1.462,14.709,12.685,14.709,10.13,0,12.639-6.338,12.776-12.58l.274-10.6c.182-6.388.457-9.1,4.609-9.582v-.726H-12.362v.726c6.387.629,6.844,3.435,6.844,9.582v2.168c-3.976-1.045-5.195-4.545-6.728-8.5l-12.686-32.211h-.789Zm-1.459,8.624,7.659,19.573H-34.88c.345-.88.676-1.726,1.078-2.742l6.623-16.831Zm7.964,20.355,1.018,2.6c1.46,3.747,4.043,8.5-3.872,9.337v.893h16.55v1.775c0,5.9.959,15.87-8.9,15.87-12.5,0-11.043-12.483-11.043-13.4v-9.92c0-5.217.6-6.249,6.244-7.154Z" transform="translate(58.411 -982.601)"/></g></g></svg>