<svg xmlns="http://www.w3.org/2000/svg" width="288.412" height="89.723" viewBox="0 0 288.412 89.723"><defs><style>.a{fill:#d92432;}.b{fill:#231f20;}</style></defs><path class="a" d="M33.295,22.052h-.432a9.893,9.893,0,0,0-1.189,2.594c.108.108.216.108.324.216a17.993,17.993,0,0,1,1.3-2.811M34.7,24.971A25.719,25.719,0,0,1,36,22.052a2.639,2.639,0,0,0-.757-.108c-.432.757-1.189,2.486-1.405,3.027a2.326,2.326,0,0,0,.865,0m-1.622.108a15.409,15.409,0,0,1,1.405-3.027h-.649a17.414,17.414,0,0,0-1.405,3.027c0-.108.216,0,.649,0m22.593,47.24c1.189.541,1.946,3.027-.649,4.108,1.3-3.243-3.675-6.27-8.864-3.135.216-.216.324-.432.541-.649C52.1,69.184,60.969,73.076,64.428,68c.216,1.3-1.081,3.135-3.675,3.675,2.811.324,4.216,1.73,6.162,2.054-1.946.108-6.594-2.27-11.242-1.405M37.943,78.048c-9.08-5.621-13.08-17.62-13.621-30.917,1.081-.108,3.675-.324,6.7-.541a70.373,70.373,0,0,0,4.216,25.079c-.324-5.081-.865-15.458-.757-25.3h3.675a121.087,121.087,0,0,1,13.621.757c-.757,13.3-4.756,25.3-13.837,30.917M20.971,76.535c-2.486-1.189-1.73-3.675-.649-4.108-4.648-.865-9.3,1.622-11.134,1.513,1.946-.432,3.351-1.73,6.162-2.054-2.7-.541-3.892-2.378-3.675-3.675,3.351,4.973,12.215,1.189,17.62,4.54.216.216.324.432.541.649-5.3-3.135-10.161-.108-8.864,3.135m3.459-37.727c1.622-.216,4.108-.541,6.7-.757,0,1.513-.108,3.135-.108,4.973-2.594.216-4.865.432-6.7.649a36.552,36.552,0,0,1,.108-4.865m3.027-5.3c1.081-1.189,3.567-2.378,4.756-3.567a10.172,10.172,0,0,1,.649,3.243c-.432.541-2.054.973-2.486,1.838,0,.216-.108.649-.108,1.189a2.993,2.993,0,0,0-.973.108c.649-.973-.216-1.838-1.189-2.162.108,1.081-.324,1.622-.757,1.622-.649-.216-.432-1.622.108-2.27m3.892-6.162a1.7,1.7,0,0,1-.865-2.054,6.621,6.621,0,0,0,.649-.432c.432-.432.324-2.162,2.378-3.892a13.7,13.7,0,0,1,4.648-.216c.108.108,1.513.649,1.73,4.973,1.513-.216,2.378-.432,2.919-.541-2.162,1.622-11.026,2.27-11.459,2.162m1.513-8.864a4.4,4.4,0,0,1,2.054,0,4.338,4.338,0,0,1,2.054,0,6.813,6.813,0,0,1,2.594,0,4.865,4.865,0,0,1,2.162,0c1.73-.432,2.594.432,2.594.973A.5.5,0,0,1,44,20c-.649.432-.541-.649-1.946-.973.649.324.649,1.081,1.405,1.189-2.378.324-1.946-1.513-3.567-1.513.757.216.865,1.081,1.513,1.405-2.378.216-2.27-1.513-4-1.513.865.216.973,1.189,1.946,1.513-2.594.324-2.162-1.622-4.108-1.405.865.432,1.081,1.189,1.946,1.405-2.378.649-2.378-1.405-3.892-1.189.757.216.973.973,1.622,1.189-1.622.432-1.513-.649-2.7-.649.432.216.649.541,1.081.757-2.27.324-2.054-1.946-.432-1.73m9.08,4.973A.541.541,0,1,1,41.4,24a.511.511,0,0,1,.541-.541m2.7,10.486a4.235,4.235,0,0,0-1.405.216,7.11,7.11,0,0,1-.216-6.594c0,2.27.324,5.513,1.622,6.378m3.675-.432c.649.649.757,2.054,0,2.27a1.479,1.479,0,0,1-.757-1.622,2.173,2.173,0,0,0-.865.432,1.736,1.736,0,0,0-1.189-.541A5.479,5.479,0,0,1,44.1,30.484c1.3.973,3.351,1.946,4.216,3.027m-2.054,2.054a1.029,1.029,0,0,0,.216.757c-.973-.108-1.838-.108-2.7-.216a4.1,4.1,0,0,1,2.486-.541m-4.324-1.946c-1.081-.865-1.946-4-.865-6.27.216-.649.973-.973.865-.541a13.209,13.209,0,0,0,0,6.81m-9.08,3.567c.973-1.946,1.189-4.54-.108-8.108,1.081.973,1.622,3.459,1.73,4.756a6.153,6.153,0,0,0,.324-3.027c.757,3.135.216,7.567-.541,8.216-.541-.216-.865-.865-1.189-1.3a5.58,5.58,0,0,0,.973,1.838c5.081-1.73,8.756-5.837,11.567-4.756a6.283,6.283,0,0,0-3.892,1.838C40,36.43,38.7,39.673,33.4,41.186c-.649-.432-1.405-2.594-1.622-3.351s-.541-.973-.865-.973a5.188,5.188,0,0,1,.108-1.946,3.8,3.8,0,0,1,1.513-.757,8.373,8.373,0,0,0,.324,3.027m18.593,1.622c.108,1.622.108,3.243.108,4.865-3.351-.324-8.432-.865-13.729-.865-1.189,0-2.27,0-3.459.108V41.727c2.811-.973,5.081-2.919,6.378-3.784,4,.108,8.324.541,10.7.865M21.08,37.295V41.4a4.952,4.952,0,0,0-1.513-2.162C18.7,43.456,14.161,43.456,12,40.862c.865-3.243,4.865-5.081,8.864-6.054a3.3,3.3,0,0,0,1.081,2.378,2.107,2.107,0,0,0-.865.108m-2.811,7.891A4.125,4.125,0,0,0,21.08,42.7c0,2.054,0,4.108.108,6.162a7.465,7.465,0,0,0-2.919-3.675M55.023,34.808c4,.973,8,2.811,8.864,6.054-2.162,2.594-6.7,2.594-7.567-1.622A3.808,3.808,0,0,0,54.807,41.4V37.295c-.216,0-.541-.108-.757-.108a3.719,3.719,0,0,0,.973-2.378m-.432,14.053c.108-2.054.108-4,.108-6.162a4.125,4.125,0,0,0,2.811,2.486,8.952,8.952,0,0,0-2.919,3.675M69.184,73.4a4.829,4.829,0,0,0,1.73-3.135c-3.027,2.594-7.243,1.405-7.243,1.405s4.973-1.622.865-7.243c.216,5.081-5.189,5.729-9.3,5.729a20.1,20.1,0,0,0-7.675,1.189,36.5,36.5,0,0,0,6.27-14.269c.216-1.405.324-2.811.541-4.108v.108c.432,2.162,1.189,3.027,4.756,4.54s3.351,3.784,1.513,5.3c2.811.757,4.648-3.351,1.73-7.135.324-.216,1.622-2.054-.108-4.216a4.064,4.064,0,0,1-4.108,1.946,3.073,3.073,0,0,0,4.108-.757c.757,1.73-.216,3.027-1.081,3.027a4.446,4.446,0,0,1,2.162,4.54c-.216-1.513-3.784-2.811-5.621-3.892-1.405-.865-2.27-3.027-.216-4.216s4-2.054,5.513-3.567c.216,1.081,1.3,3.567,5.405,4.756-4.54-6.7,1.73-7.027-1.405-13.188-.54,5.837-8.648,7.243-8.648,7.243,6.81-2.7,8.972-6.7,7.675-10.7-.865-2.594-3.351-5.189-8.864-7.027a5.434,5.434,0,0,0,2.378-.973c-3.243.757-4.108.649-5.513.432,6.7,1.838,10.161,4.108,10.81,7.243a5.206,5.206,0,0,1-.54,3.892c-1.189-4.108-7.567-5.729-9.837-6.162a2.808,2.808,0,0,1-1.3,2.594l-4.108-.649a2.288,2.288,0,0,0,.432-2.054c-.324-1.3-1.622-3.027-5.405-5.621,0-.324.108-.649.108-.973A23.749,23.749,0,0,0,52,31.241c-2.27-.973-5.946-2.811-7.675-4.648v-.865c3.351,2.486,6.162,3.027,7.135,3.027-1.622-.432-7.891-3.351-10.918-8.108a11.749,11.749,0,0,1,1.946.108,16.086,16.086,0,0,0,4.324,4.54,14.472,14.472,0,0,1-3.135-4.54,1.163,1.163,0,0,0,.973-1.189c0-.541-.216-1.622-3.027-1.513h-.108a17.456,17.456,0,0,0-3.027-.541c-.108-.757-.757-1.189-1.081,0a20.928,20.928,0,0,0-2.594.432,5.74,5.74,0,0,0-1.946.108c-1.189.108-1.73.757-1.73,1.3a1.289,1.289,0,0,0,1.189,1.3,42.163,42.163,0,0,1-3.351,4.54,11.321,11.321,0,0,0,2.162-1.838l.108-.216a3.873,3.873,0,0,1-.432,1.189c-.216.216-.649.324-.649.432,0,0-.432.216-.432.432V25.3c-1.946,2.27-9.513,5.837-12.54,7.243,3.351-1.405,7.783-2.7,12.648-6.27a1.159,1.159,0,0,0,.216.649c-1.73,1.73-4.324,3.135-5.837,4.216a31.957,31.957,0,0,0,6.162-3.675c.108.108.216.216.324.216s.432.108.541.108c.108.108.216.324.432.432-3.567,2.486-4.973,4.108-5.189,5.513a2.439,2.439,0,0,0,.432,2.162l-4.216.757a3.319,3.319,0,0,1-1.405-2.7c-2.27.432-8.648,2.162-9.837,6.162a5.567,5.567,0,0,1-.541-3.892c.649-3.135,4.108-5.405,10.81-7.243-1.405.216-2.27.324-5.513-.432a4.4,4.4,0,0,0,2.378.973c-5.513,1.73-8,4.324-8.864,7.027-1.3,4,.865,8,7.675,10.7,0,0-8.108-1.405-8.648-7.243C5.621,46.159,12,46.483,7.351,53.185c4-1.189,5.081-3.675,5.405-4.756,1.513,1.622,3.567,2.486,5.513,3.567,2.054,1.189,1.189,3.351-.216,4.216C16.215,57.293,12.54,58.7,12.54,60.1c-.432-2.162.649-3.459,2.162-4.648-.865,0-1.73-1.405-1.081-3.027.216.324,1.513,2.054,4.108.757a3.892,3.892,0,0,1-4.108-1.946,3.08,3.08,0,0,0-.108,4.216c-.541.649-2.486,3.351-.973,6.054a2.276,2.276,0,0,0,2.594,1.081c-1.838-1.405-2.054-3.784,1.513-5.3s4.324-2.378,4.756-4.54v-.108c.108,1.3.324,2.7.541,4.108.541,4.108,2.811,9.4,6.27,14.377a21.979,21.979,0,0,0-7.567-1.081c-4.108,0-9.513-.649-9.3-5.729-4.108,5.513.865,7.243.865,7.243S8,72.752,4.973,70.157A4.412,4.412,0,0,0,6.7,73.292,6.38,6.38,0,0,1,0,70.481c1.405,8.756,14.7,4.108,16.756,3.135-.865.757-2.594,3.027-.865,4.54,0-2.162,2.378-3.351,3.027-3.459a3.365,3.365,0,0,0,2.594,2.486c-.216-1.513-.108-3.892,4.756-3.567,2.378.108,4.648,1.73,6.594,3.243l.216.108a32.639,32.639,0,0,0,4.865,3.784,32.639,32.639,0,0,0,4.865-3.784c.108-.108.216-.216.324-.216l6.594-3.243c4.865-.216,5.081,2.162,4.756,3.567a3.365,3.365,0,0,0,2.594-2.486A4.053,4.053,0,0,1,60.1,78.048c1.73-1.513,0-3.784-.865-4.54,2.054,1.081,15.35,5.621,16.756-3.135-2.27,3.567-6.486,3.027-6.81,3.027M51.456,26.917a8.175,8.175,0,0,1-3.567-1.081c3.135,2.486,8,3.135,12.54,2.27a13.29,13.29,0,0,1,6.81.649c-.541-1.081-3.675-3.243-5.189-3.459,1.946-3.027.541-5.189,3.567-7.135a3.4,3.4,0,0,0-3.784.108,5.715,5.715,0,0,0-3.675-2.054C56,16,54.483,16.431,53.185,18.269a5.461,5.461,0,0,1,7.783-.216c-3.675-1.838-6.27,1.73-6.486,5.621a8.845,8.845,0,0,1-1.513-4,3.089,3.089,0,0,0-2.594,3.135c-.432-.649-1.838-4.324.757-6.054a2.711,2.711,0,0,1-.757-2.486c1.622.973,4.108.757,6.81,1.405-2.594-1.622-5.513-.541-7.459-2.486a3.952,3.952,0,0,0,.649,3.459,5.557,5.557,0,0,0,.541,7.891c-.108-1.405.324-3.135,1.513-3.784.324,2.054,2.054,3.892,2.378,4.432,0-.973.324-4.973,1.838-4.865.865.108,1.622,1.73,1.3,2.919-.541,1.838-1.73,4.216-6.486,3.675M36.538,24.863c.216-.432.541-1.622.865-2.486l-.649-.108c-.432.973-1.081,2.486-1.189,2.811a3.156,3.156,0,0,1,.973-.216m-21.08,3.243c4.54.865,9.4.216,12.54-2.27a6.963,6.963,0,0,1-3.567,1.081c-4.756.541-6.054-1.946-6.486-3.567-.324-1.189.324-2.919,1.3-2.919,1.405-.108,1.73,3.892,1.838,4.865.324-.541,2.054-2.378,2.378-4.432a3.784,3.784,0,0,1,1.513,3.784,5.557,5.557,0,0,0,.541-7.891A3.952,3.952,0,0,0,26.16,13.3c-2.054,1.838-4.865.865-7.459,2.486,2.7-.649,5.189-.324,6.81-1.405a2.711,2.711,0,0,1-.757,2.486c2.594,1.838,1.189,5.405.757,6.054a3.089,3.089,0,0,0-2.594-3.135,7.721,7.721,0,0,1-1.513,4c-.216-3.892-2.811-7.459-6.486-5.621a5.67,5.67,0,0,1,7.783.216c-1.3-1.838-2.811-2.27-4.973-2.054a5.715,5.715,0,0,0-3.675,2.054,3.4,3.4,0,0,0-3.784-.108C13.4,20.215,12,22.377,13.837,25.4c-1.622.216-4.648,2.27-5.189,3.459a12.272,12.272,0,0,1,6.81-.757m23.89-2.27a36.957,36.957,0,0,1-7.243.216,2.461,2.461,0,0,1-.973-.865,2.055,2.055,0,0,0,.541,1.405,29.382,29.382,0,0,0,7.675-.757M35.457,9.621c.216,1.73.973,2.594,1.405,2.378s-.432-3.351,1.405-4.973c-.865,1.73,0,3.135.324,4.865.216,1.081-.108,2.811-.649,3.027-.649.324-3.135-1.405-2.486-5.3m-1.189,3.892a3.854,3.854,0,0,0,3.675,2.811,2.484,2.484,0,0,0,2.7-2.162c-1.513.541-.757-.865.324-1.405a2.862,2.862,0,0,0,.973-4.108c-.216,2.162-2.486,3.027-2.162,1.838.216-.865,2.7-3.784.865-7.243C40.43,4.324,40.43,5.3,39.565,5.081S37.727,1.405,39.349,0a3.568,3.568,0,0,0-2.811,3.675c.216,1.405.973,3.243,0,3.784-.541.324-.865.108-.973-.324-.216-.865,0-2.486-1.622-3.027,1.081,2.162-.541,6.162.324,9.4" transform="translate(0)"/><path class="b" d="M93.618,29.384H93.4c-.324-.649-1.189-2.378-4.756-2.378-4.216,0-6.486,2.811-6.486,7.567a8.791,8.791,0,0,0,1.513,5.3,5.342,5.342,0,0,0,4.54,2.27,6.977,6.977,0,0,0,5.837-2.919l.324.216-.324,2.486a13.013,13.013,0,0,1-6.378,1.622c-4.865,0-8.972-3.027-8.972-8.648,0-5.081,3.135-9.08,9.837-9.08a12.428,12.428,0,0,1,5.837,1.3C94.375,27.005,93.618,29.384,93.618,29.384Zm3.675-3.459c.432,0,1.405.108,1.838.108.541,0,1.189-.108,1.838-.108a72.459,72.459,0,0,0-.324,8.756c0,3.784,0,6.486.216,8.54-.541,0-1.189-.108-1.73-.108s-1.3.108-1.838.108c.324-3.027.324-7.135.324-11.459a40.084,40.084,0,0,0-.324-5.837m14.377,13.729a20.6,20.6,0,0,0,.216,3.459A13.27,13.27,0,0,0,110.049,43a12.758,12.758,0,0,0-1.73.108c.108-1.946.216-3.892.216-5.729V27.546h-1.3a31.079,31.079,0,0,0-3.892.216,2.993,2.993,0,0,0,.108-.973,2.993,2.993,0,0,0-.108-.973c1.946.108,4.756.108,6.7.108,2.054,0,4.324,0,6.7-.108a3.724,3.724,0,0,0-.108.973,2.38,2.38,0,0,0,.108.865c-1.513-.108-3.243-.216-4.973-.216v2.811Zm16-2.27c0,2.162.108,3.459.216,5.837-.541,0-1.189-.108-1.73-.108s-1.189.108-1.73.108c.108-1.946.108-5.3.108-6.81l-1.513-2.594c-1.3-2.162-3.459-5.729-4.756-7.891a16.141,16.141,0,0,0,2.054.108,13.784,13.784,0,0,0,2.054-.108,95.727,95.727,0,0,0,4.432,8.54,70.154,70.154,0,0,0,4.324-8.54,6.185,6.185,0,0,0,1.513.108,3.012,3.012,0,0,0,1.081-.108c-.324.649-2.162,3.567-2.594,4.216-1.081,1.838-2.162,3.675-3.135,5.513a1.437,1.437,0,0,0-.324.757v.973ZM145.4,27.762c-.108,1.946-.108,4.324-.108,6.486,0,4,0,4.865.757,5.837a4.664,4.664,0,0,0,3.892,1.513A4.3,4.3,0,0,0,154.154,39a9.4,9.4,0,0,0,.324-3.351c0-3.243,0-6.594-.216-9.837.324,0,.757.108,1.081.108s.757-.108,1.189-.108l-.108,1.189c-.108,2.162-.216,7.351-.216,9.837,0,2.919-.865,4.324-2.594,5.405a8.451,8.451,0,0,1-4.216,1.081c-3.027,0-6.594-.973-7.243-4.865V30.356c0-1.3,0-3.243-.108-4.54a9.3,9.3,0,0,0,1.73.108c.54,0,1.081-.108,1.622-.108v1.946Zm14.7,5.189V25.924h1.189c2.378,2.594,4.648,4.973,7.675,8l2.919,2.919a6.856,6.856,0,0,0,1.3,1.081V32.3a61.432,61.432,0,0,0-.324-6.378,3.333,3.333,0,0,0,1.081.108c.432,0,.757-.108,1.081-.108-.216,3.027-.324,4.865-.324,8.54v8.864h-1.081c-3.243-3.459-9.4-9.621-12-12.107,0,3.459,0,5.3.108,7.891a30.792,30.792,0,0,0,.216,4c-.324,0-.757-.108-1.081-.108-.432,0-.757.108-.973.108l.216-3.459c0-.649.108-2.594.108-3.243l-.108-3.459Zm18.485-7.027c.432,0,1.405.108,1.838.108.54,0,1.189-.108,1.73-.108a72.459,72.459,0,0,0-.324,8.756c0,3.784,0,6.486.216,8.54-.541,0-1.189-.108-1.73-.108s-1.3.108-1.838.108c.324-3.027.324-7.135.324-11.459,0-1.622,0-3.459-.216-5.837m16,10.81c.216-.541,3.027-7.567,4-10.81a6.594,6.594,0,0,0,2.378,0c-1.081,2.162-2.594,5.729-3.567,8-1.3,3.027-2.486,6.162-3.567,9.3a2.4,2.4,0,0,0-.973-.108c-.649,0-.757.108-1.189.108a79.223,79.223,0,0,0-3.027-7.783c-.324-.865-1.946-4.865-2.27-5.621-.216-.649-1.405-3.243-1.622-3.784a13.082,13.082,0,0,0,2.054.108c.54,0,1.189-.108,1.838-.108.757,2.486,1.189,3.784,3.243,9.189.541,1.405,1.189,2.7,1.73,4Zm11.783-3.351a45.19,45.19,0,0,0,5.405-.216,2.38,2.38,0,0,0-.108.865,2.107,2.107,0,0,0,.108.865c-.649,0-1.3-.108-1.946-.108h-3.459V41.6c.649,0,3.892-.108,6.054-.216a1.858,1.858,0,0,0-.108.865,2.107,2.107,0,0,0,.108.865C210.907,43,209.393,43,207.772,43c-1.513,0-3.135,0-4.648.108,0-1.081.108-2.054.108-3.135,0-1.405.108-4.54.108-5.729,0-1.081,0-5.946-.216-8.432,1.189.108,3.243.108,4.54.108,1.189,0,2.811-.108,4.648-.108a2.111,2.111,0,0,0-.108.757,2.4,2.4,0,0,0,.108.973l-2.378-.108h-3.459v5.946h-.108Zm12.648.432c.432,0,1.081.108,1.73.108a3.275,3.275,0,0,0,3.459-3.459,2.91,2.91,0,0,0-1.081-2.594,3.609,3.609,0,0,0-2.378-.649c-.432,0-1.405.108-1.73.108v6.486Zm4.756,1.838c.432.541.973,1.405,1.3,1.838,1.946,2.811,2.7,3.675,4.216,5.621a14.51,14.51,0,0,0-2.27-.108,11.771,11.771,0,0,0-2.054.108c-.324-.541-.973-1.513-1.3-2.054-1.3-1.946-2.811-4.216-4.216-6.162H218.8v3.567c0,.757.108,4,.108,4.648-.54,0-1.081-.108-1.73-.108-.54,0-1.189.108-1.73.108.216-4.973.216-5.513.216-10.378,0-3.243,0-3.675-.216-6.918.54,0,1.189.108,2.486.108.649,0,3.567-.108,4.108-.108a5.267,5.267,0,0,1,3.892,1.189,3.925,3.925,0,0,1,1.189,2.811c0,2.811-2.054,4.216-4.324,4.648.324.108.973,1.189.973,1.189Zm8,3.675c1.189,2.486,2.378,2.919,3.892,2.919a3.037,3.037,0,0,0,3.243-3.135,3.241,3.241,0,0,0-2.054-2.919c-.649-.324-1.838-.757-2.594-1.081-2.486-1.081-3.135-2.378-3.135-4.432,0-2.162,1.3-5.081,5.837-5.081a8.392,8.392,0,0,1,4.216,1.081,8.5,8.5,0,0,0-.757,2.378h-.324a3.193,3.193,0,0,0-3.243-2.162,2.616,2.616,0,0,0-2.919,2.7c0,1.838,1.3,2.378,3.459,3.243,1.946.757,2.7,1.081,3.459,1.838a4.715,4.715,0,0,1,1.189,3.351c0,2.594-1.838,5.513-6.378,5.513a10.967,10.967,0,0,1-4.756-1.3,9.2,9.2,0,0,0,.54-2.811l.324-.108Zm13.08-13.4c.432,0,1.405.108,1.838.108.54,0,1.189-.108,1.73-.108a72.459,72.459,0,0,0-.324,8.756c0,3.784,0,6.486.216,8.54-.54,0-1.189-.108-1.73-.108s-1.3.108-1.838.108c.324-3.027.324-7.135.324-11.459a27.947,27.947,0,0,0-.216-5.837m14.81,13.729a20.6,20.6,0,0,0,.216,3.459A13.269,13.269,0,0,0,258.038,43a12.759,12.759,0,0,0-1.73.108c.108-1.946.216-3.892.216-5.729V27.546h-1.3a31.08,31.08,0,0,0-3.892.216,2.993,2.993,0,0,0,.108-.973,2.993,2.993,0,0,0-.108-.973c1.946.108,4.756.108,6.7.108,2.054,0,4.324,0,6.7-.108a3.724,3.724,0,0,0-.108.973,2.38,2.38,0,0,0,.108.865c-1.513-.108-3.243-.216-4.973-.216v2.811l-.108,9.4Zm16.323-2.27c0,2.162.108,3.459.216,5.837-.54,0-1.189-.108-1.73-.108s-1.189.108-1.73.108c.108-1.946.108-5.3.108-6.81l-1.513-2.594c-1.3-2.162-3.459-5.729-4.756-7.891a16.141,16.141,0,0,0,2.054.108,13.784,13.784,0,0,0,2.054-.108,95.73,95.73,0,0,0,4.432,8.54,70.151,70.151,0,0,0,4.324-8.54,6.185,6.185,0,0,0,1.513.108,3.012,3.012,0,0,0,1.081-.108c-.324.649-2.162,3.567-2.594,4.216-1.081,1.838-2.162,3.675-3.135,5.513a1.437,1.437,0,0,0-.324.757v.973ZM81.835,57.922c0-1.081,0-1.405-.108-3.567,0-.541-.108-2.811-.108-3.243a13.891,13.891,0,0,0,3.459,0c-.216,3.784-.216,6.918-.216,10.81,0,1.73,0,3.351.108,4.756h.541c.757,0,4.324,0,5.837-.216a3.946,3.946,0,0,0,0,1.838c-1.3,0-3.459-.108-4.756-.108-1.622,0-2.919,0-4.756.108,0-.432.216-6.27.216-6.918Zm20.215,9.4c4.324,0,5.946-4,5.946-7.567,0-4.108-1.513-7.567-5.946-7.567-4.324,0-5.946,4.216-5.946,7.567,0,3.784,1.622,7.567,5.946,7.567m9.4-7.891c0,5.621-3.784,9.189-9.4,9.189-5.189,0-9.4-3.135-9.4-8.648,0-6.378,4.324-9.189,9.4-9.189,4.756.108,9.4,2.594,9.4,8.648m3.135-1.3V51.112h1.189c2.378,2.594,4.648,4.973,7.675,7.891l2.919,2.919a13.728,13.728,0,0,0,1.3,1.081V57.381A61.425,61.425,0,0,0,127.345,51a3.333,3.333,0,0,0,1.081.108c.432,0,.757-.108,1.081-.108-.216,3.027-.324,4.865-.324,8.54v8.864H128.1c-3.243-3.459-9.4-9.621-12-12.107,0,3.459,0,5.3.108,7.891a29.958,29.958,0,0,0,.216,4c-.324,0-.757-.108-1.081-.108s-.757.108-.973.108l.216-3.459c0-.649.108-2.594.108-3.243l-.108-3.351Zm21.62,5.189c0,1.189.108,2.378.108,3.459.54,0,2.811.108,3.459.108,1.622,0,5.946-1.189,5.946-7.675,0-3.243-1.513-6.918-6.81-6.918a20.83,20.83,0,0,0-2.594.108c0,.973-.108,2.054-.108,3.027v7.891Zm9.189,3.567a9.429,9.429,0,0,1-5.405,1.405c-1.513,0-3.135-.108-4.648-.108-.757,0-1.622.108-2.378.108l.108-4.648v-9.4c0-1.081-.108-2.162-.108-3.243.649,0,1.405.108,2.054.108,1.405,0,2.811-.108,4.324-.108,2.162,0,4.756.108,6.918,1.73a7.8,7.8,0,0,1,2.919,6.378c0,3.567-1.405,6.27-3.784,7.783m15.783.432c4.324,0,5.946-4,5.946-7.567,0-4.108-1.513-7.567-5.946-7.567-4.324,0-5.946,4.216-5.946,7.567,0,3.784,1.622,7.567,5.946,7.567m9.4-7.891c0,5.621-3.784,9.189-9.4,9.189-5.189,0-9.4-3.135-9.4-8.648,0-6.378,4.432-9.189,9.513-9.189,4.648.108,9.3,2.594,9.3,8.648m3.027-1.3V51.112H174.8c2.378,2.594,4.648,4.973,7.675,7.891l2.919,2.919a13.725,13.725,0,0,0,1.3,1.081V57.381A61.432,61.432,0,0,0,186.368,51a3.333,3.333,0,0,0,1.081.108c.432,0,.757-.108,1.081-.108-.216,3.027-.324,4.865-.324,8.54v8.864h-1.081c-3.243-3.459-9.4-9.621-12-12.107,0,3.459,0,5.3.108,7.891a29.957,29.957,0,0,0,.216,4c-.324,0-.757-.108-1.081-.108-.432,0-.649.108-.973.108l.216-3.459c0-.649.108-2.594.108-3.243l-.108-3.351Z" transform="translate(6.375 2.074)"/><path class="a" d="M47.828,80.8l.649-.973c.216-.324.432-.541.649-.865a2.262,2.262,0,0,0,.432-.649h.432v3.027h.757v.432H49.99v1.3h-.649v-1.3H47.179v-.108a6,6,0,0,0,.649-.865m1.622-1.838c-.108.108-.216.324-.432.54-.108.216-.324.432-.432.649a2.261,2.261,0,0,0-.432.649,2.363,2.363,0,0,1-.324.54h1.73Zm-5.621,4c.108,0,.216.108.432.108a1.159,1.159,0,0,0,.649-.216,1.079,1.079,0,0,0,.432-.54,2,2,0,0,0,.216-.757,2.38,2.38,0,0,0,.108-.865,1.9,1.9,0,0,1-.432.541,1.562,1.562,0,0,1-.757.216,1.826,1.826,0,0,1-1.081-.324,1.614,1.614,0,0,1-.324-1.081,1.371,1.371,0,0,1,.108-.649c.108-.216.216-.324.324-.541a2.364,2.364,0,0,1,.541-.324,2,2,0,0,1,1.3,0c.216.108.324.216.541.324l.324.649a2.4,2.4,0,0,1,.108.973,3.333,3.333,0,0,1-.108,1.081,3.84,3.84,0,0,1-.432.973l-.649.649a2.037,2.037,0,0,1-.865.216h-.324c-.108,0-.216,0-.216-.108a.335.335,0,0,0-.108-.216c0-.108,0-.108-.108-.216.108,0,.216.108.324.108m1.622-4.108a.934.934,0,0,0-.649-.324.654.654,0,0,0-.649.324c-.216.216-.216.541-.216.973a1.4,1.4,0,0,0,.216.865c.108.216.324.216.649.216.216,0,.324,0,.432-.108l.324-.324c.108-.108.108-.216.216-.432,0-.216.108-.324.108-.54a2.262,2.262,0,0,1-.432-.649m-6.27,2.162a1.939,1.939,0,0,1,.757-.541c-.108,0-.216-.108-.324-.108-.108-.108-.216-.108-.216-.216-.108-.108-.108-.216-.216-.324,0-.108-.108-.216-.108-.324a.65.65,0,0,1,.108-.432c.108-.108.108-.216.324-.324a.562.562,0,0,1,.432-.216.975.975,0,0,1,.541-.108,1.371,1.371,0,0,1,.649.108c.216.108.324.108.432.216s.216.216.216.324.108.216.108.432a1.536,1.536,0,0,1-.216.649.993.993,0,0,1-.649.432.4.4,0,0,1,.324.108c.108,0,.216.108.324.216l.324.324a.81.81,0,0,1,.108.541,1.371,1.371,0,0,1-.108.649c-.108.216-.216.324-.324.541a2.363,2.363,0,0,1-.541.324,2,2,0,0,1-1.3,0c-.216,0-.324-.108-.541-.216a1.492,1.492,0,0,1-.324-.432,1.17,1.17,0,0,1-.108-.649,10.2,10.2,0,0,1,.324-.973m2.162-1.946c0-.108-.108-.216-.108-.324l-.216-.216c-.108,0-.216-.108-.324-.108a.4.4,0,0,0-.324.108.233.233,0,0,0-.216.216.4.4,0,0,0-.108.324v.649c0,.108.108.216.108.324l.216.216c.108,0,.216.108.324.108a.4.4,0,0,0,.324-.108.233.233,0,0,0,.216-.216.4.4,0,0,0,.108-.324v-.649m.108,2.27a.82.82,0,0,0-.216-.432c-.108-.108-.216-.216-.324-.216-.108-.108-.216-.108-.432-.108s-.324,0-.432.108-.216.108-.324.216-.108.216-.216.432a4.683,4.683,0,0,0-.108.54.975.975,0,0,0,.108.541.82.82,0,0,0,.216.432c.108.108.216.216.324.216.108.108.216.108.432.108s.324,0,.432-.108.216-.108.324-.216.108-.216.216-.432a4.682,4.682,0,0,0,.108-.541.81.81,0,0,0-.108-.54m-5.513-2.054a.232.232,0,0,0-.216-.216c.324-.108.541-.216.865-.324a1.742,1.742,0,0,0,.757-.432v4.973h-.865V78.857c.324-.108-.541.432-.541.432Zm-4.973-.757H29.343V78.1h3.892v.432H31.613v4.648h-.649V78.532m-4.973,4c.108.108.108.216.216.216s.216.108.324.216c.108,0,.216.108.432.108a.65.65,0,0,0,.432-.108c.108-.108.216-.108.324-.216s.108-.216.216-.324c0-.108.108-.216.108-.432a.826.826,0,0,0-.216-.541,1.492,1.492,0,0,0-.432-.324c-.216-.108-.324-.216-.541-.216a1.826,1.826,0,0,0-.541-.216.844.844,0,0,1-.432-.432,1.536,1.536,0,0,1-.216-.649.81.81,0,0,1,.108-.541,1.492,1.492,0,0,1,.324-.432,2.363,2.363,0,0,1,.541-.324,2,2,0,0,1,1.3,0c.216.108.324.108.432.216a.377.377,0,0,1-.108.216,1.089,1.089,0,0,0-.108.324h-.108c0-.108-.108-.108-.108-.216s-.108-.108-.216-.216l-.216-.216c-.108,0-.216-.108-.324-.108a.4.4,0,0,0-.324.108c-.108,0-.216.108-.324.216s-.108.216-.216.324c0,.108-.108.216-.108.324a.826.826,0,0,0,.216.541,1.493,1.493,0,0,0,.432.324c.216.108.324.216.541.216a.826.826,0,0,1,.541.216.844.844,0,0,1,.432.432,1.159,1.159,0,0,1,.216.649,1.371,1.371,0,0,1-.108.649c-.108.216-.216.324-.324.54a2.363,2.363,0,0,1-.541.324,1.6,1.6,0,0,1-.757.108,1.6,1.6,0,0,1-.757-.108c-.216-.108-.324-.216-.432-.216,0-.108.108-.216.108-.324v-.324h.108a.377.377,0,0,1,.108.216M22.1,79.181v-.973h2.594v.432H22.749v1.838h1.73v.432h-1.73v2.162H24.37c.216,0,.324,0,.432-.108V83.4H22.208V80.154a3.723,3.723,0,0,1-.108-.973" transform="translate(1.79 6.326)"/></svg>