<svg xmlns="http://www.w3.org/2000/svg" width="250.853" height="93.421" viewBox="0 0 250.853 93.421"><defs><style>.a{fill:#860931;}</style></defs><g transform="translate(0)"><path class="a" d="M-245.306,80.592c-2.713,4.077-4.741,7.206-7.61,11.6v49.105l.41-.082c.225-.045,1.963-.121,3.862-.168l3.452-.086V110.713c0-17.112-.049-30.191-.114-30.121Zm-33,4.837-.006,30.121-.005,30.121,1.847-.5c2.229-.6,5.686-1.4,8.135-1.889l1.8-.356,0-22.793,0-22.793L-278.3,85.429Zm15.161,4.065c-.07-.074-.118,10.687-.118,26.389V142.4l1.015-.16c.558-.088,2.149-.294,3.535-.458l2.52-.3V97.815C-258.562,95.091-260.739,92.192-263.141,89.494Zm30.123,4.489-.576.5c-2.971,2.676-5.234,4.751-8.324,7.57v39.077h.555c.89,0,4.866.4,6.509.652h0c.831.128,1.584.24,1.674.249.13.012.164-4.87.164-24.017Zm-7.535,49.521a8.186,8.186,0,0,0-1.016.032l-.351.088v12.432h8.9V143.789l-1.162-.082c-1.549-.11-4.728-.2-6.373-.2Zm-4.64.246h-.556c-.67,0-4.427.339-6.022.542l-1.145.146v11.617h7.724V143.75Zm-11.03,1.178c-.18,0-3.228.621-4.909,1l-2.127.48v9.646h7.069v-5.564C-256.189,147.431-256.2,144.928-256.222,144.928Zm-10.425,2.487c-.2,0-3.155,1.044-4.924,1.741-.936.369-2.821,1.233-4.189,1.919l-2.487,1.249-.036,1.865-.036,1.865h11.789v-4.32a39.107,39.107,0,0,0-.116-4.32Z" transform="translate(278.32 -80.591)"/><path d="M-75.213,145.328v31.419h23.826v-5.891H-68.406v-7.593h15.317V157.9l-7.626-.034-7.626-.034-.035-3.305-.035-3.306h16.63v-5.891H-75.213Zm-86.925.128v31.291h6.446l-.082-10.309c-.045-5.67-.11-11.163-.145-12.207l-.064-1.9.591,2.225a149.168,149.168,0,0,0,4.693,14.335l2.807,7.789,2.728.035,2.728.035,1.289-3.766c3.54-10.345,4.687-13.83,5.438-16.53.451-1.62.93-3.3,1.064-3.731l.244-.785-.062,1.178c-.19,3.595-.315,10.14-.316,16.462v7.167h6.546V145.456l-4.865.034-4.865.034-2.405,7.2a143.287,143.287,0,0,0-4.266,14.073c-.438,1.96-.458,2.011-.58,1.505-.07-.288-.433-1.79-.807-3.338-.668-2.768-1.831-6.369-5.029-15.578l-1.341-3.862-4.873-.034ZM23.493,153.39a10.663,10.663,0,0,0-2.479.237,8.764,8.764,0,0,0-4.459,2.735,2.629,2.629,0,0,1-.556.613,5.829,5.829,0,0,1-.1-1.5v-1.505H10.01v22.778h6.131l.057-6.971c.061-7.541.1-8,.8-9.107a5.627,5.627,0,0,1,2.274-1.917c1.877-.651,4.041-.214,5,1.01.718.913.713.852.759,9.229l.042,7.757H31.23l-.042-8.869c-.039-8.15-.062-8.928-.28-9.589a6.8,6.8,0,0,0-4.936-4.661,10.649,10.649,0,0,0-2.478-.236Zm-137.242,0a19.791,19.791,0,0,0-4.4.449,7.8,7.8,0,0,0-5.373,3.974c-.517,1.048-.994,2.924-.8,3.126a22.911,22.911,0,0,0,2.955.065l2.856-.035.181-.72a3.036,3.036,0,0,1,1.677-2.158,4.071,4.071,0,0,1,2.3-.44c1.977-.059,2.825.162,3.6.942a2.791,2.791,0,0,1,.719,2.586c-.271,1.212-1.022,1.489-5.98,2.2-4.684.676-6.209,1.2-7.644,2.626a5.9,5.9,0,0,0-1.669,4.909c.192,3.656,2.5,5.932,6.432,6.347h0a9.118,9.118,0,0,0,2.762,0,9.865,9.865,0,0,0,5.375-2.042,7.755,7.755,0,0,1,.759-.577,2.25,2.25,0,0,1,.136.644,6.607,6.607,0,0,0,.226,1.047l.141.4h6.343l-.3-.89c-.481-1.436-.584-3.581-.493-10.3.071-5.23.054-6.15-.127-6.993a5.419,5.419,0,0,0-1.646-2.911,10.539,10.539,0,0,0-3.726-1.813,18.6,18.6,0,0,0-4.314-.444Zm110.209.017c-5.037-.009-8.156,1.372-9.711,4.3a7.393,7.393,0,0,0-.827,2.859v.475l2.9-.035,2.9-.035.151-.589c.516-2.009,1.678-2.749,4.314-2.749a4.514,4.514,0,0,1,3.153.811,2.411,2.411,0,0,1,.906,1.688,2.22,2.22,0,0,1-.586,2c-.486.409-1.911.748-5.042,1.2-4.45.643-5.731.993-7.2,1.965-2.077,1.379-2.98,4-2.369,6.887a5.942,5.942,0,0,0,1.6,3,7.237,7.237,0,0,0,4.755,2.084c.541.052,1.081.1,1.2.113a18.561,18.561,0,0,0,3.748-.523,10.234,10.234,0,0,0,3.24-1.7l.651-.538.108.571c.059.314.165.792.235,1.062l.127.491H7.117l-.2-.478c-.569-1.361-.614-2.115-.588-9.667.016-4.575-.025-7.459-.111-7.911-.669-3.472-3.991-5.27-9.757-5.28Zm-86.27.006c-3.517,0-5.933.863-8.076,2.885-2.648,2.5-3.8,5.67-3.6,9.941a11.317,11.317,0,0,0,3.456,8.167,10.486,10.486,0,0,0,6.515,2.854,10.043,10.043,0,0,0,2.95,0,9.955,9.955,0,0,0,7.793-4.439,10.98,10.98,0,0,0,1.618-4.23l.111-.622h-6.077l-.167.753a5.051,5.051,0,0,1-2.565,3.5,5.567,5.567,0,0,1-4.373-.123c-1.9-.961-3.017-3.435-3.017-6.662a9.576,9.576,0,0,1,.915-4.489,4.544,4.544,0,0,1,4.387-2.832,4.054,4.054,0,0,1,3.065,1.036,4.174,4.174,0,0,1,1.389,2.112l.223.687h6.083l-.116-.738a9.051,9.051,0,0,0-5.663-7,12.217,12.217,0,0,0-4.851-.8Zm39.834.552.076.295c.073.285,6.962,21.99,7.084,22.32.046.125.828.164,3.3.163h3.244l1.536-6.12c.845-3.366,1.726-7.121,1.959-8.345l.422-2.225.246,1.375c.409,2.29.946,4.531,2.407,10.047l1.4,5.269h6.445l3.6-11.357,3.6-11.357-3.2-.035c-1.76-.019-3.216-.019-3.234,0s-.685,2.393-1.481,5.275c-1.342,4.856-2.109,8.021-2.514,10.376-.09.524-.2.907-.249.851s-.28-1.163-.518-2.459c-.4-2.194-2.589-11.194-3.363-13.844-.061-.21-.323-.229-3.064-.229h-3l-.13.491c-1.027,3.889-2.544,10.243-3.087,12.927-.6,2.947-.7,3.333-.783,2.88-.288-1.586-1.3-6.1-1.637-7.3-.215-.767-.808-2.914-1.316-4.771s-.985-3.568-1.06-3.8l-.134-.425h-6.554Zm-60.119,11.782a13.049,13.049,0,0,1,.038,2.062c-.043,2-.056,2.084-.428,2.754a5.667,5.667,0,0,1-3.951,2.649,4.45,4.45,0,0,1-3.031-.38,2.252,2.252,0,0,1-1.2-1.327,3.152,3.152,0,0,1,.422-3.249c.612-.657,1.948-1.115,4.281-1.467a13.556,13.556,0,0,0,3.3-.8,3.221,3.221,0,0,1,.568-.246ZM0,165.777c.166-.034.2.4.2,1.849,0,2.2-.15,2.787-.94,3.685a5.656,5.656,0,0,1-2.4,1.64,7.056,7.056,0,0,1-3.059.259,2.961,2.961,0,0,1-2.464-2.642,2.762,2.762,0,0,1,1.961-3.1,25.17,25.17,0,0,1,2.972-.674,11.656,11.656,0,0,0,3.593-.929A.33.33,0,0,1,0,165.777Zm-54.263,22.887c-2.918,0-5.074,1.118-5.992,3.107a3.68,3.68,0,0,0-.349,1.932,3.358,3.358,0,0,0,.363,1.928,4.4,4.4,0,0,0,2.119,2.009,30.525,30.525,0,0,0,3.143.96c3.728.98,4.157,1.17,4.562,2.023a2.458,2.458,0,0,1-1.608,3.363,6.323,6.323,0,0,1-4.462-.273,3.248,3.248,0,0,1-1.7-2.4c0-.715-.046-.735-1.65-.735-1.106,0-1.492.042-1.49.164,0,.09.063.547.138,1.015a5.771,5.771,0,0,0,4.77,4.78h0a14.652,14.652,0,0,0,4.687-.016,5.976,5.976,0,0,0,4.161-3.026,3.781,3.781,0,0,0,.311-2,3.582,3.582,0,0,0-.361-2.119,5.254,5.254,0,0,0-2.335-2.238c-.314-.119-1.8-.546-3.312-.949-2.984-.8-3.233-.9-3.783-1.475a2.052,2.052,0,0,1,1.075-3.359,6.069,6.069,0,0,1,3.339.065,2.9,2.9,0,0,1,1.913,2.514c0,.205.162.229,1.548.229h1.547l-.1-.857c-.338-2.809-2.912-4.637-6.526-4.637Zm-61.509.381,2.883,8.648,2.883,8.648,1.711-.036,1.711-.037,2.918-8.509c1.6-4.68,2.921-8.553,2.924-8.607a6.053,6.053,0,0,0-1.532-.1h-1.538l-1,3.108c-2.921,9.047-3.429,10.554-3.5,10.374-.04-.108-1.019-3.171-2.175-6.807l-2.1-6.611-1.592-.037Zm96.716,0,.311.495c.171.272,1.645,2.656,3.277,5.3l2.966,4.8v6.692H-9.5v-6.758l3.207-5.211c1.764-2.866,3.207-5.234,3.207-5.262a14.343,14.343,0,0,0-1.684-.05H-6.448l-2.206,3.8c-1.213,2.089-2.251,3.783-2.3,3.764s-1.089-1.713-2.3-3.765l-2.2-3.731-1.8-.037Zm-143.078.007v6.094c0,6.816.046,7.275.86,8.654a6.005,6.005,0,0,0,3.824,2.722,13.684,13.684,0,0,0,4.947-.061,5.726,5.726,0,0,0,4.342-4.22c.167-.565.214-1.8.262-6.937l.059-6.251H-151l-.04,6.251c-.044,6.906-.017,6.678-.909,7.694-.693.789-1.3,1.023-2.816,1.085a4,4,0,0,1-3.1-.774c-1.178-.971-1.268-1.581-1.268-8.585v-5.671h-3.011Zm19.637,0v17.28h2.877l.034-6.371.034-6.371,3.927,6.367,3.927,6.368,1.6,0,1.6,0v-17.28h-2.877l-.034,6.311-.034,6.311-3.91-6.311-3.911-6.311H-142.5Zm19.768,0v17.28h3.011v-17.28h-3.011Zm25.789,0v17.28h12.7v-2.618h-9.693l.036-2.52.036-2.52,4.353-.035,4.353-.035v-2.349l-4.353-.035-4.353-.035-.036-2.258-.036-2.258h9.563v-2.618H-96.944Zm17.542,0v17.28h3.011v-7.069h2.73c2.863,0,3.307.066,4.027.6.74.548.977,1.3,1.168,3.718.094,1.189.212,2.294.262,2.456.088.285.144.295,1.726.295,1.508,0,1.627-.018,1.535-.229a8.977,8.977,0,0,1-.711-3.546,15.317,15.317,0,0,0-.279-2.378,2.87,2.87,0,0,0-1.929-1.957c-.347-.095-.346-.1.205-.379a4.151,4.151,0,0,0,1.821-1.941,3.636,3.636,0,0,0,.375-2.138,3.787,3.787,0,0,0-.342-2.095,4.494,4.494,0,0,0-3.446-2.475c-.469-.086-2.634-.143-5.466-.143Zm37.048,0v17.28h3.011v-17.28h-3.011Zm7.2,0v2.618h5.5v14.662h3.011V191.671h5.5v-2.618H-35.154Zm-41.237,2.488h2.913a24.92,24.92,0,0,1,3.43.144,2.534,2.534,0,0,1,1.516,3.174,2.274,2.274,0,0,1-1.537,1.841h0a12.76,12.76,0,0,1-3.465.207h-2.857V191.54Z" transform="translate(219.623 -113.297)"/></g></svg>