<svg xmlns="http://www.w3.org/2000/svg" width="280.16" height="84.017" viewBox="0 0 280.16 84.017"><defs><style>.a{fill:#d6001c;}.b{fill:#76232f;}.c{fill:#fff;}.d{fill:#b2b2b2;}</style></defs><path d="M130.772,27.438l-4-7.145a22.5,22.5,0,0,1-1.806-3.847H124.8a27.646,27.646,0,0,1,.236,4.083V32.935H120.8V9.85h4.633l5.182,9.736a20.38,20.38,0,0,1,1.335,2.984h.157a16.726,16.726,0,0,1,1.335-2.984l5.1-9.736h4.476V33.013h-4.24V20.528a39.336,39.336,0,0,1,.157-4.083h-.157a21.94,21.94,0,0,1-1.727,3.847l-4,7.145Zm30.7-.314h-9.265l-2.042,5.81h-4.4L154.25,9.85h5.418l8.4,23.085h-4.554l-2.042-5.81Zm-8.088-3.455h6.831l-1.492-4.319a43.26,43.26,0,0,1-1.806-6.282h-.157a56.913,56.913,0,0,1-1.806,6.2Zm35.57,4.79c-2.12,3.376-4.711,4.947-9.5,4.947-6.125,0-10.286-4.319-10.286-12.014S173.487,9.3,180.161,9.3c4.4,0,7.381,1.963,8.951,5.653l-4,1.963c-.864-2.591-2.591-4-5.182-4-4.083,0-6.439,3.219-6.439,8.48,0,5.182,2.12,8.245,6.36,8.245a6.228,6.228,0,0,0,5.81-3.533l3.3,2.356Zm19.394,10.6c-5.418.079-8.245-2.434-9.422-5.81-5.1-.942-8.166-5.1-8.166-11.778,0-7.773,4.083-12.092,10.6-12.092s10.6,4.319,10.6,12.092c0,6.988-3.376,11.228-8.794,11.935a8.24,8.24,0,0,0,6.36,2.042l-1.178,3.612ZM195.237,21.471c0,5.182,2.12,8.4,6.2,8.4,4.162,0,6.282-3.219,6.282-8.4,0-5.261-2.12-8.4-6.282-8.4C197.357,13.069,195.237,16.21,195.237,21.471ZM233.712,9.85V25.4c0,6.125-4.4,8.088-9.187,8.088-4.711,0-9.108-2.042-9.108-8.088V9.85h4.24V24.219c0,3.926,1.57,5.81,4.947,5.81s4.947-1.884,4.947-5.732V9.85h4.162Zm17.353,17.274H241.8l-2.042,5.81h-4.4l8.4-23.085h5.418l8.4,23.085h-4.554Zm-8.088-3.455h6.831l-1.492-4.319a60.765,60.765,0,0,1-1.806-6.282h-.157a56.917,56.917,0,0,1-1.806,6.2l-1.57,4.4Zm30.387,9.265a4.435,4.435,0,0,1-1.1-2.277L271.4,26.81c-.628-2.513-1.884-2.984-3.926-2.984h-2.827v9.03h-4.24V9.85h8.4c5.261,0,8.088,2.12,8.088,6.753a5.453,5.453,0,0,1-5.261,5.81,4.254,4.254,0,0,1,4,3.612l1.178,4.476a5.559,5.559,0,0,0,1.256,2.434ZM264.57,20.528h4c2.67,0,3.926-1.1,3.926-3.612,0-2.277-1.256-3.612-3.926-3.612h-4ZM285.849,9.85V33.013h-4.24V9.85Zm20.258,23.085H291.424V9.85h14.683v3.69H295.586v6.125h9.265v3.612h-9.265v6.2h10.522Z" transform="translate(-25.948 -1.998)"/><path class="a" d="M54.6,51.512l6.753,3.847h.471l-.079.236L84.438,68.708V26.7L54.6,43.974Z" transform="translate(-11.728 -5.735)"/><path class="b" d="M23.163,55.36l6.674-3.847V43.974L0,26.7V68.708L22.771,55.6l-.079-.236Z" transform="translate(0 -5.735)"/><path class="a" d="M46.3,0,82.655,20.965V0Z" transform="translate(-9.945)"/><path class="b" d="M0,0V20.965L36.355,0ZM51.274,55.514V58.1H50.017a4.833,4.833,0,0,0-2.277,3.612H46.405l.157,2.827.707,13.034,25.362-14.6L50.017,49.86l-1.256,5.653Zm-1.649-5.889-6.753-3.847v3.847Z"/><path class="a" d="M24.027,68.036l-1.256-5.653L0,75.5,25.362,90.1l.864-15.861H24.969a4.692,4.692,0,0,0-2.277-3.612H21.436V68.036h2.591Zm5.81-9.736-6.674,3.847h6.674Z" transform="translate(0 -12.523)"/><path class="c" d="M45.9,32a1,1,0,0,0,.471-.079A1.888,1.888,0,0,0,45.033,28.7a1,1,0,0,0-.471.079A1.888,1.888,0,0,0,45.9,32Zm2.12,36.433c-5.261.079-6.753,3.3-6.753,3.3l-.314.628L40.4,87.512l4.633,2.67,10.993-6.36-.707-13.034c0-.236-1.335-2.434-7.3-2.356Z" transform="translate(-8.678 -6.165)"/><g transform="translate(21.436 55.435)"><path class="d" d="M27.3,70.679V73.27h1.256a4.833,4.833,0,0,1,2.277,3.612H32.09l-.864,15.861,6.439,3.69.55-15.154.314-.628s1.492-3.219,6.753-3.3c5.968-.079,7.3,2.12,7.381,2.277L52.5,76.8H53.84a4.692,4.692,0,0,1,2.277-3.612h1.256V70.6c-.236.079-30.073.079-30.073.079Z" transform="translate(-27.3 -70.6)"/></g><path class="d" d="M47.213,92.556a1.256,1.256,0,1,0-2.513,0v3.219h2.513V92.556Z" transform="translate(-9.602 -19.611)"/><g transform="translate(31.565 35.962)"><path class="b" d="M40.2,45.8v1.806l4.79,2.827,4.868-2.827V45.8Zm4.79,7.459L40.2,56.086v1.806h9.658V56.086Z" transform="translate(-40.2 -45.8)"/></g><g transform="translate(36.355)"><path class="b" d="M52.817,34.392h.55a.785.785,0,1,1,0,1.57h-.55v2.277l29.838-17.2L46.3,0V22.614A1.911,1.911,0,0,1,48.184,24.5a2.227,2.227,0,0,1-.55,1.335,1.266,1.266,0,0,0-.471,1.021,1.384,1.384,0,0,0,.628,1.178,6.557,6.557,0,0,1,5.025,6.36Z" transform="translate(-46.3)"/></g><g transform="translate(28.581 22.614)"><path class="d" d="M44.173,54.241h-4.79V52.356l4.79-2.748V46.7l-4.79-2.748V42.07H41.5c-.157-.079-.236-.393-.236-.785,0-.471.157-.785.314-.785h.157c0-3.612,1.1-6.517,2.434-6.517a9.62,9.62,0,0,1,1.492.157,1.384,1.384,0,0,1-.628-1.178,1.266,1.266,0,0,1,.471-1.021c-.157,0-.314.079-.471.079A1.888,1.888,0,0,1,43.7,28.8a1.932,1.932,0,0,0-1.413,1.806,2.227,2.227,0,0,0,.55,1.335,1.318,1.318,0,0,1,.471,1.1,1.639,1.639,0,0,1-.628,1.256,6.426,6.426,0,0,0-5.025,6.36h-.471a.742.742,0,0,0-.785.785.787.787,0,0,0,.785.785h.471V55.889h6.517Z" transform="translate(-36.4 -28.8)"/></g><path class="c" d="M42.563,48.22v2.905l4.79,2.748v1.884h-4.79v1.57H28.9l1.335,5.889H55.047l1.335-5.889H49.158V43.588h.55a.787.787,0,0,0,.785-.785.742.742,0,0,0-.785-.785h-.55A6.5,6.5,0,0,0,42.641,35.5c-1.335,0-2.434,2.905-2.434,6.517h-.236c-.157,0-.314.314-.314.785,0,.393.079.707.236.785h7.538v1.884Z" transform="translate(-6.208 -7.625)"/><path class="b" d="M40.2,51.2l3.062,1.806L40.2,54.812Z" transform="translate(-8.635 -10.998)"/><path class="a" d="M51.641,51.2,48.5,53.006l3.141,1.806Z" transform="translate(-10.418 -10.998)"/><path class="c" d="M61.882,26.379l-2.827,2.591.314-3.769L55.6,24.573l3.141-2.12-1.884-3.3,3.612,1.1L61.882,16.8l1.335,3.455,3.612-1.1-1.884,3.3,3.141,2.12-3.769.628.314,3.769Z" transform="translate(-11.943 -3.609)"/><path class="a" d="M29.367,35.962a.785.785,0,0,1,0-1.57h.471a6.557,6.557,0,0,1,5.025-6.36,1.526,1.526,0,0,0,.628-1.256,1.426,1.426,0,0,0-.471-1.1,1.894,1.894,0,0,1-.55-1.335,1.932,1.932,0,0,1,1.413-1.806c.157,0,.314-.079.471-.079V0L0,20.965l29.838,17.2V35.884l-.471.079Z"/><g transform="translate(24.263 50.802)"><path class="d" d="M38.871,68.233h1.884L40.52,64.7H38.4Zm3.141,0h2.513V64.7H41.776Z" transform="translate(-32.511 -64.7)"/><path class="a" d="M34.2,68.233h1.727L35.454,64.7H33.491Zm-2.591,0h1.335L32.313,64.7H30.9l.707,3.533Z" transform="translate(-30.9 -64.7)"/><path class="b" d="M55.3,68.233h1.727l.628-3.533H55.693Zm3.062,0h1.413l.785-3.533H58.99Z" transform="translate(-36.141 -64.7)"/></g><g transform="translate(92.811 37.611)"><path d="M130.842,49.313h2.042V60.934c0,2.748-.471,4.554-1.335,5.418a4.794,4.794,0,0,1-3.533,1.413,4.357,4.357,0,0,1-3.533-1.492,5,5,0,0,1-1.021-2.042,22.831,22.831,0,0,1-.236-3.926V49.313h1.884V47.979H118.2v1.335h2.042V60.856c0,2.827.628,4.947,1.806,6.2,1.178,1.335,3.062,1.963,5.653,1.963,2.513,0,4.4-.707,5.575-2.2a5.84,5.84,0,0,0,1.256-2.513,18.086,18.086,0,0,0,.314-4.162V49.313h2.042V47.979h-6.2l.157,1.335Zm21.986,8.559a5.429,5.429,0,0,0-1.1-3.533,3.7,3.7,0,0,0-3.062-1.256,5.937,5.937,0,0,0-3.062.785,7.7,7.7,0,0,0-2.434,2.356V53.4h-4.79V54.81h2.042V67.216H138.38v1.413h6.91V67.216h-2.12V57.558a8.913,8.913,0,0,1,2.2-1.806,4.98,4.98,0,0,1,2.277-.628,2.052,2.052,0,0,1,1.806.707,4.749,4.749,0,0,1,.55,2.513v8.873h-2.042v1.413h6.91V67.216h-2.042V57.872Zm8.559-4.476h-4.868V54.81h2.12V67.137h-2.12v1.413h6.91V67.137h-2.042Zm-2.748-5.5h2.748v2.748h-2.748Zm16.018,6.91h2.12L172.143,65.1,167.825,54.81h2.12V53.4h-6.282V54.81h1.256l5.732,13.9h1.413l6.2-13.9h1.178V53.4h-4.79Zm11.464-1.727a5.918,5.918,0,0,0-4.79,2.2,8.125,8.125,0,0,0-1.884,5.575,8.454,8.454,0,0,0,2.042,5.81,7.167,7.167,0,0,0,5.418,2.277,12.531,12.531,0,0,0,4.79-1.021V65.881a9.012,9.012,0,0,1-4.4,1.178,4.162,4.162,0,0,1-3.612-1.727,7.477,7.477,0,0,1-1.335-4.711h9.344v-.55A8.074,8.074,0,0,0,190.2,54.81,4.766,4.766,0,0,0,186.12,53.082Zm2.748,6.2h-6.282a7.06,7.06,0,0,1,1.021-3.612,2.749,2.749,0,0,1,2.434-1.178q2.827,0,2.827,4.476v.314Zm10.443-3.062V53.4h-4.79V54.81h2.042V67.216h-2.042v1.413h6.91V67.216H199.39V57.558a5.09,5.09,0,0,1,3.69-2.042h.471v1.57h1.727V53.318a3.941,3.941,0,0,0-.942-.157,5.239,5.239,0,0,0-5.025,3.062Zm14.84,3.926L212.9,59.6a11.782,11.782,0,0,1-2.591-1.413,1.824,1.824,0,0,1-.707-1.492,2.26,2.26,0,0,1,.707-1.649,2.487,2.487,0,0,1,1.806-.707,4.446,4.446,0,0,1,1.413.236,4.573,4.573,0,0,1,1.492.785v1.727h1.727v-3.3a8.744,8.744,0,0,0-2.356-.628,11.212,11.212,0,0,0-2.277-.236,5.622,5.622,0,0,0-3.69,1.178,3.869,3.869,0,0,0-1.492,3.062c0,1.963,1.413,3.533,4.319,4.633l1.413.55c1.649.628,2.434,1.492,2.434,2.591a2.123,2.123,0,0,1-.864,1.806,3.143,3.143,0,0,1-2.12.707,4.748,4.748,0,0,1-1.727-.314,8.612,8.612,0,0,1-1.806-1.021V64.389h-1.727v3.376a13.554,13.554,0,0,0,2.513.864,14.612,14.612,0,0,0,2.67.314,6.643,6.643,0,0,0,4.24-1.256,4.019,4.019,0,0,0,1.649-3.3,3.336,3.336,0,0,0-.864-2.356,6.632,6.632,0,0,0-2.905-1.884ZM222,47.9h2.748v2.748H222Zm2.827,5.5h-4.868V54.81H222V67.137h-2.042v1.413h6.91V67.137H224.83Zm13.662,11.778H237a2.28,2.28,0,0,1-1.413,2.042,2.428,2.428,0,0,1-.628.157,1.382,1.382,0,0,1-1.335-.785,4.807,4.807,0,0,1-.471-2.356V54.81H237V53.475h-3.847V50.02l-2.748.707v2.748h-2.042V54.81h2.042v9.108a5.769,5.769,0,0,0,1.1,3.847,4.129,4.129,0,0,0,3.141,1.256,1.531,1.531,0,0,0,.628-.079h.236c.079,0,.236-.079.314-.079s.079,0,.157-.079c.079,0,.157-.079.236-.079s.079,0,.157-.079a4.324,4.324,0,0,0,2.12-3.455Z" transform="translate(-118.2 -47.9)"/><path d="M282.642,55v1.413h2.042L280.13,66.7l-4.319-10.286h2.042V55h-6.282v1.413h1.178l5.81,13.977a8.954,8.954,0,0,1-.785,1.492,4.5,4.5,0,0,1-1.963,2.042,3.574,3.574,0,0,1-1.57.393,3.451,3.451,0,0,1-1.727-.55V72.51H271.1v2.67a3.879,3.879,0,0,0,1.335.393,7.394,7.394,0,0,0,2.277.079,5.074,5.074,0,0,0,2.984-1.413,16.584,16.584,0,0,0,1.649-2.434,1.044,1.044,0,0,0,.236-.628l.393-.785,6.2-13.9h1.178V55Z" transform="translate(-151.043 -49.425)"/></g><g transform="translate(94.695 70.354)"><path d="M121.778,95.41a1.468,1.468,0,0,0,1.57,1.335c.785,0,1.413-.393,1.413-1.1s-.314-1.021-1.57-1.492c-1.178-.393-2.2-.942-2.2-2.356a2.2,2.2,0,0,1,2.434-2.2c1.413,0,2.434.55,2.591,2.042l-1.178.236a1.278,1.278,0,0,0-1.413-1.256,1.118,1.118,0,0,0-1.256,1.1c0,.785.628,1.021,1.649,1.413,1.178.393,2.12.864,2.12,2.356s-1.178,2.2-2.67,2.2-2.434-.628-2.67-1.963Zm9.108-3.141a4.86,4.86,0,0,1,.55,1.335h.079a8.376,8.376,0,0,1,.471-1.335l1.1-2.434h1.256l-2.356,4.79v2.905h-1.178V94.625l-2.513-4.79h1.335Zm6.674,5.261V89.914h2.356c2.12,0,3.69,1.021,3.69,3.769,0,2.827-1.649,3.926-3.69,3.926Zm2.2-1.021c1.492,0,2.591-.785,2.591-2.827,0-2.12-1.1-2.827-2.434-2.827h-1.178V96.51Zm11.621-2.277c.471.707.864,1.413.864,1.413h.079s-.079-.785-.079-1.806V89.757h1.178v7.616h-1.1l-3.062-4.4a15.964,15.964,0,0,1-.864-1.492h-.079s.079.785.079,1.806v4h-1.178V89.679h1.256l2.905,4.554Zm10.914,3.3h-4.711V89.914h4.711v1.021h-3.533v2.277H161.9v1.021h-3.141V96.51h3.533v1.021Zm5.261-5.261a4.86,4.86,0,0,1,.55,1.335h.079a8.378,8.378,0,0,1,.471-1.335l1.1-2.434h1.256l-2.356,4.79v2.905h-1.178V94.625l-2.513-4.79H166.3l1.256,2.434Zm7.773.864a.864.864,0,1,1-.864.864A.871.871,0,0,1,175.329,93.133ZM185.3,95.41H182.16l-.707,2.12H180.2l2.827-7.616h1.57l2.748,7.616h-1.256Zm-2.827-.942h2.434l-.55-1.727c-.393-1.256-.628-2.042-.628-2.042a12.458,12.458,0,0,1-.628,1.963l-.628,1.806Zm13.505-4.633v5.1c0,1.963-1.492,2.67-2.984,2.67s-2.984-.707-2.984-2.67v-5.1h1.178V94.7c0,1.413.628,1.963,1.727,1.963s1.727-.628,1.727-1.963V89.836Zm4.162,5.575a1.468,1.468,0,0,0,1.57,1.335c.785,0,1.413-.393,1.413-1.1s-.314-1.021-1.57-1.492c-1.178-.393-2.2-.942-2.2-2.356a2.2,2.2,0,0,1,2.434-2.2c1.413,0,2.434.55,2.591,2.042l-1.178.236a1.278,1.278,0,0,0-1.413-1.256,1.118,1.118,0,0,0-1.256,1.1c0,.785.628,1.021,1.649,1.413,1.178.393,2.12.864,2.12,2.356s-1.178,2.2-2.67,2.2-2.434-.628-2.67-1.963Zm9.03,2.12v-6.6h-2.2V89.914h5.653v1.021h-2.2v6.6Zm10.836,0a1.94,1.94,0,0,1-.314-.707l-.314-1.335a1.279,1.279,0,0,0-1.413-1.1h-1.021v3.141h-1.178V89.914h2.67c1.727,0,2.591.707,2.591,2.2A1.782,1.782,0,0,1,219.3,94v.079c.707.079,1.1.393,1.335,1.256l.393,1.492a2.456,2.456,0,0,0,.393.785h-1.413Zm-3.062-4.162h1.413c.942,0,1.413-.393,1.413-1.256,0-.785-.471-1.256-1.413-1.256h-1.413Zm12.014,2.042h-3.141l-.707,2.12h-1.256l2.827-7.616h1.57L231,97.531h-1.256Zm-2.748-.942h2.434l-.55-1.727c-.393-1.178-.628-2.042-.628-2.042h-.079a12.462,12.462,0,0,1-.628,1.963l-.55,1.806Zm9.108-4.633v6.6h3.455v1.021H234.14V89.836h1.178Zm7.93,0v7.616h-1.178V89.836Zm8.323,5.575h-3.141l-.707,2.12h-1.256l2.827-7.616h1.57l2.748,7.616h-1.256Zm-2.827-.942h2.434l-.55-1.727C250.237,91.563,250,90.7,250,90.7h-.079a12.462,12.462,0,0,1-.628,1.963l-.55,1.806Z" transform="translate(-120.6 -89.6)"/></g></svg>