<svg xmlns="http://www.w3.org/2000/svg" width="254.969" height="89.238" viewBox="0 0 254.969 89.238"><defs><style>.a{fill:#1e1e1c;}</style></defs><g transform="translate(0 0)"><path class="a" d="M287.93,49.334v1.987h4.119V66.743h2.162V51.321h4.129V49.334Z" transform="translate(-43.371 -26.067)"/><path class="a" d="M272.85,49.334H262.44v1.987h4.129V66.743h2.162V51.321h4.119Z" transform="translate(-42.819 -26.067)"/><rect class="a" width="2.165" height="17.409" transform="translate(214.407 23.267)"/><path class="a" d="M248.514,56.438l-1.244-.485c-1.083-.416-2.418-1.13-2.418-2.494a2.739,2.739,0,0,1,2.9-2.47,2.972,2.972,0,0,1,2.787,1.639l1.727-1.039a4.947,4.947,0,0,0-4.467-2.631c-2.625,0-5.114,1.685-5.114,4.5,0,2.424,1.8,3.557,3.777,4.409l1.2.508c1.5.624,2.993,1.432,2.993,3.3a3.283,3.283,0,1,1-6.564.093l-2.188.463a5.418,5.418,0,0,0,5.367,4.87,5.359,5.359,0,0,0,5.551-5.426c0-2.909-1.843-4.271-4.307-5.24Z" transform="translate(-42.374 -26.059)"/><path class="a" d="M224.174,64.759h-7.161v-6.58h6.956V56.193h-6.956V51.321h7.161V49.334H214.85V66.743h9.324Z" transform="translate(-41.788 -26.067)"/><path class="a" d="M212.216,49.334h-2.368l-5.166,12.885-5.175-12.885H197.13l7.553,18.334Z" transform="translate(-41.404 -26.067)"/><rect class="a" width="2.165" height="17.409" transform="translate(151.304 23.267)"/><path class="a" d="M174.4,53.75l13.032,13.691V49.316h-2.162V62.177L172.23,48.485V66.724H174.4Z" transform="translate(-40.865 -26.049)"/><path class="a" d="M161.589,67.113c3.984,0,6.356-2.932,6.356-6.765V49.334h-2.165V59.611c0,2.838-.852,5.471-4.191,5.471s-4.192-2.632-4.192-5.471V49.334h-2.165V60.348c0,3.833,2.372,6.765,6.357,6.765Z" transform="translate(-40.497 -26.067)"/><path class="a" d="M238.56,54.3a4.825,4.825,0,0,0-2.281-4.158,9.186,9.186,0,0,0-4.583-.808h-2.625V66.743h2.164V59.378h.9l5.112,7.364h2.626l-5.482-7.571A4.737,4.737,0,0,0,238.56,54.3Zm-6.634,3.278h-.69v-6.3h.576c2.141,0,4.722.391,4.722,3.117C236.534,57.162,234.138,57.578,231.926,57.578Z" transform="translate(-42.096 -26.067)"/><path class="a" d="M283.949,51.984a1.4,1.4,0,1,0-1.4-1.407A1.392,1.392,0,0,0,283.949,51.984Z" transform="translate(-43.254 -26.064)"/><path class="a" d="M272.02,66.726h2.325l1.981-4.362h7.968l1.981,4.362H288.6L280.31,48.581l-8.29,18.145Zm5.2-6.349,3.085-7.041,3.087,7.041h-6.172Z" transform="translate(-43.026 -26.051)"/><path class="a" d="M276.969,51.984a1.4,1.4,0,1,0-1.383-1.407A1.4,1.4,0,0,0,276.969,51.984Z" transform="translate(-43.104 -26.064)"/><path class="a" d="M157.392,75.659H155.23V93.068h7.435V91.083h-5.273Z" transform="translate(-40.497 -26.637)"/><path class="a" d="M227.216,86.272h4.491c-.092,2.84-2.992,5.173-5.689,5.173-3.754,0-6.748-3.463-6.748-7.111a6.843,6.843,0,0,1,12.391-4.225l1.521-1.456a9.037,9.037,0,0,0-16.076,5.75,9,9,0,0,0,8.775,9.028,8.075,8.075,0,0,0,8.221-8.451v-.693h-6.887v1.985Z" transform="translate(-41.837 -26.629)"/><rect class="a" width="2.165" height="17.409" transform="translate(170.058 49.022)"/><path class="a" d="M197.393,75.858v1.988h7.553l-8.8,15.422h12.327V91.282h-8.805l8.805-15.424Z" transform="translate(-41.383 -26.642)"/><rect class="a" width="2.166" height="17.409" transform="translate(137.871 49.022)"/><path class="a" d="M165.04,93.068h9.333V91.083h-7.161V84.5h6.946V82.517h-6.946V77.644h7.161V75.659H165.04Z" transform="translate(-40.709 -26.637)"/><path class="a" d="M188.495,75.659h-2.488V93.068h2.164v-7.3h1.244c3.294,0,6.081-1.408,6.081-5.08C195.5,77.506,193.837,75.659,188.495,75.659Zm.369,8.174h-.693V77.6h.578c2.142,0,4.72.323,4.72,3.048,0,2.77-2.4,3.185-4.6,3.185Z" transform="translate(-41.163 -26.637)"/><rect class="a" width="0.51" height="89.238" transform="translate(101.731)"/><path class="a" d="M82.575,25.552A44.619,44.619,0,1,0,127.194,70.17,44.67,44.67,0,0,0,82.575,25.552Zm0,88.723a44.1,44.1,0,1,1,44.1-44.1,44.154,44.154,0,0,1-44.1,44.1Z" transform="translate(-37.957 -25.552)"/><path class="a" d="M72.37,57.65c.009.006.179.077.183.077s.1.044.112.045c.084-.025.117-.1.16-.187,0,0,.235-.4.408-.706a.444.444,0,0,1,.555-.276,4.3,4.3,0,0,1,.42.144.215.215,0,0,1,.027-.051.468.468,0,0,0,.057-.085s.018-.04.023-.045c.017-.046.031-.09.044-.138a.249.249,0,0,1-.041-.094.224.224,0,0,1-.088-.077c-.059-.02-.117-.041-.169-.063a.929.929,0,0,0-1.215.43c-.13.236-.394.573-.473.735-.049.1-.088.22,0,.29Z" transform="translate(-38.701 -26.214)"/><path class="a" d="M72.09,56.562a.29.29,0,0,0,.287-.141c.025-.058-.036-.2-.064-.25a.308.308,0,0,0-.184-.131.342.342,0,0,0-.2,0s-.161.059-.2.128.014.184.069.253a.538.538,0,0,0,.3.139Z" transform="translate(-38.688 -26.212)"/><path class="a" d="M72.014,58.105a.189.189,0,0,0-.231.028.366.366,0,0,0-.057.195c0,.115,0,.321.493.439.187.046.293,0,.354-.154C72.705,58.281,72.258,58.284,72.014,58.105Z" transform="translate(-38.688 -26.256)"/><path class="a" d="M95.088,56.887a.357.357,0,0,0,.333-.216c.024-.074-.072-.236-.111-.3a.364.364,0,0,0-.246-.136.4.4,0,0,0-.25.031s-.191.095-.23.188.042.224.123.3a.667.667,0,0,0,.382.127Z" transform="translate(-39.183 -26.216)"/><path class="a" d="M99.849,68.537a.264.264,0,0,0,.242-.156c.016-.054-.053-.171-.081-.213a.28.28,0,0,0-.178-.1.289.289,0,0,0-.18.023s-.139.068-.167.136.032.162.089.217a.477.477,0,0,0,.275.092Z" transform="translate(-39.289 -26.473)"/><path class="a" d="M92.581,56.255a.375.375,0,0,0-.278-.04.416.416,0,0,0-.224.113.621.621,0,0,0-.15.259c0,.1.118.195.219.24a.669.669,0,0,0,.4-.014.357.357,0,0,0,.238-.316C92.785,56.417,92.64,56.3,92.581,56.255Z" transform="translate(-39.126 -26.216)"/><path class="a" d="M74.089,57.168a.319.319,0,0,0-.2.025s-.156.077-.186.153.033.179.1.242a.518.518,0,0,0,.308.1.288.288,0,0,0,.268-.174c.02-.061-.058-.191-.09-.24A.3.3,0,0,0,74.089,57.168Z" transform="translate(-38.731 -26.237)"/><path class="a" d="M54.727,94.052l-1.6.354-1.315-1.841.86-1.382L52.3,90.65l-3.131,5.166L55.1,94.577Zm-4.433.975L51.5,93.071l1.041,1.458Z" transform="translate(-38.2 -26.962)"/><path class="a" d="M50.516,87.309l-.483.255.68,1.293-4.2,2.212.276.523,4.686-2.469Z" transform="translate(-38.142 -26.89)"/><path class="a" d="M49.882,86.2l-.2-.57-3.608.532,0-.014L49.1,83.293l-4.15-.366,0-.014,3.161-1.819-.2-.57-4.937,2.851,4.835.367-3.57,3.276Z" transform="translate(-38.066 -26.743)"/><path class="a" d="M47.555,78.575l-1.583-.407-.339-2.237,1.392-.844-.1-.646L41.8,77.628l5.854,1.585-.1-.638Zm-4.394-1.14,1.966-1.191.267,1.77-2.233-.579Z" transform="translate(-38.04 -26.611)"/><path class="a" d="M46.746,71.527l.046-.6-3.523-.95,0-.015,3.918-1.408-3.661-1.99v-.014l3.624-.409.046-.6-5.666.649,4.29,2.264-4.581,1.584Z" transform="translate(-38.028 -26.418)"/><path class="a" d="M47.511,64.3l-1.306-.98.541-2.2,1.609-.247.157-.632-5.958.983,4.8,3.7.154-.627ZM45.73,62.954l-1.843-1.388,2.271-.353Z" transform="translate(-38.057 -26.303)"/><path class="a" d="M44.819,56.619l4.426,1.724.213-.551-4.425-1.724.47-1.2-.511-.2-1.149,2.948.511.2Z" transform="translate(-38.085 -26.182)"/><path class="a" d="M52.017,52.565l-.481-.261L50.5,54.195l-1.826-1,1.006-1.838L49.2,51.1l-1,1.837-1.38-.755,1.036-1.892-.481-.264-1.319,2.411L50.7,54.975Z" transform="translate(-38.132 -26.082)"/><path class="a" d="M53.624,50.165,51.739,48.8l.086-.118,2.824.062.423-.587-2.908-.019a1.424,1.424,0,0,0,.2-1.051,1.448,1.448,0,0,0-.608-.881,1.171,1.171,0,0,0-1.3-.209,3.192,3.192,0,0,0-1.021.922l-.448.622,4.3,3.1Zm-2.188-1.819s0,0-.012,0l-.107.149-1.543-1.115.1-.141a2.686,2.686,0,0,1,.674-.676q.361-.241.893.143a.748.748,0,0,1,.392.794,2.345,2.345,0,0,1-.394.834.016.016,0,0,1-.006.009Z" transform="translate(-38.196 -25.992)"/><path class="a" d="M113.953,50.919l.44-.321-.851-1.185,3.845-2.781-.342-.478-4.295,3.1Z" transform="translate(-39.577 -25.998)"/><rect class="a" width="5.297" height="0.591" transform="translate(75.505 26.775) rotate(-29.867)"/><path class="a" d="M117.035,56.571l2.139-.9.165.394c.011.027.021.054.033.078s.022.053.032.079a2.934,2.934,0,0,0,.3.494,1.226,1.226,0,0,0,.445.375,1.285,1.285,0,0,0,.587.15,1.658,1.658,0,0,0,.6-.1l.025-.012.026-.009a1.6,1.6,0,0,0,.566-.4,1.3,1.3,0,0,0,.315-.616,1.37,1.37,0,0,0,0-.578,3.733,3.733,0,0,0-.171-.561c-.012-.032-.025-.06-.038-.09s-.022-.064-.032-.094l-.337-.8-4.886,2.046.229.544Zm4.381-1.837.084.2a.111.111,0,0,1,0,.01s0,0,0,.01a2.91,2.91,0,0,1,.228.921c.021.3-.166.53-.561.7a.79.79,0,0,1-.844-.034,1.721,1.721,0,0,1-.5-.711l-.152-.365Z" transform="translate(-39.665 -26.168)"/><path class="a" d="M121.764,60.3a3.313,3.313,0,0,0-.273.906l-.062.35c0,.011,0,.019,0,.026a.249.249,0,0,1,0,.029,3.435,3.435,0,0,1-.2.715.767.767,0,0,1-.567.44.946.946,0,0,1-.8-.133,1.114,1.114,0,0,1-.473-.661.972.972,0,0,1,.1-.766,1.189,1.189,0,0,1,.593-.509l-.308-.517a1.691,1.691,0,0,0-.816.8,1.626,1.626,0,0,0-.089,1.14,1.642,1.642,0,0,0,.748,1.021,1.544,1.544,0,0,0,1.249.181,1.171,1.171,0,0,0,.823-.6,3.762,3.762,0,0,0,.306-1.006l.054-.378c.005-.034.012-.072.018-.112s.014-.08.022-.122a1.9,1.9,0,0,1,.171-.477.571.571,0,0,1,.383-.3.756.756,0,0,1,.641.106.913.913,0,0,1,.374.538.924.924,0,0,1-.008.57,1.317,1.317,0,0,1-.313.457l.407.378a1.545,1.545,0,0,0,.442-.7,1.526,1.526,0,0,0,.006-.829,1.582,1.582,0,0,0-.613-.911,1.207,1.207,0,0,0-1.065-.185,1.058,1.058,0,0,0-.742.549Z" transform="translate(-39.708 -26.292)"/><path class="a" d="M123.85,62.438l-.01,0v0Z" transform="translate(-39.817 -26.351)"/><rect class="a" width="5.297" height="0.59" transform="matrix(0.992, -0.129, 0.129, 0.992, 80.06, 39.946)"/><path class="a" d="M120.15,72.543l.548,0-.02-2.158,2.084-.014.01,2.094.548,0-.01-2.095,1.575-.01.01,2.156.548,0-.02-2.746-5.293.036Z" transform="translate(-39.737 -26.509)"/><path class="a" d="M119.936,75.749l-.108.58,4.021.745-5.009,3.271,5.44,1.015.108-.58-4.031-.75,5.009-3.271Z" transform="translate(-39.709 -26.639)"/><path class="a" d="M122.031,84.475a1.055,1.055,0,0,0-.924.017,3.31,3.31,0,0,0-.748.581l-.253.249a.156.156,0,0,0-.018.018l-.019.02a3.376,3.376,0,0,1-.576.467.765.765,0,0,1-.718.032.938.938,0,0,1-.575-.571,1.107,1.107,0,0,1,0-.812.974.974,0,0,1,.523-.569,1.191,1.191,0,0,1,.779-.072l.048-.6a1.717,1.717,0,0,0-1.128.179,1.621,1.621,0,0,0-.733.881,1.638,1.638,0,0,0,.018,1.266,1.547,1.547,0,0,0,.914.87,1.169,1.169,0,0,0,1.02-.014,3.819,3.819,0,0,0,.831-.643l.262-.275c.024-.027.051-.054.08-.083s.059-.058.09-.088a2.028,2.028,0,0,1,.414-.289.578.578,0,0,1,.486-.021.751.751,0,0,1,.461.458.995.995,0,0,1-.342,1.115,1.36,1.36,0,0,1-.52.193l.114.542a1.507,1.507,0,0,0,1.25-.987,1.6,1.6,0,0,0,.027-1.1,1.208,1.208,0,0,0-.761-.767Z" transform="translate(-39.681 -26.801)"/><path class="a" d="M121.6,87.422v0Z" transform="translate(-39.769 -26.892)"/><rect class="a" width="0.591" height="5.298" transform="matrix(0.46, -0.888, 0.888, 0.46, 76.276, 61.535)"/><path class="a" d="M116.99,95.6v0h-.01Z" transform="translate(-39.668 -27.069)"/><path class="a" d="M118.061,92.838a1.057,1.057,0,0,0-.9-.194,3.339,3.339,0,0,0-.858.4l-.3.185a.193.193,0,0,0-.023.015c-.006,0-.013.01-.022.014a3.523,3.523,0,0,1-.667.325.763.763,0,0,1-.707-.132.946.946,0,0,1-.432-.687,1.119,1.119,0,0,1,.181-.794.968.968,0,0,1,.639-.432,1.179,1.179,0,0,1,.776.105l.181-.572a1.7,1.7,0,0,0-1.139-.08,1.735,1.735,0,0,0-1.182,1.928,1.547,1.547,0,0,0,.693,1.053,1.169,1.169,0,0,0,1,.218,3.767,3.767,0,0,0,.954-.438l.318-.21.1-.061q.052-.034.106-.063a1.828,1.828,0,0,1,.469-.189.568.568,0,0,1,.479.089.747.747,0,0,1,.345.551.909.909,0,0,1-.152.636.924.924,0,0,1-.432.371,1.288,1.288,0,0,1-.55.07l-.011.555a1.523,1.523,0,0,0,.815-.134,1.5,1.5,0,0,0,.624-.545,1.582,1.582,0,0,0,.276-1.064,1.206,1.206,0,0,0-.568-.918Z" transform="translate(-39.595 -26.968)"/><path class="a" d="M55.5,43.883a.43.43,0,1,0-.43-.43A.429.429,0,0,0,55.5,43.883Z" transform="translate(-38.328 -25.93)"/><path class="a" d="M111.3,43.027a.43.43,0,1,0,.429.43A.431.431,0,0,0,111.3,43.027Z" transform="translate(-39.536 -25.93)"/><path class="a" d="M55.637,98.523a.43.43,0,1,0,.43.43A.429.429,0,0,0,55.637,98.523Z" transform="translate(-38.331 -27.132)"/><path class="a" d="M111.73,98.37a.43.43,0,1,0,.431.431A.43.43,0,0,0,111.73,98.37Z" transform="translate(-39.545 -27.129)"/></g><path d="M82.621,27.329a42.861,42.861,0,0,0-23.366,78.805l.222.141A42.869,42.869,0,1,0,82.621,27.329Zm.046,2.623h.955v-.516h-.955v-1.3c2.638.063,4.986,1.231,5.921,2.93H82.667V29.952Zm7,1.635v.861H75.185v-.861H89.671Zm13.969,17.232V43.082A34.655,34.655,0,0,1,117.213,70.5a34.146,34.146,0,0,1-.286,4.38H113.37s-.022-3.718-.031-6.386l1.967,1.83.382-.41-2.373-2.2c0-1.105,0-3.5,0-3.5a.34.34,0,1,0,0-.256V63.06a.339.339,0,1,0,0-.256v-.891a.34.34,0,1,0,0-.256v-.383h-.125a.334.334,0,0,0,.185-.3.34.34,0,1,0-.68,0,.334.334,0,0,0,.184.3h-.125v.35a.337.337,0,0,0-.293-.179.34.34,0,1,0,0,.68.335.335,0,0,0,.293-.179v.825a.336.336,0,0,0-.293-.178.34.34,0,1,0,.293.5v.824a.337.337,0,0,0-.293-.179.34.34,0,1,0,0,.68.332.332,0,0,0,.293-.18v3.319l-2.951.009c0-.071-.036-10.989-.036-10.989a.34.34,0,1,0,0-.257v-.89a.34.34,0,1,0,0-.257v-.89a.34.34,0,1,0,0-.258v-.382h-.125a.333.333,0,0,0,.184-.3.34.34,0,0,0-.68,0,.333.333,0,0,0,.184.3H109.2v.348a.34.34,0,1,0,0,.325v.824a.335.335,0,0,0-.293-.178.34.34,0,1,0,0,.68.333.333,0,0,0,.293-.18v.825a.337.337,0,0,0-.634.161.342.342,0,0,0,.341.341.336.336,0,0,0,.293-.179V62.7c-1.054-4.8-3.725-8.4-5.561-9.69V49.336h1.439v-.517H103.64Zm-.53,48.792a.652.652,0,0,1-.1.1.751.751,0,0,1-.248.195,2.831,2.831,0,0,1-1.332.435c-.363.049-.8-.312-1.027-.546a2.906,2.906,0,0,0,.375-1.875c-.017-.133-.43-3.263-.747-4.743a14.751,14.751,0,0,1,.6-5.894c.1-.4.2-.871.279-1.391a34.791,34.791,0,0,0,.381-6.164,14.231,14.231,0,0,0-1.151-4.092c.073-.018.145-.037.216-.058,2.7,3.219,2.74,5.482,2.756,6.709l.013,17.325s0,0-.007,0Zm.007.678v5.434l-1.267,0-.023-4.916A2.868,2.868,0,0,0,103.116,98.288Zm-7.515,4s-.032-.77-.083-1.123a4.679,4.679,0,0,0-.326-1.182,1.106,1.106,0,0,0,.3-.179,2.282,2.282,0,0,0,.549-.7.87.87,0,0,1,.479-.492,3.406,3.406,0,0,1,1.091.022l.085.011a11.866,11.866,0,0,0-.982,3.106,1.891,1.891,0,0,0,.107.533h0a.005.005,0,0,1,0,0c.053.128.351.747.461.933a10.15,10.15,0,0,1,.613,1.178.679.679,0,0,1,.016.608,1.5,1.5,0,0,1-.913.558,2.907,2.907,0,0,1-1.29-.1c-.124-.095-.1-.725-.084-1.029.01-.241-.026-2.016-.021-2.148ZM77.955,108.1l1.23-1.829h.269V108.1Zm1.5.481v.864c-.62-.053-1.167-.077-1.578-.087a7.833,7.833,0,0,0-2.515.271v-3.357h3.2l-1.545,2.3,2.438,0Zm-14.323-2.825,0-2.033-1.539,0v-1.039h2.5l0,.014.017-.014h2.36a4.085,4.085,0,0,0-.527.956c-.113.372-.079.9.722,1.333a1.231,1.231,0,0,0,.583.124,2.257,2.257,0,0,0,1.622-.638,3.43,3.43,0,0,0,.145-1.741h1.037a.935.935,0,0,0,.535.573l.061.023a1.637,1.637,0,0,0,.6.149c.311,0,.628-.163,1.133-.619a2.009,2.009,0,0,0,.625.771,2.705,2.705,0,0,1,.516.534c.333.406.709.867,1.2.867.1,0,.217,0,.345.01.168.007.351.015.534.015.663,0,1.342-.092,1.469-.625.21-.879-.706-1.261-1.253-1.49a2.929,2.929,0,0,1-.39-.182c-.006,0-.018-.018-.027-.025H87.558a2.469,2.469,0,0,1-.523.4,2.04,2.04,0,0,0-1.163,1.76c.046.332.108.659.153.881H65.131ZM63.068,89.433V103.72h-1.3V53.593a10.753,10.753,0,0,0,2.922.921,6.841,6.841,0,0,0-.039.718,6.674,6.674,0,0,0,1.41,4.124,10.777,10.777,0,0,0-2.94,2.833c-.609.815-.677,4.014-.678,4.045a13.7,13.7,0,0,0,.49,3.275,4.644,4.644,0,0,1,.054,1.92c-.026.217-.051.415-.054.588a9.307,9.307,0,0,1-.242,1.311,7.706,7.706,0,0,0-.248,1.454,3.379,3.379,0,0,0,.621,1.733V86.7l-.576.208.576,2.522Zm-1.3-51.116v-.633l5.7-3.116v8.2a12.992,12.992,0,0,0-2.588-2.447V38.274h-.535v2.077a29.394,29.394,0,0,0-2.572,2.058V38.832h1.232v-.516Zm2.859,2.425c.832.612,2.786,2.24,2.837,3.313v4.763h-5.7v-5.74A28.2,28.2,0,0,1,64.633,40.741Zm3.5,8.593a6.76,6.76,0,0,0-2.156,1.909,15.414,15.414,0,0,1-4.189-1.286l-.01.016v-.639Zm7.789-11.018V32.963H88.971v5.353h-1.1v.516h1.1v9.985h-.8c-.383-2.872-4.822-9.739-5.459-10.714V35.5h-.6v2.621c-.677,1.019-4.97,7.581-5.34,10.7h-.85V38.832h1.1v-.516h-1.1ZM90.2,49.334a6.8,6.8,0,0,0-2.761,2.9,15.835,15.835,0,0,1-4.508-1.243,1.55,1.55,0,0,0,.373-.3,1.12,1.12,0,0,0,.093-1.359Zm-.623-.517v-5.31c0-.784,2.617-2.606,3.078-2.936.78.574,2.6,2.121,2.76,3.166v5.026a6.7,6.7,0,0,0-4.037.054h-1.8Zm-.289,9.367a2.058,2.058,0,0,1-.407-1.042,1.655,1.655,0,0,1,.328-.881,1.522,1.522,0,0,0,.323-1c-.055-.651.131-2.2,1.049-2.577a1.306,1.306,0,0,1,1.509.117,1.929,1.929,0,0,0-.952.355,2.365,2.365,0,0,0-.938,1.5,17.612,17.612,0,0,0-.175,2.342,4.472,4.472,0,0,0,.4,1.48l0,0a1.571,1.571,0,0,1,.185.621,16.579,16.579,0,0,1,.068,1.661,5.446,5.446,0,0,1-1.316.226c-.192.006-.4,0-.5-.009a1.563,1.563,0,0,1-.188-.021c-.434-.082-.786-.176-1.027-.247-.083-.289-.141-.724.032-.8a1.01,1.01,0,0,1,.513.023,1.15,1.15,0,0,0,1.353-.4C89.832,59.1,89.553,58.633,89.284,58.184ZM97.6,59.29a1.5,1.5,0,0,0,.458.068,2.24,2.24,0,0,0,.492-.059,5.6,5.6,0,0,1,1.142,1.981,5.813,5.813,0,0,1-1.014-.6,4.023,4.023,0,0,0-1.95-.648,4.094,4.094,0,0,0-1.261.275c0-.036.006-.079,0-.111a5.671,5.671,0,0,0-.126-.72.787.787,0,0,0-.055-.22l-.023-.083-.006,0a1.54,1.54,0,0,1-.038-.852,10.623,10.623,0,0,0,.057-2.969,3.215,3.215,0,0,0-1.107-2.14,2.928,2.928,0,0,0-.809-.33,1.778,1.778,0,0,1,1.393-.409,1.356,1.356,0,0,1,.926.59,2.809,2.809,0,0,1,.581,2.062l-.033.175c-.2.991-.657,3.313,1.371,3.993Zm2.6-4.711a9.878,9.878,0,0,0,2.923-.966v13.35c-.05-.086-.095-.168-.148-.255l-.073-.123a2.939,2.939,0,0,0-.308-.376,8.224,8.224,0,0,1-2.227-4.26,5.706,5.706,0,0,0-1.333-2.875,6.691,6.691,0,0,0,1.2-3.842,6.542,6.542,0,0,0-.033-.654Zm-.08-.553a6.717,6.717,0,0,0-.84-2.235,16.842,16.842,0,0,0,3.843-1.149v2.332A9.032,9.032,0,0,1,100.119,54.025ZM84.857,77.644a8.852,8.852,0,0,1-.745-1.665c-.52-1.628,2.137-2.97,3.271-3.546.147-.073.274-.138.424-.22a4.8,4.8,0,0,1,3.418-.8c.183.041.431.1.714.14a10.874,10.874,0,0,1-1.215,2.742,16.492,16.492,0,0,1-2.519,2.84,5.68,5.68,0,0,0-1.693,2.6A7.928,7.928,0,0,1,85.26,82.5c.062-.651.128-1.342.209-2.076A3.94,3.94,0,0,0,84.857,77.644Zm-.175,12.363a18.588,18.588,0,0,0,1.477,1.675,11.41,11.41,0,0,0-1.133,3.375,3.988,3.988,0,0,0,.232,3.12,2.191,2.191,0,0,0,1.65.8,5.067,5.067,0,0,0,1.5-.131,5.486,5.486,0,0,1,.3,1.424c0,.149.009.284.016.41a1.228,1.228,0,0,1-.314,1.1l-.19.218-.177.2H80.326a3.607,3.607,0,0,1-.747,0c-.054,0-.5-.038-.682-.026a.429.429,0,0,1-.055.023l0,0H77.2c-.008-.136-.02-.323-.034-.542A13.182,13.182,0,0,0,80,101.034a1.373,1.373,0,0,0,.844-.823,2.354,2.354,0,0,0-.492-1.812,1.726,1.726,0,0,1-.126-.217l-.015,0-.01-.019a8.1,8.1,0,0,1-.418-.85,12.212,12.212,0,0,1,.143-4.827A4.779,4.779,0,0,1,81,90.417a5.805,5.805,0,0,0,.837-1.3,5.659,5.659,0,0,0,.018-3.172l-.065-.382a5.688,5.688,0,0,1-.067-2.72,1.838,1.838,0,0,1,.129-.28,4.5,4.5,0,0,0,.24-3.614,3.936,3.936,0,0,1,.026-1.806,4.011,4.011,0,0,0-.054-2.179,4.924,4.924,0,0,1,.32-2.6,7.613,7.613,0,0,0,1.664,1.807,2.078,2.078,0,0,0-.425,1.97,9.117,9.117,0,0,0,.784,1.755,3.444,3.444,0,0,1,.552,2.473c-.085.759-.153,1.472-.216,2.144-.109,1.165-.2,2.168-.355,3.07-.2,1.218-.372,3.524.3,4.43Zm14.93-23.625c-.442-.455-1.408-.205-1.907.016-.457.2-1.3.72-1.231,1.243.042.3.349.4.6.481a1.587,1.587,0,0,1,.3.113.873.873,0,0,1-.169.7,3.845,3.845,0,0,0-.324.384,2.34,2.34,0,1,1,3.2-.435,1.135,1.135,0,0,1-.36.013.326.326,0,0,1-.181-.109c-.054-.11.057-.392.154-.636A1.547,1.547,0,0,0,99.611,66.383Zm-2.818,4.139a3.573,3.573,0,0,1,.761-1.212,1.367,1.367,0,0,0,.317-1.175c-.063-.315-.385-.418-.643-.5-.086-.029-.232-.073-.243-.05a1.87,1.87,0,0,1,.926-.71c.545-.242,1.166-.3,1.33-.131.294.3.176.682-.038,1.225a1.335,1.335,0,0,0-.137,1.051.753.753,0,0,0,.5.376,1.579,1.579,0,0,0,.618,0,1.541,1.541,0,0,1,1.643.575c.142.169.014.65-.089,1.032-.132.492-.258.959-.026,1.264a1.187,1.187,0,0,0,.135.139c-.115.063-.272.143-.464.232-.387-.468-.438-.648-.833-.83-.083-.04-.088-.2-.086-.4s0-.466-.243-.552-.664-.012-1.245.824c-.185.268-.559.287-.933.293.025-.066.056-.139.079-.191.123-.284.238-.551.046-.729s-.45-.036-.562.022a3.98,3.98,0,0,1-.96.3c.069-.3.114-.606.149-.858Zm.831,1.11c-.115.267-.209.516-.081.706a.352.352,0,0,0,.307.156h.01l.122,0a1.6,1.6,0,0,0,1.415-.515,2.1,2.1,0,0,1,.549-.591V71.4a.837.837,0,0,0,.386.867,2.342,2.342,0,0,1,.6.558,6.5,6.5,0,0,1-2.3.5,8.451,8.451,0,0,1-2.835-.5,2.626,2.626,0,0,0,.229-.177,1.78,1.78,0,0,0,.456-.712,5.914,5.914,0,0,0,1.143-.3Zm1.2,2.2a5.909,5.909,0,0,0,.789-.086,14.229,14.229,0,0,1,1.15,4,34.258,34.258,0,0,1-.375,6.059c-.01.061-.019.118-.029.18-2.967-.7-4.573.786-6.274,2.358a10.3,10.3,0,0,1-4.152,2.717,6.632,6.632,0,0,0-3.051,1.652,4.427,4.427,0,0,1,1.977-2.347,4.7,4.7,0,0,0,1.466-1.762,7.214,7.214,0,0,1,.889-1.283,27.964,27.964,0,0,1,2.109-2.061l.239-.208a12.065,12.065,0,0,0,2.126-2.281,19.7,19.7,0,0,0,2.643-5.141,16.282,16.282,0,0,0,.5-1.8Zm.695,17.45c.311,1.46.735,4.67.74,4.709a2.345,2.345,0,0,1-.332,1.578,1.591,1.591,0,0,1-1.136.589,3.956,3.956,0,0,1-1.117-.035,3.917,3.917,0,0,0-1.291-.007,1.377,1.377,0,0,0-.8.736,1.813,1.813,0,0,1-.432.558.61.61,0,0,1-.075.042c.106-.8.388-2.891.466-3.544a11.309,11.309,0,0,0-1.254-6.679,3.713,3.713,0,0,1,.089-2.453l.056-.052c1.668-1.543,3.116-2.882,5.83-2.23-.047.234-.1.456-.148.659a15.737,15.737,0,0,0-.6,6.128Zm1.716,7.559.017,3.444H97.363a1.511,1.511,0,0,1-.138-.551,12.834,12.834,0,0,1,1.006-3.04,3.916,3.916,0,0,0,.626-.024,2.225,2.225,0,0,0,1.2-.487,2.153,2.153,0,0,0,1.183.658Zm-12,1.808c-.008-.116-.015-.242-.015-.378a5.734,5.734,0,0,0-.3-1.515,9.009,9.009,0,0,1,1.239-.155,4.4,4.4,0,0,1,1.107.115c-.064.087-.133.183-.213.3a2.8,2.8,0,0,0-.461,2.642c.023.043.054.1.092.165a2.279,2.279,0,0,1,.4,1.264c-.046.391-.9.7-1.34.782a4.868,4.868,0,0,0-1.5.651c-.488.29-1.291.781-1.731,1.051-.041-.21-.091-.485-.128-.76-.057-.412.421-.974.9-1.238a3.8,3.8,0,0,0,.994-.852h.031v-.033c.1-.111.2-.225.3-.348l.188-.215a1.723,1.723,0,0,0,.441-1.47Zm1.816.773a2.339,2.339,0,0,1,.418-2.111c.15-.21.255-.35.328-.446a7.483,7.483,0,0,1,1.18.546l.142.075a3.922,3.922,0,0,0,1.543.579,4.157,4.157,0,0,1,.343,1.174,10.167,10.167,0,0,1,.094,1.054H91.516a6.077,6.077,0,0,0-.382-.727c-.032-.058-.061-.106-.079-.143Zm1.6-10.627a4.567,4.567,0,0,1,.107-2.629c.319-.242.624-.5.918-.756a3.29,3.29,0,0,0,.154,2.062,10.8,10.8,0,0,1,1.2,6.376c-.085.7-.4,3.051-.488,3.687a4.213,4.213,0,0,1-1.179-.5l-.143-.079a9.581,9.581,0,0,0-1.032-.5,10.409,10.409,0,0,0,.689-1.737,14.186,14.186,0,0,0-.225-5.927ZM90.079,89.56a7.677,7.677,0,0,0,2.031-.933,4.685,4.685,0,0,0,.058,2.325,13.871,13.871,0,0,1,.215,5.66,9.85,9.85,0,0,1-.637,1.594.306.306,0,0,0-.106.063,4.826,4.826,0,0,0-1.31-.184c-.062,0-.125,0-.188,0a11.185,11.185,0,0,0-1.677.226,5.306,5.306,0,0,1-1.494.152,1.7,1.7,0,0,1-1.293-.588,3.605,3.605,0,0,1-.147-2.715c.68-3.224,1.464-4.714,4.548-5.6ZM71.949,102.2H70.912c0-.016-.047-.178-.071-.292l.245-.809a6.5,6.5,0,0,0,.956.184c-.055.357-.091.584-.093.594a2.249,2.249,0,0,0,0,.323Zm-7.079-7.491,1.413-.745.969,7-.8.741Zm1.119,7.527H63.6V91.744ZM64.575,80.685a.89.89,0,0,1,.079.26,2.28,2.28,0,0,1-.364.731,2.16,2.16,0,0,0-.427.96,3.272,3.272,0,0,0,.164,1.382l.268.769.4.117c.044-.034.152-.122.3-.24l.178,1.276-1.574.57V76.864l.014-.014a2.865,2.865,0,0,0,.544.419,2.051,2.051,0,0,1,.367.27c.236.257.167.627.032,1.21a2.874,2.874,0,0,0,.022,1.937Zm.172,2.209.164,1.181-.252.2-.151-.436a2.748,2.748,0,0,1-.138-1.152,1.715,1.715,0,0,1,.345-.732,2.4,2.4,0,0,0,.482-1.143h-.02c.36-.408.97-.2,1.205-.094a1.613,1.613,0,0,1,.438,1.418c.008.013.019.019.026.032.014.029.031.051.045.077a15,15,0,0,1-1.472,1.4l-.116-.833-.556.077Zm2.417-.183c.021.035.044.07.063.105-.012.328-.041.715-.072,1.146-.03.395-.062.826-.088,1.29l-1.359.492-.208-1.5A18.671,18.671,0,0,0,67.165,82.711ZM67.04,85.86a25.968,25.968,0,0,0,.171,4.345,23.16,23.16,0,0,0,.414,2.445l-.894.457-.943-6.795Zm1.137,13.932.1.449-.5.4L66.812,93.7l.961-.491q.048.161.09.287a2.248,2.248,0,0,1,.151.862c0,.683-.02,1.029-.05,1.554-.016.281-.034.608-.054,1.06A10.458,10.458,0,0,0,68.177,99.792Zm2.236,1.773a.75.75,0,0,0-.148-.046,1.416,1.416,0,0,0-1.026.244.193.193,0,0,1-.045.035l-.369-1.674a1.956,1.956,0,0,0,.185.123,9.67,9.67,0,0,0,1.588.705l-.185.612Zm-2-.716.307,1.388H66.672Zm1.5,1.207a1.05,1.05,0,0,1,.226-.025c.1,0,.245.206.271.28a3.7,3.7,0,0,1,.025,1.876,1.872,1.872,0,0,1-1.525.331c-.525-.28-.533-.525-.472-.73C68.565,103.366,69.344,102.186,69.912,102.056Zm2.206-1.274a8.1,8.1,0,0,1-2.857-.979,1.727,1.727,0,0,1-.656-.736,9.7,9.7,0,0,1-.134-2.079c.019-.448.038-.773.054-1.05.029-.516.051-.889.051-1.586a2.789,2.789,0,0,0-.179-1.035,15.569,15.569,0,0,1-.629-3.184A29.212,29.212,0,0,1,67.714,84c.016-.217.031-.416.043-.61.008.022.017.036.025.058l-.005,0c.007.011.015.03.021.042a1.82,1.82,0,0,0-.006-.289,5.043,5.043,0,0,1,.995,1.345,7.99,7.99,0,0,1,.45,1.147,3.694,3.694,0,0,0,.628,1.284,20.8,20.8,0,0,0,2.343,2.267,8.659,8.659,0,0,0-.035,2.3c.077.61.152,1.121.22,1.577a14.036,14.036,0,0,1,.193,3.881C72.472,98.282,72.265,99.785,72.118,100.783ZM68.549,77.768c-.094-.437-.132-.8-.186-1.1a5.627,5.627,0,0,1-.116-2.192,2.686,2.686,0,0,0-.52-2.041c-.086-.14-.174-.279-.253-.431a3.22,3.22,0,0,1-.433-2.344c.21-.725.635-2.536.037-3.645a5.17,5.17,0,0,0-1.812-2.153,7.8,7.8,0,0,0-2.04-.4,2.754,2.754,0,0,1,.319-.984c.107-.158.22-.3.333-.448.415.4,2.3,1.921,6.774,1.947h.093c.213,0,.418-.007.621-.014a10.071,10.071,0,0,1,.649,2.943,1.266,1.266,0,0,1-.192.517,1.6,1.6,0,0,0-.1,1.424c.12.5.235.866.332,1.174a3.656,3.656,0,0,1,.238,1.168,2.786,2.786,0,0,1-.235.885,2.666,2.666,0,0,0-.239,1.658,8.79,8.79,0,0,0,.3.871,4.659,4.659,0,0,1,.335,1.15,1.214,1.214,0,0,1-.067.74,2.162,2.162,0,0,0-.153.843,3.91,3.91,0,0,0,1,1.97c.136.178.267.351.352.484.033.033.98,2.183,1.184,2.63l0,0s.009.014.021.036.01.02.014.029c-.27.625-.917,2.094-1.33,2.873a12.592,12.592,0,0,0-1.169,3.291,18.713,18.713,0,0,1-2.036-1.987,3.229,3.229,0,0,1-.549-1.133,8.516,8.516,0,0,0-.477-1.215,5.858,5.858,0,0,0-1.551-1.894.58.58,0,0,0-.083-.212c.067-.127.133-.255.194-.375a6,6,0,0,0,.743-4.081Zm7.075-20.676a1.272,1.272,0,0,1-.25,1.192c-.378.387-1.1.206-1.478.094.117-.127.207-.232.253-.285.139-.176,1.346-1.735.958-2.811a.857.857,0,0,0-.757-.555,1,1,0,0,1-.41-.148.6.6,0,0,1-.185-.314.985.985,0,0,0-.59-.679,1.033,1.033,0,0,0-.4-.046A2,2,0,0,1,72,53.425a1.673,1.673,0,0,0-1.75.633.751.751,0,0,0-.173.346,2.018,2.018,0,0,1-.285.606,2.871,2.871,0,0,1-.928.93l-.165-.1c-.23-.142-.656-.406-.649-.533,0-.087.064-.137.272-.26a1.242,1.242,0,0,0,.551-.526,2.8,2.8,0,0,0,.135-.409,1.833,1.833,0,0,1,.386-.846,2.386,2.386,0,0,1,.849-.139,2.564,2.564,0,0,0,.888-.146,2.216,2.216,0,0,0,.385-.262.862.862,0,0,1,.528-.26c.309-.022.425.141.559.34a.649.649,0,0,0,.439.345,1.063,1.063,0,0,0,.522-.123c.231-.1.391-.154.52-.091s.277.407.375.654a1.606,1.606,0,0,0,.357.63,1.077,1.077,0,0,1,.154.161,1.36,1.36,0,0,0,.65.462.386.386,0,0,1,.226.261,1.411,1.411,0,0,1-.131,1.028,1.471,1.471,0,0,0-.092.971Zm-5.391-1.815a2.514,2.514,0,0,0,.343-.747.263.263,0,0,1,.074-.147c.005-.008.558-.685,1.182-.47a2.432,2.432,0,0,0,.944.142.644.644,0,0,1,.2.013c.176.067.219.167.293.371a1.073,1.073,0,0,0,.364.558,1.5,1.5,0,0,0,.614.235c.239.049.319.069.374.223.246.688-.549,1.907-.87,2.31a5.89,5.89,0,0,1-1.494,1.34,1.57,1.57,0,0,1-1.157-.14c-.171-.107-.749-.563-1.12-.86,0-.02.013-.037.018-.06a1.585,1.585,0,0,0-.579-1.677s-.095-.084-.114-.1a3.381,3.381,0,0,0,.927-.988Zm.592,4.124a2.034,2.034,0,0,0,1.043.27,1.981,1.981,0,0,0,.538-.073,1.259,1.259,0,0,0,.317-.16l1.8.981a1.947,1.947,0,0,0-.775.535l-.118.145A2.348,2.348,0,0,1,72.1,62.184a1.333,1.333,0,0,1-.911-.348,2.837,2.837,0,0,0-1.269-.571,8.2,8.2,0,0,0-1.081-.092A1.951,1.951,0,0,1,67.929,61a3.438,3.438,0,0,1-.993-1l-.21-.468.138-.092c.975-.554,2.177-.363,2.9-.858.347.276.882.7,1.065.814ZM67.7,61.46a2.388,2.388,0,0,0,1.127.227,7.552,7.552,0,0,1,1.02.088,2.422,2.422,0,0,1,1.055.482,1.869,1.869,0,0,0,1.116.445,1.224,1.224,0,0,0,.13-.008,2.772,2.772,0,0,0,1.886-1.272l.114-.14a1.923,1.923,0,0,1,1.095-.526l.066-.009.012-.008a5.454,5.454,0,0,0,.942,1.418c-.193.142-1.9,1.314-5.518,1.314h-.089c-4.4-.021-6.185-1.574-6.446-1.828a11.157,11.157,0,0,1,2.083-1.821l.192.426A3.882,3.882,0,0,0,67.7,61.46ZM81.591,79.069a7.681,7.681,0,0,1,.16.845,3.407,3.407,0,0,0-1.732,2.361,19.794,19.794,0,0,0-.374,2.046,4.322,4.322,0,0,1-.189.944A25.817,25.817,0,0,1,76.317,89.2c-.054-.165-.1-.313-.124-.44-.09-.408.213-.844.53-1.305a3.082,3.082,0,0,0,.69-1.519,1.52,1.52,0,0,0-.2-.917,4.337,4.337,0,0,1-.327-2.451,23.23,23.23,0,0,1,.618-4.734A22.521,22.521,0,0,1,79.539,76a1.583,1.583,0,0,0,.711.186,1.175,1.175,0,0,0,.143-.009,2.679,2.679,0,0,0,1.268-.724,3.847,3.847,0,0,1-.052,1.6A4.437,4.437,0,0,0,81.591,79.069Zm-.31,6.577.064.379a5.267,5.267,0,0,1,.018,2.882,5.434,5.434,0,0,1-.771,1.192,5.256,5.256,0,0,0-1.17,2.275A12.413,12.413,0,0,0,79.3,97.5a8.546,8.546,0,0,0,.447.912c.008.015.016.031.024.045h.022c.032.06.072.127.124.213.218.353.582.947.441,1.389a.89.89,0,0,1-.557.509,12.656,12.656,0,0,1-2.672.585,24.959,24.959,0,0,0-.438-3.544,9.653,9.653,0,0,1,.375-4.268,6.8,6.8,0,0,0-.567-3.6,25.034,25.034,0,0,0,3.435-4.291,4.568,4.568,0,0,0,.22-1.061,18.932,18.932,0,0,1,.365-2,2.976,2.976,0,0,1,1.28-1.917,3.334,3.334,0,0,1-.406,1.844,2.461,2.461,0,0,0-.165.367A6.153,6.153,0,0,0,81.281,85.646Zm.236-10.771a2.8,2.8,0,0,1-1.183.785c-.763.085-1.614-.99-1.985-1.569a20.759,20.759,0,0,1,1.642-1.807.605.605,0,0,1,.534-.142c.477.11.917.789,1.07,1.082a4.877,4.877,0,0,0-.077,1.651ZM77.809,74.2a6.614,6.614,0,0,0,.493.705l-.754.192-1.9-7.673,1.384-.338,1.48,6.018c-.334.385-.618.727-.68.8l-.115.137Zm1.866-2.321a7.724,7.724,0,0,0-.746.755l-1.394-5.669,1.852-.452,1.2,5.122A1.139,1.139,0,0,0,79.675,71.879Zm-4.648-4.832,2.145,8.677,1.513-.384a4.053,4.053,0,0,0,.4.358,17.4,17.4,0,0,0-2.141,2.013,6.968,6.968,0,0,0-1.107,2.532,6.494,6.494,0,0,1-.757,1.724c-.384-.839-1.258-2.735-1.428-2.963a3.723,3.723,0,0,1-.9-1.658,1.647,1.647,0,0,1,.12-.663,1.709,1.709,0,0,0,.094-1,5.216,5.216,0,0,0-.364-1.263,7.985,7.985,0,0,1-.288-.823,2.247,2.247,0,0,1,.227-1.336,3.2,3.2,0,0,0,.268-1.066,2.8,2.8,0,0,0-.052-.53h0a2.7,2.7,0,0,1,.487-1.082,2.583,2.583,0,0,0,.337-1.1,3.929,3.929,0,0,1,1.083-2.311,11.306,11.306,0,0,1,2.264-2.26c.421.589,1.286,1.713,1.7,2.253l-3.6.882Zm-.763-1.2a4.437,4.437,0,0,0-1.194,2.57,2.082,2.082,0,0,1-.266.9c-.117.192-.2.354-.278.5-.09-.289-.195-.629-.3-1.084-.166-.69-.083-.831.042-1.043a1.765,1.765,0,0,0,.257-.7,9.628,9.628,0,0,0-.625-3.048,9.543,9.543,0,0,0,4.563-1.3c.006.042.012.082.018.124a2.594,2.594,0,0,0,.176.708A11.535,11.535,0,0,0,74.264,65.848Zm-1.81,36.1c0-.029.45-2.775.64-4.895a14.664,14.664,0,0,0-.2-4c-.067-.455-.142-.965-.219-1.569a10.87,10.87,0,0,1,1.247-5.872c.456-.859,1.164-2.482,1.4-3.025h0c0-.009,0-.016,0-.022.038-.09.064-.149.069-.161l0,0a7.828,7.828,0,0,0,.879-2.029,11.052,11.052,0,0,1,.484-1.319,21.548,21.548,0,0,0-.388,3.5,4.77,4.77,0,0,0,.382,2.7,1.027,1.027,0,0,1,.143.654,2.729,2.729,0,0,1-.6,1.254,2.256,2.256,0,0,0-.611,1.708,10.2,10.2,0,0,0,.323,1.036A6.5,6.5,0,0,1,76.57,93.2a9.812,9.812,0,0,0-.376,4.536,32.147,32.147,0,0,1,.478,4.3,1.743,1.743,0,0,0-1.25-.323,1.929,1.929,0,0,0-.922.306.34.34,0,0,0-.223.222c-.855.826-.982.778-1.443.6l-.062-.023c-.376-.146-.318-.868-.319-.868Zm3.028.278a1.646,1.646,0,0,1,1.4.7,1.626,1.626,0,0,0,.271.254,3.657,3.657,0,0,0,.467.222c.6.25,1.05.476.951.9-.064.268-1.093.231-1.483.214l-.365-.01c-.25,0-.546-.361-.806-.677a2.839,2.839,0,0,0-.647-.649,1.854,1.854,0,0,1-.513-.707,1.374,1.374,0,0,1,.721-.243ZM91.339,70.906a5.374,5.374,0,0,0-3.827.882c-.1.053-.218.113-.36.185a10.95,10.95,0,0,0-2.764,1.8,6.83,6.83,0,0,1-1.7-1.924c2.054-1.275,5.039-2.894,5.626-2.755a5.023,5.023,0,0,0,3.621-.117,1.416,1.416,0,0,1,.225-.083,1.152,1.152,0,0,1,.575.089c.2.06.453.135.815.209,1.081.224,1.269.491,1.3.6.043.152-.105.4-.419.7-.941.9-2.393.57-3.089.412Zm-2.9-2.306c-.949-.258-4.718,2.006-5.968,2.78a2.552,2.552,0,0,1-.128-.533,2.682,2.682,0,0,1,.8-1.887,8.118,8.118,0,0,0,2.5-5.368c.1-1.014,1.454-2.107,1.833-2.394.255.074.623.173,1.085.261a2.5,2.5,0,0,0,.416.044s0-.009,0-.013c.083,0,.175.006.273.006h.1a5.606,5.606,0,0,0,1.262-.2,7.469,7.469,0,0,1-.208,1.143c-.027.078-.06.166-.1.26a2.782,2.782,0,0,0-.275,1.09c0,.03.006.069.009.11a1.15,1.15,0,0,0,.877,1.229,4.892,4.892,0,0,0,.983.1,3.1,3.1,0,0,0,1.361-.265A3.48,3.48,0,0,0,94.921,62.8c.059-.235.123-.474.186-.709.126-.469.311-1.231.311-1.231a3.776,3.776,0,0,1,1.3-.323,3.251,3.251,0,0,1,1.486.451,3.4,3.4,0,0,0,1.608.827c.012.068.031.13.04.2s.029.143.042.215a2.96,2.96,0,0,0-1.008-.039,4.706,4.706,0,0,0-2.862,1.541,4.8,4.8,0,0,1-2.6,1.714c-.477.147-2.52.867-2.693.978a16.933,16.933,0,0,0-2.1,2.222c-.067-.016-.124-.025-.194-.044Zm2.67-9.515a1.615,1.615,0,0,0,.916-.383,1.273,1.273,0,0,1,.6-.292,1.3,1.3,0,0,1,.8.3,2.524,2.524,0,0,0,1.288.464,2.168,2.168,0,0,0,.091.292h.006a5.571,5.571,0,0,1,.145.779,6.993,6.993,0,0,1-.342,1.717c-.064.239-.128.481-.188.718a2.987,2.987,0,0,1-1.379,1.832,3.494,3.494,0,0,1-2.013.125c-.4-.082-.446-.379-.47-.762,0-.054-.007-.1-.012-.14a3.272,3.272,0,0,1,.246-.85c.036-.1.071-.189.1-.271a9.831,9.831,0,0,0,.273-1.642,16.507,16.507,0,0,0-.06-1.88Zm2.782-5.438a2.139,2.139,0,0,1,.725,1.126A3.35,3.35,0,0,0,92.913,55l.225.462a2.7,2.7,0,0,1,1.58-.139.129.129,0,0,1,.042.074,10.6,10.6,0,0,1-.042,2.789,1.865,1.865,0,0,0-.057.468,2.113,2.113,0,0,1-.969-.379,1.443,1.443,0,0,0-1.964.02,1.063,1.063,0,0,1-.726.277c-.014-.043-.028-.094-.041-.13l0-.01c0-.01-.008-.02-.012-.029a.693.693,0,0,0-.034-.09,3.994,3.994,0,0,1-.376-1.353,14.689,14.689,0,0,1,.1-1.633l0,0a1.066,1.066,0,0,1,.516-.087c.3,0,.635-.011.774.177a.651.651,0,0,1,.083.439,8.849,8.849,0,0,1-.431,1.58s.448.014.551.019c.041-.145.369-1.438.374-1.449a1.039,1.039,0,0,0-.081-.864,1.609,1.609,0,0,0-1.27-.418,2.174,2.174,0,0,0-.452.043.111.111,0,0,1,0-.013,1.865,1.865,0,0,1,.753-1.2,2.507,2.507,0,0,1,2.44.09ZM87.46,59.435c-.559.255-.425,1.018-.323,1.382-.476.363-1.885,1.532-2,2.725a7.784,7.784,0,0,1-2.32,5.02,2.682,2.682,0,0,0-.693,3.333l-.049-.037a2.426,2.426,0,0,0-.308.674,2.855,2.855,0,0,0-.588-.623L79.77,65.888l-.589.143c-.373-.482-1.746-2.261-2.008-2.672a1.715,1.715,0,0,1-.182-.662,1.288,1.288,0,0,0-.393-.929,5.377,5.377,0,0,1-.868-1.362,6.758,6.758,0,0,0,2.411-4.775,20.813,20.813,0,0,0,4.3-1.239,19.43,19.43,0,0,0,4.3,1.275,7.617,7.617,0,0,0,1.018,3.7.854.854,0,0,0-.3.068Zm-.732-4.293a18.716,18.716,0,0,1-4.247-1.289l0-.007a.356.356,0,0,1-.047,0,.26.26,0,0,1-.041,0l0,.007A19.728,19.728,0,0,1,78.158,55.1a6.706,6.706,0,0,0-.483-2.386,15.091,15.091,0,0,0,4.77-1.4,15.091,15.091,0,0,0,4.769,1.4,6.727,6.727,0,0,0-.485,2.424Zm-3.335-8c0,.016,0,.03,0,.046a1.093,1.093,0,0,0,1.164,1.036h.014a1.3,1.3,0,0,0,.953-.423,1.388,1.388,0,0,0,.364-1.036,1.656,1.656,0,0,0-1.332-1.473h.012a1.709,1.709,0,0,0-1.635-1.77v.515a1.185,1.185,0,0,1,1.115,1.2,1.853,1.853,0,0,0-1.6.953,1.849,1.849,0,0,0-1.6-.957,1.185,1.185,0,0,1,1.114-1.2v-.516a1.709,1.709,0,0,0-1.634,1.771h.018A1.658,1.658,0,0,0,79,46.758a1.382,1.382,0,0,0,.361,1.034,1.31,1.31,0,0,0,.955.425h.014A1.107,1.107,0,0,0,81.51,47.18a.379.379,0,0,0,0-.041H81v0a.632.632,0,0,1-.674.557.792.792,0,0,1-.581-.257.866.866,0,0,1-.226-.649,1.183,1.183,0,0,1,1.26-1.051h.013a1.373,1.373,0,0,1,1.4,1.455v1.617H77.309c.361-2.789,4.137-8.712,5.1-10.19.974,1.51,4.843,7.636,5.219,10.19H82.7V47.2a1.373,1.373,0,0,1,1.4-1.453h.013a1.2,1.2,0,0,1,1.26,1.051.859.859,0,0,1-.227.647.789.789,0,0,1-.58.259h-.008a.6.6,0,0,1-.65-.556v-.008l-.514,0Zm-.949,2.195a.62.62,0,1,1-.621.62A.62.62,0,0,1,82.444,49.333Zm-.949,0a1.037,1.037,0,0,0-.1.179,1.121,1.121,0,0,0,0,.882,1.165,1.165,0,0,0,.19.3,1.674,1.674,0,0,0,.4.3,16.068,16.068,0,0,1-4.537,1.238,6.8,6.8,0,0,0-2.762-2.9Zm-6.18-11.018H73.99v.516h1.325v3.674a10.824,10.824,0,0,0-2.722-2.327V38.1h-.536v2.048a13,13,0,0,0-2.579,2.435V34.562l5.837,2.667ZM72.306,40.57c.46.33,2.959,2.2,3.009,3.124v5.122h-1.8a6.694,6.694,0,0,0-4.036-.054V43.884c.128-1.043,2-2.707,2.828-3.314Zm-.9,8.422a6.235,6.235,0,0,1,3.775,11.2l-2.014-1.1c.132-.117.364-.291.364-.291.02,0,.051.016.093.029.4.128,1.474.467,2.113-.189a1.761,1.761,0,0,0,.393-1.617,1.116,1.116,0,0,1,.023-.642,1.9,1.9,0,0,0,.176-1.459.9.9,0,0,0-.525-.572.878.878,0,0,1-.44-.312,1.419,1.419,0,0,0-.223-.23,1.828,1.828,0,0,1-.208-.427,1.676,1.676,0,0,0-.622-.922,1.1,1.1,0,0,0-.947.077c-.09.037-.224.094-.237.1a.865.865,0,0,1-.1-.134,1.039,1.039,0,0,0-1.007-.564,1.336,1.336,0,0,0-.827.371,1.718,1.718,0,0,1-.294.2,2.689,2.689,0,0,1-.69.092,2.111,2.111,0,0,0-1.153.265,2.165,2.165,0,0,0-.547,1.1,2.434,2.434,0,0,1-.1.327.813.813,0,0,1-.349.3.851.851,0,0,0-.523.676c-.023.431.441.719.892,1,.219.135.631.46.631.46a1.107,1.107,0,0,1,.434,1.23c-.07.427-.364.475-.808.5a5.935,5.935,0,0,0-2.072.54l-.115.073a6.177,6.177,0,0,1-1.325-3.842,6.246,6.246,0,0,1,6.239-6.239Zm-2.489-.176h-.9V34.263l.36-.2.536.245v14.5Zm-3.309,2.967a6.7,6.7,0,0,0-.833,2.178,9.311,9.311,0,0,1-3.006-1V50.625A16.671,16.671,0,0,0,65.612,51.782ZM62.961,74.768A8.3,8.3,0,0,1,63.2,73.44a9.258,9.258,0,0,0,.253-1.409c0-.16.026-.339.052-.539a5.063,5.063,0,0,0-.072-2.128,13.385,13.385,0,0,1-.468-3.121c.013-.73.2-2.257.2-2.257a7.242,7.242,0,0,1,1.879.345,4.659,4.659,0,0,1,1.579,1.93c.522.972.071,2.74-.079,3.262a3.734,3.734,0,0,0,.471,2.72c.084.167.178.318.271.469a2.194,2.194,0,0,1,.449,1.691,6.055,6.055,0,0,0,.118,2.356c.053.3.115.652.184,1.087a5.624,5.624,0,0,1-.695,3.77l-.021.042a1.778,1.778,0,0,0-.7-1.391,1.606,1.606,0,0,0-1.648.025,2.759,2.759,0,0,1,.078-1.429c.136-.593.278-1.208-.156-1.674a2.355,2.355,0,0,0-.467-.355c-.172-.112-1.084-.676-1.246-1.164a2.4,2.4,0,0,1-.224-.9Zm2.288,11.738.953,6.869-1.486.758L63.15,87.266ZM86.17,106.359a9.741,9.741,0,0,1,1.37,1.063c.235.249.213.477-.078.812-.119.135-.776.684-1.261,1.081-.28-.275-.857-.835-1.2-1.181-.087-.087-.319-.319.053-.73.077-.087.675-.641,1.118-1.045Zm1.681,2.213a1.011,1.011,0,0,0,.064-1.5,7.58,7.58,0,0,0-.966-.795h3.979l-.534.512a1.059,1.059,0,0,0-.289.74.76.76,0,0,0,.32.551c.49.381.648.508.652.51l.326-.4s-.157-.13-.663-.519a.256.256,0,0,1-.121-.184.567.567,0,0,1,.141-.338l.845-.807a7,7,0,0,1,1.03.752c.045.044.185.172-.011.571a2.366,2.366,0,0,1-.319.465l-1.592,1.724a8.056,8.056,0,0,0-3.219-.492c-.163,0-.352.01-.561.023.371-.309.8-.673.92-.81Zm-.667-2.815c.43-.263.96-.585,1.319-.8a4.552,4.552,0,0,1,1.335-.589c.067-.012,1.648-.3,1.758-1.227a1.659,1.659,0,0,0-.01-.427h3.5c0,.085,0,.174,0,.253,0,.353,0,.659.022.864a4.469,4.469,0,0,1,0,.58,2.334,2.334,0,0,0,.174,1.344h-8.1Zm11.18-.506a1.175,1.175,0,0,0,0-1.053,10.27,10.27,0,0,0-.643-1.235c-.058-.1-.11-.191-.161-.28h3.694l.006,1.034h-1.2v2.041h-2.2a1.392,1.392,0,0,0,.5-.506ZM100.871,73.4a8.848,8.848,0,0,0,1.426-.666,17.694,17.694,0,0,0,1.617.9c-.016.05-.034.107-.051.154a2.95,2.95,0,0,0-.212.833,5,5,0,0,0,1.219,3.027,2.451,2.451,0,0,1,.6,1.129.684.684,0,0,1-.217.513,2.7,2.7,0,0,1-1.6.484v-.1c-.065-1.344-.468-3.458-2.775-6.267Zm4.6,6.364v1.8h-1.82V80.29A3.488,3.488,0,0,0,105.466,79.768Zm-1.82,11.546a3.181,3.181,0,0,0,.408.5,2.742,2.742,0,0,0,1.966.812h.027a2.384,2.384,0,0,0,2.467-2.2,2.867,2.867,0,0,0-.113-.867s-.175-.416-.177-.418c-.532-.91-.35-2.683.325-3.161a1.138,1.138,0,0,1,.9-.219.763.763,0,0,1,.51.426.679.679,0,0,1-.011.671.558.558,0,0,1-.548.285l-.006.516h.015a1.133,1.133,0,0,0,.978-.53,1.185,1.185,0,0,0,.032-1.174,1.271,1.271,0,0,0-.846-.694,1.62,1.62,0,0,0-1.323.3,3.1,3.1,0,0,0-.8,2.877,2.384,2.384,0,0,0-1.03-.216,1.485,1.485,0,0,0-1.337.722,1.36,1.36,0,0,0-.018,1.341,1.2,1.2,0,0,0,1.088.576h.02l-.007-.516a.681.681,0,0,1-.656-.321.839.839,0,0,1,.02-.825.96.96,0,0,1,.891-.463,1.561,1.561,0,0,1,1.16.4A1.814,1.814,0,0,1,108,90.41a1.882,1.882,0,0,1-1.957,1.7l-.022,0a2.25,2.25,0,0,1-1.6-.662,2.352,2.352,0,0,1-.77-1.785V89.1l4.509-4.938h3.052v-.515h-3.278l-4.283,4.688V82.086h7.561v-.517H109.8l-.006-6.179,5.919-.01c-1.1.828-3.391,2.58-3.61,2.778a1.9,1.9,0,0,0-.683,1.607,1.566,1.566,0,0,0,.475,1.137,1.975,1.975,0,0,0,1.318.579,1.5,1.5,0,0,0,1.546-1.376,1.321,1.321,0,0,0-.387-.978,1.031,1.031,0,0,0-.789-.279.942.942,0,0,0-.883.967l.516-.01c0-.071.065-.427.389-.443a.554.554,0,0,1,.4.131.827.827,0,0,1,.235.594c-.025.722-.768.879-1.032.879a1.448,1.448,0,0,1-.952-.424,1.077,1.077,0,0,1-.326-.771,1.39,1.39,0,0,1,.514-1.23c.248-.226,4.185-3.153,4.185-3.153h.228a34.7,34.7,0,0,1-13.212,22.518V91.315Zm2.076-28.6a12.265,12.265,0,0,0-1.563-2.9,17.267,17.267,0,0,1,1.715-3.47,18.642,18.642,0,0,1,1.679,3.147A10.966,10.966,0,0,0,105.721,62.714Zm2.07-2.612a21,21,0,0,1,1.432,7.648l.013,13.819h-3.256V64.227a8.266,8.266,0,0,1,1.811-4.125Zm1.989,8h3.007v6.772h-3ZM105.491,55.8a19.5,19.5,0,0,0-1.852,3.678v-5.7A11.091,11.091,0,0,1,105.491,55.8Zm-.029,8.429h0V77.6l-.18-.249a4.575,4.575,0,0,1-1.119-2.726,3.011,3.011,0,0,1,.183-.668,7.8,7.8,0,0,0,.508-2.535,8.376,8.376,0,0,0-1.22-3.535V60.047A8.7,8.7,0,0,1,105.461,64.224Zm-1.117,7.189a6.2,6.2,0,0,1-.276,1.724,9.214,9.214,0,0,1-1.95-1.185c-.078-.1.036-.533.114-.818.148-.552.3-1.123-.013-1.5a1.971,1.971,0,0,0-1.5-.8,2.852,2.852,0,1,0-4.137.906,2.058,2.058,0,0,0-.3.7,3.435,3.435,0,0,1-.6,1.812,3.991,3.991,0,0,1-.484.342c-.07.044-.246.113-.287.183s.011.128.05.161l.016.013a.848.848,0,0,0,.2.129,8.435,8.435,0,0,0,3.127.744c-.069.324-.2.836-.46,1.641a19.09,19.09,0,0,1-2.57,4.994,11.574,11.574,0,0,1-2.048,2.2l-.24.208a29.08,29.08,0,0,0-2.144,2.1,7.678,7.678,0,0,0-.957,1.376A4.271,4.271,0,0,1,88.6,87.928a4.794,4.794,0,0,0-2.339,3.117A16.217,16.217,0,0,1,85.1,89.7c-.471-.637-.458-2.516-.2-4.04.125-.748.212-1.564.3-2.475.876-.452,1.426-1.987,1.812-3.311a5.241,5.241,0,0,1,1.48-2.313,16.5,16.5,0,0,0,2.657-2.971,11.437,11.437,0,0,0,1.318-2.99,3.013,3.013,0,0,0,2.323-.734c.478-.455.661-.852.557-1.211-.127-.443-.663-.749-1.69-.96-.266-.055-.469-.11-.636-.16.118-.048.243-.1.379-.15a2.063,2.063,0,0,1,1.081-.251l.024-.516a2.534,2.534,0,0,0-1.3.292c-.648.247-1.12.469-1.184.5a2.176,2.176,0,0,0-.283.1,4.069,4.069,0,0,1-2.523.25,15.214,15.214,0,0,1,1.8-1.905,17.131,17.131,0,0,1,2.6-.929c.3-.092.554-.169.715-.224a5.145,5.145,0,0,0,2.137-1.695A4.352,4.352,0,0,1,98.948,62.7a1.937,1.937,0,0,1,1.061.107,9.367,9.367,0,0,0,2.2,3.741,3.646,3.646,0,0,1,.247.293l.078.128c1.507,2.518,1.816,3.807,1.811,4.443Zm-1.222-22.6H97.429V43.9c0-.99,1.972-2.65,2.894-3.329a21.858,21.858,0,0,1,2.8,2.115Zm0-10.5h-1.2v.516h1.2V42.02a21.26,21.26,0,0,0-2.511-1.841V38.1h-.536v2.048a12.644,12.644,0,0,0-2.657,2.539V34.566l5.7,3.109Zm0,11.018v.632a15.573,15.573,0,0,1-4.2,1.283,6.767,6.767,0,0,0-2.161-1.915Zm-6.261-.517h-.894v-14.5l.535-.245.359.2V48.817Zm2.856,6.415a6.2,6.2,0,0,1-1.085,3.51,1.529,1.529,0,0,1-.874.058c-1.6-.536-1.214-2.473-1.029-3.4l.035-.181a3.311,3.311,0,0,0-.683-2.472,1.841,1.841,0,0,0-1.3-.786,2.281,2.281,0,0,0-1.994.741l-.047.044a1.818,1.818,0,0,0-2.361-.537c-1.285.529-1.419,2.462-1.364,3.1a1.061,1.061,0,0,1-.247.682,2.152,2.152,0,0,0-.406,1.135,2.48,2.48,0,0,0,.479,1.329c.229.379.37.639.272.784-.173.251-.361.267-.668.216a6.876,6.876,0,0,1-1.207-4.218,6.239,6.239,0,0,1,12.479,0ZM95.411,42.493A13.373,13.373,0,0,0,92.9,40.152V38.1h-.537v2.076a28.4,28.4,0,0,0-2.79,2.261v-3.61H90.9v-.516H89.573v-1.1l5.838-2.657v7.931ZM82.152,29.433h-.883v.516h.883v1.119H76.3c.927-1.683,3.24-2.846,5.85-2.928Zm-41.9,40.772A42.41,42.41,0,0,1,79.962,27.934a6.28,6.28,0,0,0-4.232,3.134H74.67v1.894h.645v3.7l-6.694-3.056V30.6H68.2v2.979l-6.46,3.533v-2.14h-.515l.014,3.344H59.976v.516h1.266v4.051a34.991,34.991,0,0,0,0,55.227v5.608l-1.628,0,.01,2.043A42.358,42.358,0,0,1,40.255,70.206ZM59.848,90.278a1.363,1.363,0,0,0-.018-1.341,1.484,1.484,0,0,0-1.338-.722,2.382,2.382,0,0,0-1.029.216,3.1,3.1,0,0,0-.8-2.877,1.619,1.619,0,0,0-1.323-.3,1.281,1.281,0,0,0-.847.69,1.2,1.2,0,0,0,.033,1.178,1.133,1.133,0,0,0,.977.53h.015l-.006-.516a.7.7,0,0,1-.549-.285.682.682,0,0,1-.012-.671.768.768,0,0,1,.511-.426,1.142,1.142,0,0,1,.9.219c.674.479.856,2.252.323,3.161a2.776,2.776,0,0,0-.29,1.286,2.376,2.376,0,0,0,2.468,2.2H58.9a2.742,2.742,0,0,0,1.966-.812,3.149,3.149,0,0,0,.38-.46v6.089A33.8,33.8,0,0,1,48.6,75.391h.123c.034.03,3.468,2.9,3.747,3.151a1.394,1.394,0,0,1,.514,1.23,1.074,1.074,0,0,1-.326.769,1.353,1.353,0,0,1-.952.37c-.264,0-1-.1-1.023-.823a.82.82,0,0,1,.225-.594.551.551,0,0,1,.406-.131c.324.016.413.373.413.443l.515.01a.963.963,0,0,0-.907-.967,1.041,1.041,0,0,0-.788.279,1.317,1.317,0,0,0-.378.978,1.438,1.438,0,0,0,1.537,1.32,1.914,1.914,0,0,0,1.318-.524,1.569,1.569,0,0,0,.475-1.137,1.908,1.908,0,0,0-.683-1.607c-.219-.2-2.241-1.927-3.227-2.769h5.623l-.006,6.179H53.682v.517h7.561v6.248L56.96,83.647H53.682v.515h3.05L61.242,89.1v.408a2.433,2.433,0,0,1-.741,1.94,2.243,2.243,0,0,1-1.6.662l-.022,0a1.883,1.883,0,0,1-1.958-1.695,1.823,1.823,0,0,1,.418-1.282,1.557,1.557,0,0,1,1.158-.4.96.96,0,0,1,.892.463.838.838,0,0,1,.02.825.736.736,0,0,1-.656.321l-.007.516a1.2,1.2,0,0,0,1.107-.576Zm1.393-40.946v4.037C59.409,54.7,56.883,58.243,55.752,63V56.919a.334.334,0,0,0,.293.179.341.341,0,0,0,0-.681.337.337,0,0,0-.293.178v-.822a.334.334,0,0,0,.293.177.34.34,0,1,0,0-.679.333.333,0,0,0-.293.18v-.825a.336.336,0,0,0,.293.179.341.341,0,0,0,0-.681.334.334,0,0,0-.293.179v-.348h-.125a.34.34,0,1,0-.312,0H55.19v.381a.341.341,0,1,0,0,.257v.891a.338.338,0,1,0,0,.256v.891a.339.339,0,1,0,0,.256s.006,10.275,0,11L52.2,67.879V64.548a.335.335,0,0,0,.293.179.34.34,0,1,0,0-.679.333.333,0,0,0-.293.179V63.4a.335.335,0,0,0,.293.18.341.341,0,1,0,0-.681.334.334,0,0,0-.293.179v-.824a.333.333,0,0,0,.293.179.341.341,0,1,0-.293-.5v-.348h-.125a.34.34,0,1,0-.311,0h-.125v.381a.34.34,0,1,0,0,.256v.89a.34.34,0,1,0,0,.26v.889a.34.34,0,1,0,0,.257v3.5l-2.378,2.207.382.41,2.013-1.923v6.169H48.54a34.98,34.98,0,0,1-.282-4.38A34.265,34.265,0,0,1,61.242,43.549v5.267H59.811v.517h1.432ZM58.9,64.548V81.569H55.752l.013-13.694a19.438,19.438,0,0,1,1.4-7.464,8.049,8.049,0,0,1,1.735,3.96c0,.057,0,.176,0,.176ZM57.4,59.8a18.743,18.743,0,0,1,1.679-3.147,17.26,17.26,0,0,1,1.715,3.472,12.587,12.587,0,0,0-1.609,2.91A10.818,10.818,0,0,0,57.4,59.8Zm2.016,4.744s.007-.055.015-.15a9.17,9.17,0,0,1,1.812-3.935V81.569H59.415V64.544Zm.046-8.439a11.2,11.2,0,0,1,1.78-1.961v5.45a20.4,20.4,0,0,0-1.78-3.489ZM55.221,68.422l-.007,6.453H52.182V68.428l3.039-.006Zm4.91,35.807,4.488.008,0,1.52H60.138Zm.3,2.044h7.1a1.4,1.4,0,0,0-.2,1.852c.124.172,1.5,1.7,2.048,2.314a42.223,42.223,0,0,1-8.948-4.166Zm8.711,3.132c-.666-.743-1.324-1.485-1.393-1.58a.871.871,0,0,1,.162-1.2,1.233,1.233,0,0,1,.565-.353h.506l1.594,1.676a1.489,1.489,0,0,0-.848.331,1.55,1.55,0,0,0-.585,1.125Zm.882.938a1.216,1.216,0,0,1-.372-.89,1.058,1.058,0,0,1,.4-.773,1.014,1.014,0,0,1,.815-.208.679.679,0,0,1,.526.418.536.536,0,0,1,.032.133c.174.011.346.013.52.028a1.114,1.114,0,0,0-.07-.341,1.154,1.154,0,0,0-.4-.52l-1.778-1.917h4.355l-1.09,1.012.351.379,1.5-1.391h.041v3.516c-.128.042-.256.086-.389.131l-.192.066c-.259.087-.531.185-.8.286a7.959,7.959,0,0,1-2.239.614A1.758,1.758,0,0,1,70.022,110.343Zm2.117.912c.474-.125.989-.313,1.5-.5.27-.1.536-.2.793-.284l.193-.066a7.974,7.974,0,0,1,3.241-.534,24.9,24.9,0,0,1,2.821.229c.2.334.892,1.553,1.4,2.454A42.338,42.338,0,0,1,72.138,111.256Zm10.328.934c-1.449-2.579-1.461-2.585-1.66-2.59-.287-.041-.567-.076-.839-.106v-.9h1.22l.009-.492H79.968v-1.829H85.5c-.342.316-.753.7-.833.786a.971.971,0,0,0-.034,1.44c.279.277.7.692,1.007.986-.414.046-.865.106-1.352.185-.159,0-.171,0-1.823,2.519Zm.372.374c.6-.909,1.38-2.09,1.594-2.4a13.711,13.711,0,0,1,2.781-.326,9.46,9.46,0,0,1,3.535.567l.194.066c.255.087.521.183.79.283.487.178.981.358,1.44.484a42.273,42.273,0,0,1-10.333,1.324Zm12.509-2.22a1.761,1.761,0,0,1-1.2.543,7.97,7.97,0,0,1-2.24-.614q-.34-.125-.665-.237l1.437-1.558a2.012,2.012,0,0,0,.557-1.209.774.774,0,0,0-.257-.553,5.764,5.764,0,0,0-.547-.441H95.7l-1.8,1.918a1.139,1.139,0,0,0-.4.518,1.1,1.1,0,0,0-.069.334,3.888,3.888,0,0,1,.516-.007.608.608,0,0,1,.034-.147.683.683,0,0,1,.525-.418,1.01,1.01,0,0,1,.815.208,1.058,1.058,0,0,1,.4.773,1.221,1.221,0,0,1-.371.89Zm.3-2.065a1.488,1.488,0,0,0-.848-.33l1.592-1.676H96.9a1.238,1.238,0,0,1,.561.353.868.868,0,0,1,.162,1.2c-.069.1-.727.838-1.393,1.58a1.554,1.554,0,0,0-.585-1.126Zm.406,2.1c.585-.65,1.871-2.082,1.991-2.25a1.4,1.4,0,0,0-.206-1.852h6.975A42.2,42.2,0,0,1,96.05,110.375Zm9.01-4.617h-4.479v-1.52h4.479Zm.512.027,0-2.06-1.93,0V98.554a34.995,34.995,0,0,0-.007-56.122v-3.6h1.314v-.516h-1.314V34.97h-.533v2.117l-6.42-3.508V30.6h-.418V33.6l-6.694,3.047V32.961h.611V31.067H89.158A6.336,6.336,0,0,0,84.79,27.9a42.345,42.345,0,0,1,20.781,77.887Z" transform="translate(-37.996 -25.59)"/></svg>