<svg xmlns="http://www.w3.org/2000/svg" xmlns:xlink="http://www.w3.org/1999/xlink" width="1154.792" height="956.588" viewBox="0 0 1154.792 956.588"><defs><linearGradient id="a" x1="0.265" y1="0.051" x2="0.668" y2="0.869" gradientUnits="objectBoundingBox"><stop offset="0" stop-color="#88dd8c"/><stop offset="1" stop-color="#59b35d"/></linearGradient><filter id="b" x="9.451" y="28.14" width="1093.853" height="928.448" filterUnits="userSpaceOnUse"><feOffset input="SourceAlpha"/><feGaussianBlur stdDeviation="1" result="c"/><feFlood flood-opacity="0.149"/><feComposite operator="in" in2="c"/><feComposite in="SourceGraphic"/></filter><filter id="d" x="0" y="162.75" width="891" height="759" filterUnits="userSpaceOnUse"><feOffset dy="10" input="SourceAlpha"/><feGaussianBlur stdDeviation="25" result="e"/><feFlood flood-color="#b1bdda" flood-opacity="0.161"/><feComposite operator="in" in2="e"/><feComposite in="SourceGraphic"/></filter></defs><g transform="translate(-948 -2694.25)"><g transform="translate(887.05 2516.58)" style="isolation:isolate"><path d="M1045.875,447.6C1015.731,394.3,971.414,351.1,924.2,312.889c-43.369-35.1-83.252-50.582-111.231-103.432-18.755-35.416-32.6-73.86-57.174-105.512-51.724-66.6-141.9-58.386-215.071-38.494-194.21,52.8-364.731,187.489-461.064,364.19-24.9,45.662-45.28,94.993-48.919,146.875s11.349,106.853,48.68,143.068c46.442,45.056,116.772,53.58,172.7,86.131,56.787,33.048,95.807,88.976,143.768,133.889s115.913,80.5,177.833,58.535c52.116-18.492,82.537-70.99,121.81-109.921C757.58,826.714,843.925,798.1,920.753,756.5s151.835-108.66,156.01-195.928C1078.659,521.054,1065.36,482.035,1045.875,447.6Z" transform="translate(138.8 126.448)" fill="#82d886" opacity="0.18" style="mix-blend-mode:screen;isolation:isolate"/><g transform="matrix(1, 0, 0, 1, 60.95, 177.67)" filter="url(#b)"><path d="M168.162,141.956c-35.519,32.73-63.519,74.567-81.91,118.157-25.9,61.415-36.9,128.012-44.431,194.238C17.483,668.429,83.815,915.32,313.867,981.163c154.316,44.167,321.646-1.055,462.835-66.509,207.453-96.167,499.811-395.529,255.445-618.075-131.372-119.639-343.579-74.5-498.882-139.656C460.508,126.4,392.008,70.165,309.024,76.86,254.9,81.232,207.035,106.142,168.162,141.956Z" transform="translate(-24.63 -45.17)" fill="url(#a)"/></g></g><g transform="translate(13 362)"><g transform="matrix(1, 0, 0, 1, 935, 2332.25)" filter="url(#d)"><rect width="741" height="609" rx="27" transform="translate(75 227.75)" fill="#fff"/></g><path d="M27,0H714a27,27,0,0,1,27,27V53a0,0,0,0,1,0,0H0a0,0,0,0,1,0,0V27A27,27,0,0,1,27,0Z" transform="translate(1010 2560)" fill="#2c554e"/><circle cx="10.5" cy="10.5" r="10.5" transform="translate(1700 2576)" fill="#e05b5b"/><ellipse cx="11" cy="10.5" rx="11" ry="10.5" transform="translate(1667 2576)" fill="#d7d357"/><ellipse cx="11" cy="10.5" rx="11" ry="10.5" transform="translate(1635 2576)" fill="#42d48b"/><g transform="translate(1121.964 2736.089)"><g transform="translate(42.366 275.808)"><g transform="translate(209.74 0.042)"><g transform="translate(0 0)"><rect width="210.696" height="44.786" rx="15" fill="rgba(159,163,197,0.11)"/></g></g><g transform="translate(0 0)"><rect width="163.203" height="45.177" rx="15" fill="rgba(159,163,197,0.11)"/></g></g><g transform="translate(0 0)"><g transform="translate(0 0)"><rect width="505" height="254" rx="10" transform="translate(0.036 -0.089)" fill="rgba(159,163,197,0.11)"/></g></g></g><g transform="translate(922.069 2969.46)"><g transform="translate(65.598 60.93)"><path d="M0,0H59.416V7.975H0Z" transform="translate(7.825 20.314) rotate(-19.993)" fill="#68607c"/><path d="M0,0H7.972V90.189H0Z" transform="translate(90.059 12.697) rotate(-45)" fill="#68607c"/><path d="M0,0H7.971V48.3H0Z" transform="translate(100.324 80.21) rotate(-82.186)" fill="#68607c"/><path d="M0,0H7.969V71.281H0Z" transform="translate(3.376 39.373) rotate(-63.435)" fill="#68607c"/><path d="M0,0H7.977V63.854H0Z" transform="translate(6.049 144.392) rotate(-63.384)" fill="#68607c"/><path d="M319.621,340.241h7.973v67.771h-7.973Z" transform="translate(-242.666 -250.645)" fill="#68607c"/><path d="M0,0H123.469V7.972H0Z" transform="translate(0.147 115.304) rotate(-57.041)" fill="#68607c"/><path d="M0,0H91.03V7.974H0Z" transform="matrix(0.691, -0.723, 0.723, 0.691, 91.443, 160.477)" fill="#68607c"/><path d="M0,0H7.976V128.639H0Z" transform="translate(0 48.866) rotate(-30.718)" fill="#68607c"/></g><path d="M86.742,409.388a27.283,27.283,0,0,1-2.95,12.478,27.9,27.9,0,1,1,2.95-12.478Z" transform="translate(0 -215.01)" fill="#4e9bb9"/><path d="M306.833,494.353a27.519,27.519,0,0,1,6.737,18.139,27.906,27.906,0,1,1-54.256-9.169,27.869,27.869,0,0,1,47.519-8.97Z" transform="translate(-139.124 -278.249)" fill="#91cbd7"/><path d="M512.492,257.759a27.906,27.906,0,0,1,0,55.811,28.023,28.023,0,0,1-27.906-27.906,23.374,23.374,0,0,1,.279-3.747,27.844,27.844,0,0,1,27.627-24.158Z" transform="translate(-278.249 -139.124)" fill="#ffd086"/><path d="M313.291,258.48a27.892,27.892,0,0,1-55.532-3.747,27.282,27.282,0,0,1,2.95-12.478,27.9,27.9,0,0,1,52.861,12.478A23.367,23.367,0,0,1,313.291,258.48Z" transform="translate(-139.124 -120.153)" fill="#ed6571"/><path d="M285.664,30.931a27.906,27.906,0,1,1,0,55.811,27.9,27.9,0,0,1-27.906-27.906A27.885,27.885,0,0,1,285.664,30.931Z" transform="translate(-139.124 0)" fill="#f69489"/><path d="M85.068,131.792a27.832,27.832,0,0,1,1.674,9.528,27.283,27.283,0,0,1-2.95,12.478,27.9,27.9,0,1,1,1.276-22.006Z" transform="translate(0 -50.591)" fill="#91cbd7"/></g></g></g></svg>