<svg xmlns="http://www.w3.org/2000/svg" width="223.982" height="250.172" viewBox="0 0 223.982 250.172"><g transform="translate(-13.095)"><path d="M78.873,64.3H62.153a3.776,3.776,0,0,1,0-7.551h16.72a3.776,3.776,0,0,1,0,7.551Z" fill="#407093"/><path d="M62.153,69.56a3.775,3.775,0,0,1-3.776-3.776V55.265a3.776,3.776,0,1,1,7.551,0v10.52A3.776,3.776,0,0,1,62.153,69.56Z" fill="#2b4d66"/><path d="M188.02,64.3H171.3a3.776,3.776,0,0,1,0-7.551h16.72a3.776,3.776,0,0,1,0,7.551Z" fill="#407093"/><path d="M188.02,69.56a3.775,3.775,0,0,1-3.776-3.776V55.265a3.776,3.776,0,1,1,7.551,0v10.52A3.775,3.775,0,0,1,188.02,69.56Z" fill="#2b4d66"/><path d="M176.127,97.12H74.045V51.041a51.041,51.041,0,1,1,102.082,0Z" fill="#9dc6fb"/><path d="M176.127,51.041A51.046,51.046,0,0,0,119.14.347a51.046,51.046,0,0,1,45.1,50.694V97.12h11.892V51.041Z" fill="#8993da"/><path d="M211.693,194.819H38.479V108.992A21.94,21.94,0,0,1,60.419,87.052H189.754a21.94,21.94,0,0,1,21.939,21.939Z" fill="#dd636e"/><path d="M211.693,108.992a21.94,21.94,0,0,0-21.939-21.939H178.982a21.94,21.94,0,0,1,21.939,21.939v85.827h10.772Z" fill="#c63d4f"/><path d="M180.265,178.094a5.833,5.833,0,0,1-5.833,5.833H75.74a5.833,5.833,0,0,1-5.833-5.833V130.932A5.833,5.833,0,0,1,75.74,125.1h98.692a5.833,5.833,0,0,1,5.833,5.833v47.163Z" fill="#d3effb"/><path d="M180.265,130.932a5.833,5.833,0,0,0-5.833-5.833H163.209a5.833,5.833,0,0,1,5.833,5.833v47.163a5.832,5.832,0,0,1-5.833,5.833h11.224a5.832,5.832,0,0,0,5.833-5.833Z" fill="#b1e4f9"/><path d="M125.086,148.4V250.172c-.237,0-2.989-.894-9.494-2.416a181.973,181.973,0,0,0-91.123,2.195.682.682,0,0,1-.871-.66V148.925a.69.69,0,0,1,.5-.665A185.059,185.059,0,0,1,115.592,146C118.665,146.7,122.032,147.55,125.086,148.4Z" fill="#9dc6fb"/><path d="M125.086,148.4V250.172c-.26,0-4.024-1.175-9.494-2.416V146c3.073.7,6.44,1.55,9.494,2.4Z" fill="#8993da"/><path d="M30.27,217H17a3.9,3.9,0,0,1-3.9-3.9V178.432a3.9,3.9,0,0,1,3.9-3.9H30.271a3.9,3.9,0,0,1,3.9,3.9v34.661a3.9,3.9,0,0,1-3.9,3.9Z" fill="#dd636e"/><path d="M30.27,174.528h-9.03a3.9,3.9,0,0,1,3.9,3.9v34.661a3.9,3.9,0,0,1-3.9,3.9h9.03a3.9,3.9,0,0,0,3.9-3.9V178.432a3.9,3.9,0,0,0-3.9-3.9Z" fill="#c63d4f"/><path d="M226.575,148.925V249.291a.682.682,0,0,1-.871.66c-56.923-15.866-97.5.221-100.618.221V148.4a185.463,185.463,0,0,1,100.985-.141.691.691,0,0,1,.5.665Z" fill="#9dc6fb"/><path d="M217.828,146.178V247.936q3.939.925,7.878,2.018a.685.685,0,0,0,.869-.66V148.924a.686.686,0,0,0-.5-.661q-4.123-1.138-8.245-2.085Z" fill="#8993da"/><path d="M219.9,217h13.271a3.9,3.9,0,0,0,3.9-3.9V178.432a3.9,3.9,0,0,0-3.9-3.9H219.9a3.9,3.9,0,0,0-3.9,3.9v34.661A3.9,3.9,0,0,0,219.9,217Z" fill="#dd636e"/><path d="M233.173,174.528h-8.443a3.9,3.9,0,0,1,3.9,3.9v34.661a3.9,3.9,0,0,1-3.9,3.9h8.443a3.9,3.9,0,0,0,3.9-3.9V178.432A3.9,3.9,0,0,0,233.173,174.528Z" fill="#c63d4f"/><path d="M205.165,186.035a1.337,1.337,0,0,1-1.337,1.337H147.833a1.337,1.337,0,0,1-1.337-1.337V168.374a1.337,1.337,0,0,1,1.337-1.337h55.994a1.337,1.337,0,0,1,1.337,1.337v17.661Z" fill="#fff6f4"/><path d="M195.689,167.037v20.335h8.138a1.337,1.337,0,0,0,1.337-1.337V168.374a1.337,1.337,0,0,0-1.337-1.337h-8.138Z" fill="#d8e2f1"/><path d="M186.313,206.175H165.348a3.776,3.776,0,1,1,0-7.551h20.965a3.776,3.776,0,1,1,0,7.551Z" fill="#2b4d66"/><path d="M193.864,220.7H157.8a3.776,3.776,0,0,1,0-7.551h36.067a3.776,3.776,0,0,1,0,7.551Z" fill="#2b4d66"/><path d="M69.453,111.171h-6.8a3.776,3.776,0,0,1,0-7.551h6.8a3.776,3.776,0,0,1,0,7.551Z" fill="#fff6f4"/><path d="M119.745,111.171H84.113a3.776,3.776,0,1,1,0-7.551h35.632a3.776,3.776,0,0,1,0,7.551Z" fill="#fff6f4"/><path d="M158.709,67.412a.625.625,0,0,1-.425.592,100.81,100.81,0,0,1-66.307,0,.626.626,0,0,1-.425-.592V38.7a.625.625,0,0,1,.625-.625h65.907a.625.625,0,0,1,.625.625V67.412Z" fill="#fff6f4"/><path d="M149.219,38.07V70.645q4.533-1.114,9.066-2.642a.625.625,0,0,0,.425-.592V38.7a.625.625,0,0,0-.625-.625Z" fill="#d8e2f1"/><path d="M105.721,62.3a3.775,3.775,0,0,1-3.776-3.776V52.768a3.776,3.776,0,0,1,7.551,0v5.755A3.776,3.776,0,0,1,105.721,62.3Z" fill="#2b4d66"/><path d="M144.451,62.3a3.775,3.775,0,0,1-3.776-3.776V52.768a3.776,3.776,0,1,1,7.551,0v5.755A3.775,3.775,0,0,1,144.451,62.3Z" fill="#2b4d66"/></g></svg>