<svg xmlns="http://www.w3.org/2000/svg" xmlns:xlink="http://www.w3.org/1999/xlink" width="221.111" height="52.116" viewBox="0 0 221.111 52.116"><defs><linearGradient id="a" x1="2.472" y1="1.035" x2="2.361" y2="1.005" gradientUnits="objectBoundingBox"><stop offset="0" stop-color="#00a0ff"/><stop offset="0.007" stop-color="#00a1ff"/><stop offset="0.26" stop-color="#00beff"/><stop offset="0.512" stop-color="#00d2ff"/><stop offset="0.76" stop-color="#00dfff"/><stop offset="1" stop-color="#00e3ff"/></linearGradient><linearGradient id="b" x1="1.95" y1="1.879" x2="1.69" y2="1.879" gradientUnits="objectBoundingBox"><stop offset="0" stop-color="#ffe000"/><stop offset="0.409" stop-color="#ffbd00"/><stop offset="0.775" stop-color="orange"/><stop offset="1" stop-color="#ff9c00"/></linearGradient><linearGradient id="c" x1="1.926" y1="0.946" x2="1.835" y2="0.793" gradientUnits="objectBoundingBox"><stop offset="0" stop-color="#ff3a44"/><stop offset="1" stop-color="#c31162"/></linearGradient><linearGradient id="d" x1="1.856" y1="2.093" x2="1.897" y2="2.025" gradientUnits="objectBoundingBox"><stop offset="0" stop-color="#32a071"/><stop offset="0.068" stop-color="#2da771"/><stop offset="0.476" stop-color="#15cf74"/><stop offset="0.801" stop-color="#06e775"/><stop offset="1" stop-color="#00f076"/></linearGradient></defs><g transform="translate(0)"><path d="M1711.867,283.643a5.809,5.809,0,0,1-4.337-1.795,6.111,6.111,0,0,1-1.752-4.379,5.976,5.976,0,0,1,1.752-4.375,5.791,5.791,0,0,1,4.332-1.795,5.869,5.869,0,0,1,4.336,1.795,6.338,6.338,0,0,1,0,8.749A5.761,5.761,0,0,1,1711.867,283.643Zm-51.416,0a6.023,6.023,0,0,1-4.356-1.771,6.169,6.169,0,0,1,4.356-10.568,6.071,6.071,0,0,1,2.432.5,4.919,4.919,0,0,1,1.852,1.323l.114.138-1.29,1.266-.133-.157a3.667,3.667,0,0,0-2.994-1.29,4.139,4.139,0,0,0-2.985,1.219,4.627,4.627,0,0,0,0,6.341,4.364,4.364,0,0,0,6.051,0,3.3,3.3,0,0,0,.876-1.985h-4.137v-1.78h5.912l.024.162a6.494,6.494,0,0,1,.086.895,5.36,5.36,0,0,1-1.476,3.951A5.759,5.759,0,0,1,1660.451,283.643Zm68.363-.252h-1.823l-5.584-8.935.048,1.609v7.321h-1.823V271.557h2.08l.057.09,5.251,8.416-.048-1.6v-6.9h1.842Zm-30.647,0h-1.847V273.337h-3.2v-1.78h8.25v1.78h-3.2v10.054Zm-6.555,0h-1.842V271.557h1.842Zm-10.353,0h-1.842V273.337h-3.2v-1.78h8.25v1.78h-3.2Zm-6.212-.019h-7.064V271.557h7.064v1.78h-5.217v3.247h4.708v1.761h-4.708v3.247h5.217Zm33.836-2.747a4.077,4.077,0,0,0,2.985,1.238,3.973,3.973,0,0,0,2.985-1.238,4.691,4.691,0,0,0,0-6.3,4.083,4.083,0,0,0-2.984-1.238,3.956,3.956,0,0,0-2.98,1.238,4.7,4.7,0,0,0-.01,6.3Z" transform="translate(-1594.597 -271.3)" fill="#fff"/><path d="M1698.369,692.016a8.121,8.121,0,1,0,8.145,8.121A7.994,7.994,0,0,0,1698.369,692.016Zm0,13.024a4.935,4.935,0,1,1,4.579-4.922A4.7,4.7,0,0,1,1698.369,705.04Zm-17.77-13.024a8.121,8.121,0,1,0,8.145,8.121A7.994,7.994,0,0,0,1680.6,692.016Zm0,13.024a4.935,4.935,0,1,1,4.579-4.922A4.7,4.7,0,0,1,1680.6,705.04ZM1659.453,694.5v3.437h8.25a7.247,7.247,0,0,1-1.866,4.327,8.417,8.417,0,0,1-6.365,2.523,9.164,9.164,0,0,1,0-18.327,8.807,8.807,0,0,1,6.212,2.461l2.437-2.437a11.985,11.985,0,0,0-8.63-3.48,12.6,12.6,0,1,0,0,25.2,11.535,11.535,0,0,0,8.8-3.542,11.405,11.405,0,0,0,2.99-8.059,10.644,10.644,0,0,0-.19-2.142h-11.644S1659.453,694.5,1659.453,694.5Zm86.49,2.675c-.681-1.823-2.737-5.174-6.955-5.174-4.179,0-7.655,3.289-7.655,8.121a7.937,7.937,0,0,0,8.059,8.121,8.06,8.06,0,0,0,6.764-3.6l-2.756-1.847a4.618,4.618,0,0,1-3.989,2.247,4.147,4.147,0,0,1-3.946-2.461l10.858-4.5S1745.943,697.171,1745.943,697.171Zm-11.073,2.713a4.457,4.457,0,0,1,4.242-4.732,3.13,3.13,0,0,1,3.013,1.718Zm-8.821,7.869h3.566V683.895h-3.566Zm-5.855-13.933h-.128a5.625,5.625,0,0,0-4.284-1.823,8.121,8.121,0,0,0,0,16.228,5.61,5.61,0,0,0,4.284-1.847h.128v1.166c0,3.1-1.656,4.77-4.327,4.77a4.5,4.5,0,0,1-4.094-2.885l-3.1,1.295a7.752,7.752,0,0,0,7.188,4.794c4.18,0,7.722-2.461,7.722-8.464V692.482h-3.37v1.338Zm-4.094,11.22a4.938,4.938,0,0,1,0-9.839c2.437,0,4.327,2.1,4.327,4.941C1720.452,702.984,1718.543,705.04,1716.1,705.04Zm46.537-21.145h-8.526v23.859h3.565v-9.035h4.965a7.423,7.423,0,1,0,0-14.824Zm.1,11.491h-5.07V687.2h5.07a4.095,4.095,0,1,1,0,8.188Zm22.017-3.413a6.715,6.715,0,0,0-6.365,3.646l3.161,1.314a3.389,3.389,0,0,1,3.246-1.761c1.847,0,3.713,1.1,3.756,3.075v.252a7.987,7.987,0,0,0-3.713-.914c-3.413,0-6.874,1.866-6.874,5.365,0,3.2,2.8,5.26,5.917,5.26a5.018,5.018,0,0,0,4.536-2.333h.129v1.847h3.437v-9.14C1791.989,694.329,1788.829,691.973,1784.759,691.973Zm-.448,13.067c-1.166,0-2.8-.571-2.8-2.037,0-1.847,2.037-2.547,3.775-2.547a6.189,6.189,0,0,1,3.247.8A4.292,4.292,0,0,1,1784.311,705.04Zm20.217-12.558-4.094,10.349h-.129l-4.242-10.349h-3.837l6.365,14.467-3.627,8.04h3.713l9.792-22.507Zm-32.094,15.271H1776V683.895h-3.566Z" transform="translate(-1587.358 -663.402)" fill="#fff" fill-rule="evenodd"/><path d="M400.971,299.529a3.867,3.867,0,0,0-.871,2.694v42.21a3.68,3.68,0,0,0,.89,2.671l.148.129,23.649-23.649v-.528L401.119,299.4Z" transform="translate(-400.1 -298.062)" fill-rule="evenodd" fill="url(#a)"/><path d="M926.188,646.828,918.3,638.94v-.552l7.888-7.888.171.1,9.33,5.3c2.671,1.5,2.671,3.989,0,5.512l-9.33,5.3Z" transform="translate(-893.632 -613.401)" fill-rule="evenodd" fill="url(#b)"/><path d="M450.256,810.059,442.2,802l-23.8,23.8c.871.933,2.333,1.038,3.965.128l27.891-15.866" transform="translate(-417.529 -776.737)" fill-rule="evenodd" fill="url(#c)"/><path d="M450.256,302.962l-27.891-15.842c-1.633-.933-3.1-.8-3.965.129l23.8,23.773Z" transform="translate(-417.529 -285.758)" fill-rule="evenodd" fill="url(#d)"/><path d="M450.465,967.7l-27.7,15.737c-1.547.89-2.928.828-3.818.019l-.148.148.148.129c.89.8,2.271.871,3.818-.019l27.891-15.842Z" transform="translate(-417.91 -934.549)" fill-rule="evenodd" opacity="0.2"/></g></svg>