<svg xmlns="http://www.w3.org/2000/svg" width="107.915" height="107.725" viewBox="0 0 107.915 107.725"><g transform="translate(-1.5 -1.69)"><path d="M94.817,48.908A45.908,45.908,0,1,1,48.908,3,45.908,45.908,0,0,1,94.817,48.908Z" transform="translate(0 0.19)" fill="none" stroke="#3d3e47" stroke-linecap="round" stroke-linejoin="round" stroke-width="3"/><path d="M41.613,41.613,16.65,16.65" transform="translate(65.681 65.681)" fill="none" stroke="#3d3e47" stroke-linecap="round" stroke-linejoin="round" stroke-width="3"/><g transform="translate(21.844 21.315)"><path d="M18.691,6.875H12.375a7.221,7.221,0,0,0-7.219,7.219V20.41a1.5,1.5,0,0,0,3.008,0V13.986a4.122,4.122,0,0,1,1.257-2.814,4.1,4.1,0,0,1,2.847-1.289h6.424a1.5,1.5,0,0,0,0-3.008Z" fill="#3d3e47"/><path d="M42.732,6.875H36.309a1.5,1.5,0,0,0,0,3.008h6.424a4.1,4.1,0,0,1,2.847,1.289,4.122,4.122,0,0,1,1.257,2.814V20.41a1.5,1.5,0,0,0,3.008,0V13.986A7.12,7.12,0,0,0,42.732,6.875Z" fill="#3d3e47"/><path d="M18.691,45.117H12.268a4.1,4.1,0,0,1-2.847-1.289,4.122,4.122,0,0,1-1.257-2.814V34.59a1.5,1.5,0,0,0-3.008,0v6.424a7.12,7.12,0,0,0,7.111,7.111h6.424a1.5,1.5,0,0,0,0-3.008Z" fill="#3d3e47"/><path d="M48.34,33.086a1.508,1.508,0,0,0-1.5,1.5v6.424a4.373,4.373,0,0,1-4.1,4.1H36.309a1.5,1.5,0,0,0,0,3.008h6.316a7.228,7.228,0,0,0,7.219-7.219V34.59A1.508,1.508,0,0,0,48.34,33.086Z" fill="#3d3e47"/></g></g></svg>