<svg xmlns="http://www.w3.org/2000/svg" width="24.301" height="24.914" viewBox="0 0 24.301 24.914"><g transform="translate(-2.459 -1.995)"><path d="M22.672,12.836A9.836,9.836,0,1,1,12.836,3,9.836,9.836,0,0,1,22.672,12.836Z" transform="translate(0.459 -0.005)" fill="none" stroke="#3d3e47" stroke-linecap="round" stroke-linejoin="round" stroke-width="2"/><path d="M22,22,16.65,16.65" transform="translate(3.347 3.497)" fill="none" stroke="#3d3e47" stroke-linecap="round" stroke-linejoin="round" stroke-width="2"/><g transform="translate(6.084 5.995)"><path d="M5.041,2.5H3.564A1.689,1.689,0,0,0,1.875,4.189V5.666a.352.352,0,1,0,.7,0v-1.5a1.023,1.023,0,0,1,.96-.96h1.5a.352.352,0,1,0,0-.7Z" fill="#3d3e47"/><path d="M14.511,2.5h-1.5a.352.352,0,0,0,0,.7h1.5a1.023,1.023,0,0,1,.96.96v1.5a.352.352,0,1,0,.7,0v-1.5A1.665,1.665,0,0,0,14.511,2.5Z" transform="translate(-3.846)" fill="#3d3e47"/><path d="M5.041,14.845h-1.5a1.023,1.023,0,0,1-.96-.96v-1.5a.352.352,0,0,0-.7,0v1.5a1.665,1.665,0,0,0,1.663,1.663h1.5a.352.352,0,0,0,0-.7Z" transform="translate(0 -3.4)" fill="#3d3e47"/><path d="M15.822,12.031a.353.353,0,0,0-.352.352v1.5a1.023,1.023,0,0,1-.96.96h-1.5a.352.352,0,0,0,0,.7h1.477a1.691,1.691,0,0,0,1.689-1.689V12.383A.353.353,0,0,0,15.822,12.031Z" transform="translate(-3.846 -3.4)" fill="#3d3e47"/></g></g></svg>