<svg xmlns="http://www.w3.org/2000/svg" width="86.5" height="96.141" viewBox="0 0 86.5 96.141"><g transform="translate(-11.75 -7.059)"><path d="M75.625,43.083,34.375,19.3" fill="none" stroke="#3d3e47" stroke-linecap="round" stroke-linejoin="round" stroke-width="4"/><path d="M96.25,73.333V36.667a9.167,9.167,0,0,0-4.583-7.929L59.583,10.4a9.167,9.167,0,0,0-9.167,0L18.333,28.738a9.167,9.167,0,0,0-4.583,7.929V73.333a9.167,9.167,0,0,0,4.583,7.929L50.417,99.6a9.167,9.167,0,0,0,9.167,0L91.667,81.263A9.167,9.167,0,0,0,96.25,73.333Z" fill="none" stroke="#3d3e47" stroke-linecap="round" stroke-linejoin="round" stroke-width="4"/><path d="M14.988,31.9,55,55.046,95.012,31.9" fill="none" stroke="#3d3e47" stroke-linecap="round" stroke-linejoin="round" stroke-width="4"/><path d="M55,101.2V55" fill="none" stroke="#3d3e47" stroke-linecap="round" stroke-linejoin="round" stroke-width="4"/></g></svg>