<svg xmlns="http://www.w3.org/2000/svg" width="43.105" height="47.349" viewBox="0 0 43.105 47.349"><g transform="translate(-11.599 -7.11)"><path d="M53.777,30.484,34.375,19.3" transform="translate(-10.924 -5.36)" fill="none" stroke="#88dd8c" stroke-linecap="round" stroke-linejoin="round" stroke-width="4"/><path d="M52.553,39.352V22.106A4.311,4.311,0,0,0,50.4,18.377L35.307,9.754a4.311,4.311,0,0,0-4.311,0l-15.09,8.623a4.311,4.311,0,0,0-2.156,3.729V39.352a4.311,4.311,0,0,0,2.156,3.729L31,51.7a4.311,4.311,0,0,0,4.311,0L50.4,43.081A4.311,4.311,0,0,0,52.553,39.352Z" transform="translate(0 0)" fill="none" stroke="#88dd8c" stroke-linecap="round" stroke-linejoin="round" stroke-width="4"/><path d="M14.988,31.9l18.82,10.886L52.627,31.9" transform="translate(-0.655 -12.036)" fill="none" stroke="#88dd8c" stroke-linecap="round" stroke-linejoin="round" stroke-width="4"/><path d="M55,76.73V55" transform="translate(-21.848 -24.271)" fill="none" stroke="#88dd8c" stroke-linecap="round" stroke-linejoin="round" stroke-width="4"/></g></svg>