<svg xmlns="http://www.w3.org/2000/svg" width="21.052" height="40.836" viewBox="0 0 21.052 40.836"><path d="M29.511,14.015a1.423,1.423,0,0,0-1.422,1.422V33.153a7.349,7.349,0,0,1-2,5.021,7.213,7.213,0,0,1-5.058,2.16H19.787a7.083,7.083,0,0,1-4.994-2.242,7.317,7.317,0,0,1-2.178-5.031V10.206a4.953,4.953,0,0,1,1.577-3.6,5.422,5.422,0,0,1,3.736-1.485,5.072,5.072,0,0,1,5.122,5.085V31.549a2.88,2.88,0,0,1-2.643,2.934,2.8,2.8,0,0,1-2.57-2.934V19.374a1.422,1.422,0,1,0-2.843,0V31.549a5.467,5.467,0,0,0,9.3,4.1,5.757,5.757,0,0,0,1.595-4.1V10.206A7.965,7.965,0,0,0,17.9,2.25a8,8,0,0,0-5.668,2.324,7.863,7.863,0,0,0-2.36,5.641V33.071a10.185,10.185,0,0,0,2.971,7.108,9.851,9.851,0,0,0,6.935,2.907h1.239a9.954,9.954,0,0,0,6.917-2.925,10.237,10.237,0,0,0,2.178-3.153,9.541,9.541,0,0,0,.811-3.837V15.437A1.41,1.41,0,0,0,29.511,14.015Z" transform="translate(-9.872 -2.25)" fill="#3d3e47"/></svg>