<svg xmlns="http://www.w3.org/2000/svg" width="23.37" height="25.767" viewBox="0 0 23.37 25.767"><g transform="translate(-12.703 -8.141)"><path d="M45.013,25.43,34.375,19.3" transform="translate(-15.306 -7.51)" fill="none" stroke="#3d3e47" stroke-linecap="round" stroke-linejoin="round" stroke-width="2"/><path d="M35.025,25.721V16.265a2.364,2.364,0,0,0-1.182-2.045L25.57,9.493a2.364,2.364,0,0,0-2.364,0l-8.274,4.728a2.364,2.364,0,0,0-1.182,2.045v9.456a2.364,2.364,0,0,0,1.182,2.045l8.274,4.728a2.364,2.364,0,0,0,2.364,0l8.274-4.728A2.364,2.364,0,0,0,35.025,25.721Z" fill="none" stroke="#3d3e47" stroke-linecap="round" stroke-linejoin="round" stroke-width="2"/><path d="M14.987,31.9l10.319,5.969L35.625,31.9" transform="translate(-0.918 -16.864)" fill="none" stroke="#3d3e47" stroke-linecap="round" stroke-linejoin="round" stroke-width="2"/><path d="M55,66.914V55" transform="translate(-30.612 -34.007)" fill="none" stroke="#3d3e47" stroke-linecap="round" stroke-linejoin="round" stroke-width="2"/></g></svg>