<svg xmlns="http://www.w3.org/2000/svg" width="90.66" height="90.66" viewBox="0 0 90.66 90.66"><defs><style>.a{fill:#79a5ff;}.b{fill:#f7f4f0;}.c{fill:#dbd8d5;}.d{fill:#76cc7a;}.e{fill:#454a6d;}.f{fill:#eae8e5;}.g{fill:#4ac3ed;}.h{fill:#e89d43;}</style></defs><g transform="translate(-2.627 -8.126)"><path class="a" d="M101.66,61.83A45.33,45.33,0,1,1,56.33,16.5,45.33,45.33,0,0,1,101.66,61.83Z" transform="translate(-8.373 -8.374)"/><g transform="translate(5.68 13.513)"><path class="b" d="M3,66.715V3H74.688l12.867,9.1V66.715Z" transform="translate(-3 -3)"/><path class="c" d="M54.867,15.867H42V3Z" transform="translate(11.683 -3)"/><circle class="c" cx="5.5" cy="5.5" r="5.5" transform="translate(11.454 9.306)"/><circle class="c" cx="5.5" cy="5.5" r="5.5" transform="translate(21.928 9.306)"/><circle class="d" cx="5.5" cy="5.5" r="5.5" transform="translate(35.691 9.306)"/><circle class="c" cx="5.5" cy="5.5" r="5.5" transform="translate(11.454 19.78)"/><circle class="d" cx="5.5" cy="5.5" r="5.5" transform="translate(21.928 19.78)"/><circle class="c" cx="5.5" cy="5.5" r="5.5" transform="translate(35.691 19.78)"/><path class="e" d="M44,24h3.676v3.676H44Z" transform="translate(14.217 4.718)"/><path class="e" d="M44,20h3.676v3.676H44Z" transform="translate(14.217 3.248)"/><path class="e" d="M44,16h3.676v3.676H44Z" transform="translate(14.217 1.778)"/><path class="f" d="M11,33H86.364V44.029H11Z" transform="translate(-3.957 6.94)"/><path class="f" d="M7,47H78.067V65.381H7Z" transform="translate(2.501 7.524)"/><path class="g" d="M8.535,59.543c0-5.075,3.1-9.191,6.919-9.191h67.8V43h-67.8C8.575,43,3,50.406,3,59.543S8.575,76.087,15.454,76.087h67.8V68.734h-67.8C11.633,68.734,8.535,64.618,8.535,59.543Z" transform="translate(-0.852 4.172)"/><path class="h" d="M12.061,41.867c0-3.046,1.7-5.514,3.8-5.514H65.2V29H15.857C10.965,29,7,34.761,7,41.867s3.965,12.867,8.857,12.867H65.2V47.381H15.857C13.76,47.381,12.061,44.913,12.061,41.867Z" transform="translate(2.501 3.219)"/><g transform="translate(30.938 63.715)"><path class="c" d="M33,52H55.058v3.676H33Z" transform="translate(-33 -52)"/><path class="c" d="M47,52h3.676v3.676H47Z" transform="translate(-21.266 -52)"/><path class="c" d="M51,52h3.676v3.676H51Z" transform="translate(-17.913 -52)"/><path class="c" d="M55,52h3.676v3.676H55Z" transform="translate(-14.561 -52)"/></g><path class="e" d="M60.676,3l3.676,9.191V76.526H57V12.191Z" transform="translate(18.054 -3)"/><path class="h" d="M57,37h7.353v3.676H57Z" transform="translate(18.054 9.496)"/></g></g></svg>