<svg xmlns="http://www.w3.org/2000/svg" width="98" height="97.735" viewBox="0 0 98 97.735"><defs><style>.a{fill:#f69489;}.b{fill:#eef6ff;}.c{fill:#c3ddf4;}.d{fill:#293d7c;}.e{fill:#1a2b63;}.f{fill:#69cdff;}.g{fill:#52bbef;}.h{fill:#ff9518;}.i{fill:#ef8318;}.j{fill:#ffd00d;}.k{fill:#91e0e8;}.l{fill:#e26693;}.m{fill:#ffaf10;}.n{fill:#37c47a;}.o{fill:#445ea0;}.p{fill:#d9eafc;}</style></defs><circle class="a" cx="47" cy="47" r="47" transform="translate(4 3.735)"/><path class="b" d="M46.13,89.63a19.15,19.15,0,0,1,23.264-2.948V53.763H0v60.495a1.915,1.915,0,0,0,1.909,1.909H45.635A19.152,19.152,0,0,1,46.13,89.63Z" transform="translate(0 -43.5)"/><path class="c" d="M4.329,114.258V53.763H0v60.495a1.915,1.915,0,0,0,1.909,1.909H6.238A1.915,1.915,0,0,1,4.329,114.258Z" transform="translate(0 -43.5)"/><path class="d" d="M68.3,0H1.091A1.094,1.094,0,0,0,0,1.091V10.8H69.394V1.091A1.094,1.094,0,0,0,68.3,0Z"/><path class="e" d="M5.42,0H1.091A1.094,1.094,0,0,0,0,1.091V10.8H4.329V1.091A1.094,1.094,0,0,1,5.42,0Z"/><path class="f" d="M60,109.906a.957.957,0,0,1-.954.954H37.77a.957.957,0,0,1-.954-.954V94.65a.957.957,0,0,1,.954-.954H59.044A.957.957,0,0,1,60,94.65v15.256h0Z" transform="translate(-29.788 -75.81)"/><path class="g" d="M41.145,109.906V94.65A.957.957,0,0,1,42.1,93.7H37.77a.957.957,0,0,0-.954.954v15.256a.957.957,0,0,0,.954.954H42.1A.957.957,0,0,1,41.145,109.906Z" transform="translate(-29.788 -75.81)"/><path class="h" d="M71.24,281.788H37.77a.957.957,0,0,0-.954.954v9.126a.957.957,0,0,0,.954.954H71.032A19.263,19.263,0,0,1,71.24,281.788Z" transform="translate(-29.788 -227.998)"/><path class="i" d="M41.145,291.869v-9.126a.957.957,0,0,1,.954-.954H37.77a.957.957,0,0,0-.954.954v9.126a.957.957,0,0,0,.954.954H42.1A.957.957,0,0,1,41.145,291.869Z" transform="translate(-29.788 -227.998)"/><path class="j" d="M187.779,281.788H180.85v11.035h6.722A19.263,19.263,0,0,1,187.779,281.788Z" transform="translate(-146.328 -227.998)"/><g transform="translate(5.596 16.454)"><path class="k" d="M215.5,89.059H192.1a1.432,1.432,0,1,1,0-2.863h23.4a1.432,1.432,0,1,1,0,2.863Z" transform="translate(-159.865 -86.196)"/><path class="k" d="M215.5,119.032H192.1a1.432,1.432,0,0,1,0-2.863h23.4a1.432,1.432,0,1,1,0,2.863Z" transform="translate(-159.865 -110.447)"/><path class="k" d="M215.5,149.005H192.1a1.432,1.432,0,1,1,0-2.863h23.4a1.432,1.432,0,0,1,0,2.863Z" transform="translate(-159.865 -134.699)"/><path class="k" d="M215.5,178.978H192.1a1.432,1.432,0,1,1,0-2.863h23.4a1.432,1.432,0,1,1,0,2.863Z" transform="translate(-159.865 -158.95)"/><path class="k" d="M80.883,213.148H30.748a1.432,1.432,0,1,0,0,2.863h42.3A18.925,18.925,0,0,1,80.883,213.148Z" transform="translate(-29.316 -188.914)"/><path class="k" d="M69.478,243.662H30.748a1.432,1.432,0,1,0,0,2.863h36.5A19.092,19.092,0,0,1,69.478,243.662Z" transform="translate(-29.316 -213.603)"/></g><path class="l" d="M28.827,22.473a1.431,1.431,0,1,1,1.012-.418A1.447,1.447,0,0,1,28.827,22.473Z" transform="translate(-22.166 -15.867)"/><path class="m" d="M53.422,22.473a1.431,1.431,0,1,1,1.014-.42A1.437,1.437,0,0,1,53.422,22.473Z" transform="translate(-42.066 -15.867)"/><path class="n" d="M78.027,22.473a1.431,1.431,0,1,1,1.012-.418A1.439,1.439,0,0,1,78.027,22.473Z" transform="translate(-61.974 -15.867)"/><path class="o" d="M393.137,389.207l-3.924,3.924,7.719,7.719a47.063,47.063,0,0,0,3.924-3.924Z" transform="translate(-314.916 -314.912)"/><path class="d" d="M370.908,363.029l-3.252-3.252a19.241,19.241,0,0,1-7.841,7.854l3.246,3.245a.957.957,0,0,0,1.35,0l6.5-6.5A.957.957,0,0,0,370.908,363.029Z" transform="translate(-291.13 -291.099)"/><path class="e" d="M365.287,394.49l-2.776-2.776a19.07,19.07,0,0,1-2.7,1.757l3.246,3.246a.957.957,0,0,0,1.35,0l2.227-2.227A.957.957,0,0,1,365.287,394.49Z" transform="translate(-291.129 -316.94)"/><path class="o" d="M243.617,216.018a19.511,19.511,0,1,1-27.593,0A19.511,19.511,0,0,1,243.617,216.018Z" transform="translate(-170.163 -170.159)"/><path class="f" d="M264.209,264.2a13.68,13.68,0,1,1,0-19.347A13.68,13.68,0,0,1,264.209,264.2Z" transform="translate(-194.878 -194.875)"/><path class="g" d="M264.209,275.569a13.776,13.776,0,0,0,1.325-1.538A13.681,13.681,0,0,1,246.4,254.9a13.681,13.681,0,1,0,17.809,20.672Z" transform="translate(-194.878 -206.24)"/><path class="o" d="M162.089,0H115.912V10.8H163.18V1.091A1.094,1.094,0,0,0,162.089,0Z" transform="translate(-93.786)"/><g transform="translate(59.716 48.205)"><circle class="p" cx="2.291" cy="2.291" r="2.291"/><circle class="p" cx="1.623" cy="1.623" r="1.623" transform="translate(5.48 3.049)"/></g></svg>