<svg xmlns="http://www.w3.org/2000/svg" width="90.664" height="94.326" viewBox="0 0 90.664 94.326"><defs><style>.a{fill:#88dd8c;}.b{fill:#445ea0;}.c{fill:#293d7c;}.d{fill:#1a2b63;}.e{fill:#c3ddf4;}.f{fill:#aec1ed;}.g{fill:#fff;}.h{fill:#d9eafc;}.i{fill:#0f9390;}.j{fill:#52bbef;}.k{fill:#85a0dd;}.l{fill:#91e0e8;}.m{fill:#5dc1d8;}.n{fill:#eef6ff;}</style></defs><g transform="translate(-9.94)"><circle class="a" cx="45.136" cy="45.136" r="45.136" transform="translate(10.331 4.053)"/><rect class="b" width="17.382" height="7.477" transform="translate(38.048 71.574)"/><path class="c" d="M152.025,432a.924.924,0,0,1-.921.921h-31.8a.924.924,0,0,1-.921-.921v-2.986a.924.924,0,0,1,.921-.921h31.8a.924.924,0,0,1,.921.921V432Z" transform="translate(-88.467 -349.224)"/><path class="d" d="M122.042,432v-2.986a.924.924,0,0,1,.921-.921h-3.655a.924.924,0,0,0-.921.921V432a.924.924,0,0,0,.921.921h3.655A.924.924,0,0,1,122.042,432Z" transform="translate(-88.467 -349.224)"/><path class="c" d="M72.76,330.888H9.94v8.957a1.848,1.848,0,0,0,1.842,1.842H72.76v-10.8Z" transform="translate(0 -269.928)"/><path class="d" d="M13.6,339.845v-8.957H9.94v8.957a1.848,1.848,0,0,0,1.842,1.842h3.655A1.848,1.848,0,0,1,13.6,339.845Z" transform="translate(0 -269.928)"/><path class="b" d="M81.768,105.259H74.4v20.128a1.741,1.741,0,0,0-1.73,1.742v16.344H18.685V105.259H11.709a1.774,1.774,0,0,0-1.769,1.769v39.983H72.76V127.129a1.744,1.744,0,0,1,1.742-1.742h9.035V107.028A1.774,1.774,0,0,0,81.768,105.259Z" transform="translate(0 -85.867)"/><g transform="translate(13.479 22.93)"><path class="c" d="M34.353,124.464H30.068a.924.924,0,0,0-.921.921v32.833a.924.924,0,0,0,.921.921h4.285V124.464Z" transform="translate(-29.147 -124.464)"/><path class="c" d="M364.521,124.464h-4.674v16.595c.033,0,.065,0,.1,0h5.5V125.385A.924.924,0,0,0,364.521,124.464Z" transform="translate(-298.922 -124.464)"/></g><path class="d" d="M32.8,158.218V125.385a.924.924,0,0,1,.921-.921H30.068a.924.924,0,0,0-.921.921v32.833a.924.924,0,0,0,.921.921h3.655A.924.924,0,0,1,32.8,158.218Z" transform="translate(-15.668 -101.534)"/><circle class="b" cx="2.239" cy="2.239" r="2.239" transform="translate(44.499 64.27)"/><path class="e" d="M77.226,12.069a.823.823,0,0,1,.82-.82H99.2V.97a.973.973,0,0,0-.97-.97H57.877a.973.973,0,0,0-.97.97V57.605H77.226Z" transform="translate(-38.314)"/><path class="f" d="M61.532,0H57.877a.973.973,0,0,0-.97.97V57.605h3.656V.97A.973.973,0,0,1,61.532,0Z" transform="translate(-38.314)"/><path class="g" d="M200.23,90.258a1.744,1.744,0,0,1,1.735-1.742V60.882a.823.823,0,0,0-.82-.82H167.017a.823.823,0,0,0-.82.82V106.6H200.23V90.258Z" transform="translate(-127.47 -48.997)"/><path class="h" d="M170.673,60.062h-3.656a.823.823,0,0,0-.82.82V106.6h3.656V60.882A.823.823,0,0,1,170.673,60.062Z" transform="translate(-127.47 -48.997)"/><path class="i" d="M192.91,133.525a1.382,1.382,0,0,1-1.04-.472l-2.211-2.525a1.382,1.382,0,0,1,2.079-1.82l1.171,1.338,1.862-2.127a1.382,1.382,0,1,1,2.079,1.82l-2.9,3.314A1.382,1.382,0,0,1,192.91,133.525Z" transform="translate(-146.331 -103.967)"/><g transform="translate(52.674 23.322)"><path class="j" d="M258.08,129.354h-14.8a1.382,1.382,0,0,1,0-2.763h14.8a1.382,1.382,0,1,1,0,2.763Z" transform="translate(-241.9 -126.591)"/><path class="j" d="M258.08,149.916h-14.8a1.382,1.382,0,0,1,0-2.763h14.8a1.382,1.382,0,1,1,0,2.763Z" transform="translate(-241.9 -143.365)"/></g><path class="i" d="M192.91,195.212a1.382,1.382,0,0,1-1.04-.471l-2.211-2.525a1.382,1.382,0,0,1,2.079-1.82l1.171,1.338,1.862-2.127a1.382,1.382,0,1,1,2.079,1.82l-2.9,3.314A1.381,1.381,0,0,1,192.91,195.212Z" transform="translate(-146.331 -154.29)"/><g transform="translate(52.674 34.686)"><path class="j" d="M258.08,191.039h-14.8a1.382,1.382,0,0,1,0-2.763h14.8a1.382,1.382,0,1,1,0,2.763Z" transform="translate(-241.9 -188.276)"/><path class="j" d="M258.08,211.6h-14.8a1.382,1.382,0,0,1,0-2.763h14.8a1.382,1.382,0,1,1,0,2.763Z" transform="translate(-241.9 -205.051)"/></g><path class="i" d="M192.91,256.9h0a1.382,1.382,0,0,1-1.04-.472L189.66,253.9a1.382,1.382,0,1,1,2.079-1.82l1.171,1.338,1.862-2.127a1.382,1.382,0,0,1,2.079,1.82l-2.9,3.314A1.382,1.382,0,0,1,192.91,256.9Z" transform="translate(-146.331 -204.611)"/><g transform="translate(52.674 46.051)"><path class="j" d="M258.08,252.725h-14.8a1.382,1.382,0,0,1,0-2.763h14.8a1.382,1.382,0,1,1,0,2.763Z" transform="translate(-241.9 -249.962)"/><path class="j" d="M252.64,273.287h-9.359a1.382,1.382,0,0,1,0-2.763h9.359a1.382,1.382,0,0,1,0,2.763Z" transform="translate(-241.899 -266.736)"/></g><g transform="translate(22.575 11.581)"><path class="b" d="M90.685,65.623H79.9a1.382,1.382,0,0,1,0-2.763H90.685a1.382,1.382,0,1,1,0,2.763Z" transform="translate(-78.522 -62.86)"/><path class="b" d="M90.685,86.466H79.9a1.382,1.382,0,1,1,0-2.763H90.685a1.382,1.382,0,1,1,0,2.763Z" transform="translate(-78.522 -79.863)"/><path class="b" d="M90.685,107.309H79.9a1.382,1.382,0,0,1,0-2.763H90.685a1.382,1.382,0,1,1,0,2.763Z" transform="translate(-78.522 -96.866)"/><path class="b" d="M90.685,146.8H79.9a1.382,1.382,0,0,1,0-2.763H90.685a1.382,1.382,0,1,1,0,2.763Z" transform="translate(-78.522 -129.083)"/><path class="b" d="M90.685,167.645H79.9a1.382,1.382,0,0,1,0-2.763H90.685a1.382,1.382,0,1,1,0,2.763Z" transform="translate(-78.522 -146.086)"/><path class="b" d="M90.685,188.489H79.9a1.382,1.382,0,1,1,0-2.763H90.685a1.382,1.382,0,1,1,0,2.763Z" transform="translate(-78.522 -163.09)"/><path class="b" d="M90.685,227.982H79.9a1.382,1.382,0,1,1,0-2.763H90.685a1.382,1.382,0,1,1,0,2.763Z" transform="translate(-78.522 -195.307)"/><path class="b" d="M90.685,248.823H79.9a1.382,1.382,0,1,1,0-2.763H90.685a1.382,1.382,0,1,1,0,2.763Z" transform="translate(-78.522 -212.309)"/><path class="b" d="M90.685,269.666H79.9a1.382,1.382,0,1,1,0-2.763H90.685a1.382,1.382,0,1,1,0,2.763Z" transform="translate(-78.522 -229.312)"/><path class="b" d="M231.622,85.262h-14.9a1.382,1.382,0,0,1,0-2.763h14.9a1.382,1.382,0,1,1,0,2.763Z" transform="translate(-190.138 -78.881)"/></g><path class="f" d="M372.945,255.946a1.932,1.932,0,0,1-1.926,1.926H351.853a1.932,1.932,0,0,1-1.926-1.926V215.438a1.932,1.932,0,0,1,1.926-1.926h19.165a1.932,1.932,0,0,1,1.926,1.926v40.508Z" transform="translate(-277.351 -174.177)"/><path class="k" d="M353.583,255.946V215.438a1.932,1.932,0,0,1,1.926-1.926h-3.656a1.932,1.932,0,0,0-1.926,1.926v40.508a1.932,1.932,0,0,0,1.926,1.926h3.656A1.932,1.932,0,0,1,353.583,255.946Z" transform="translate(-277.351 -174.177)"/><path class="b" d="M391.485,413.15v2.171a.924.924,0,0,0,.921.921h5.863a.924.924,0,0,0,.921-.921V413.15Z" transform="translate(-311.253 -337.035)"/><rect class="l" width="23.018" height="30.722" transform="translate(72.577 45.577)"/><rect class="m" width="3.656" height="30.722" transform="translate(72.577 45.577)"/><path class="b" d="M395.053,225.492H388.5a1.382,1.382,0,1,1,0-2.763h6.549a1.382,1.382,0,1,1,0,2.763Z" transform="translate(-307.694 -181.696)"/><g transform="translate(75.528 48.387)"><path class="n" d="M383.1,270.006a.924.924,0,0,1-.921.921h-15.3a.924.924,0,0,1-.921-.921v-6.44a.924.924,0,0,1,.921-.921h15.3a.924.924,0,0,1,.921.921v6.44Z" transform="translate(-365.951 -262.645)"/><path class="n" d="M378.78,320.1H367.508a1.382,1.382,0,0,1,0-2.763H378.78a1.382,1.382,0,1,1,0,2.763Z" transform="translate(-366.094 -307.26)"/><path class="n" d="M378.78,342.214H367.508a1.382,1.382,0,0,1,0-2.763H378.78a1.382,1.382,0,1,1,0,2.763Z" transform="translate(-366.094 -325.301)"/><path class="n" d="M378.78,364.328H367.508a1.382,1.382,0,0,1,0-2.763H378.78a1.382,1.382,0,1,1,0,2.763Z" transform="translate(-366.094 -343.341)"/></g><g transform="translate(75.528 48.387)"><path class="h" d="M369.607,270.006v-6.44a.924.924,0,0,1,.921-.921h-3.655a.924.924,0,0,0-.921.921v6.44a.924.924,0,0,0,.921.921h3.655A.924.924,0,0,1,369.607,270.006Z" transform="translate(-365.952 -262.645)"/><path class="h" d="M369.781,318.718a1.382,1.382,0,0,1,1.382-1.382h-3.655a1.382,1.382,0,0,0,0,2.763h3.655A1.382,1.382,0,0,1,369.781,318.718Z" transform="translate(-366.094 -307.26)"/><path class="h" d="M369.781,340.833a1.382,1.382,0,0,1,1.382-1.382h-3.655a1.382,1.382,0,0,0,0,2.763h3.655A1.382,1.382,0,0,1,369.781,340.833Z" transform="translate(-366.094 -325.301)"/><path class="h" d="M369.781,362.947a1.382,1.382,0,0,1,1.382-1.382h-3.655a1.382,1.382,0,0,0,0,2.763h3.655A1.382,1.382,0,0,1,369.781,362.947Z" transform="translate(-366.094 -343.341)"/></g><path class="g" d="M113.248,25.5a.924.924,0,0,1-.921.921H78.981a.924.924,0,0,1-.921-.921V22.921A.924.924,0,0,1,78.981,22h33.346a.924.924,0,0,1,.921.921Z" transform="translate(-55.57 -17.947)"/></g></svg>