<svg xmlns="http://www.w3.org/2000/svg" width="100.22" height="25.42" viewBox="0 0 100.22 25.42"><g transform="translate(-456.389 -152.925)"><path d="M226-65.767c-.3,1.958-1.793,1.958-3.239,1.958h-.823l.577-3.655a.454.454,0,0,1,.449-.383h.378c.984,0,1.914,0,2.394.56a1.823,1.823,0,0,1,.264,1.52m-.629-5.108h-5.454a.759.759,0,0,0-.75.64l-2.2,13.984a.455.455,0,0,0,.1.366.455.455,0,0,0,.345.159h2.8a.53.53,0,0,0,.524-.447l.626-3.966a.758.758,0,0,1,.748-.64h1.726c3.593,0,5.666-1.738,6.207-5.184a4.2,4.2,0,0,0-.7-3.519,5.059,5.059,0,0,0-3.975-1.394" transform="translate(308.433 230.536)" fill="#009cde"/><path d="M111.118-65.767c-.3,1.958-1.793,1.958-3.239,1.958h-.823l.577-3.655a.454.454,0,0,1,.449-.383h.378c.984,0,1.914,0,2.394.56a1.82,1.82,0,0,1,.265,1.52m-.629-5.108h-5.454a.759.759,0,0,0-.749.64l-2.2,13.984a.454.454,0,0,0,.1.366.454.454,0,0,0,.345.159h2.6a.758.758,0,0,0,.748-.64l.6-3.772a.757.757,0,0,1,.748-.64h1.726c3.593,0,5.666-1.738,6.207-5.184a4.2,4.2,0,0,0-.7-3.519,5.059,5.059,0,0,0-3.975-1.394m12.661,10.129a2.912,2.912,0,0,1-2.948,2.494,2.2,2.2,0,0,1-1.754-.705,2.217,2.217,0,0,1-.409-1.834,2.922,2.922,0,0,1,2.927-2.513,2.2,2.2,0,0,1,1.741.712,2.248,2.248,0,0,1,.443,1.847m3.64-5.084h-2.612a.455.455,0,0,0-.45.385l-.114.73-.183-.264a3.718,3.718,0,0,0-3.085-1.1,6.005,6.005,0,0,0-5.829,5.253,4.93,4.93,0,0,0,.972,4.013,4.086,4.086,0,0,0,3.289,1.328,5,5,0,0,0,3.616-1.494l-.117.726a.454.454,0,0,0,.1.366.454.454,0,0,0,.346.159h2.351a.758.758,0,0,0,.749-.64L127.24-65.3a.455.455,0,0,0-.1-.366.455.455,0,0,0-.346-.159" transform="translate(384.421 230.536)" fill="#003087"/><path d="M262.188-51.37a2.912,2.912,0,0,1-2.948,2.494,2.2,2.2,0,0,1-1.754-.705,2.217,2.217,0,0,1-.409-1.834A2.921,2.921,0,0,1,260-53.928a2.2,2.2,0,0,1,1.741.712,2.248,2.248,0,0,1,.443,1.846m3.64-5.084h-2.612a.455.455,0,0,0-.45.385l-.114.73-.183-.264a3.718,3.718,0,0,0-3.085-1.1,6.006,6.006,0,0,0-5.829,5.253,4.931,4.931,0,0,0,.973,4.013,4.086,4.086,0,0,0,3.289,1.328,5,5,0,0,0,3.616-1.494l-.117.726a.453.453,0,0,0,.1.366.453.453,0,0,0,.345.159h2.351a.759.759,0,0,0,.75-.64l1.412-8.939a.455.455,0,0,0-.1-.366.455.455,0,0,0-.346-.159" transform="translate(284.28 221.16)" fill="#009cde"/><path d="M192.377-55.974h-2.626a.755.755,0,0,0-.626.333L185.5-50.309l-1.535-5.125a.759.759,0,0,0-.726-.541h-2.58a.455.455,0,0,0-.37.19.455.455,0,0,0-.06.412l2.89,8.484L180.4-43.053a.455.455,0,0,0-.032.471.455.455,0,0,0,.4.246H183.4a.759.759,0,0,0,.622-.326l8.729-12.6a.454.454,0,0,0,.03-.47.454.454,0,0,0-.4-.244" transform="translate(332.742 220.68)" fill="#003087"/><path d="M294.659-70.489l-2.239,14.24a.455.455,0,0,0,.1.366.455.455,0,0,0,.346.159h2.251a.759.759,0,0,0,.749-.64l2.207-13.984a.454.454,0,0,0-.1-.366.454.454,0,0,0-.346-.159h-2.519a.454.454,0,0,0-.449.384" transform="translate(258.526 230.535)" fill="#009cde"/><path d="M21.251-84.284a.99.99,0,0,1,.977-.835h6.193a13.021,13.021,0,0,1,2.043.148,8.584,8.584,0,0,1,1.013.226,5.6,5.6,0,0,1,1.091.435A5.049,5.049,0,0,0,31.5-88.852c-1.178-1.341-3.3-1.916-6.027-1.916h-7.9a1.131,1.131,0,0,0-1.117.954L13.163-68.953a.678.678,0,0,0,.154.546.678.678,0,0,0,.515.238H18.71l1.225-7.77Z" transform="translate(443.234 243.693)" fill="#003087"/><path d="M42.747-71.7q-.036.232-.081.463c-1.041,5.349-4.606,7.2-9.159,7.2H31.188a1.126,1.126,0,0,0-1.112.954l-1.187,7.525-.338,2.135a.593.593,0,0,0,.135.478.593.593,0,0,0,.451.208h4.111a.99.99,0,0,0,.977-.835l.04-.21.775-4.911.049-.271a.989.989,0,0,1,.977-.835h.615c3.983,0,7.1-1.617,8.012-6.3.38-1.955.183-3.588-.823-4.735a3.926,3.926,0,0,0-1.126-.868" transform="translate(433.055 231.078)" fill="#009cde"/><path d="M44.648-73.709q-.238-.071-.492-.127c-.169-.037-.343-.07-.522-.1a12.77,12.77,0,0,0-2.043-.15H35.4a.987.987,0,0,0-.977.835L33.106-64.9l-.038.243a1.126,1.126,0,0,1,1.112-.954H36.5c4.553,0,8.118-1.849,9.159-7.2.031-.158.057-.311.081-.463a5.624,5.624,0,0,0-.856-.361c-.077-.025-.155-.049-.234-.073" transform="translate(430.063 232.658)" fill="#012169"/></g></svg>