<svg xmlns="http://www.w3.org/2000/svg" width="126" height="126" viewBox="0 0 126 126"><defs><style>.a{fill:#f69489;}.b{fill:#eef6ff;}.c{fill:#c3ddf4;}.d{fill:#293d7c;}.e{fill:#1a2b63;}.f{fill:#69cdff;}.g{fill:#52bbef;}.h{fill:#ff9518;}.i{fill:#ef8318;}.j{fill:#ffd00d;}.k{fill:#91e0e8;}.l{fill:#e26693;}.m{fill:#ffaf10;}.n{fill:#37c47a;}.o{fill:#445ea0;}.p{fill:#d9eafc;}</style></defs><circle class="a" cx="60.5" cy="60.5" r="60.5" transform="translate(5 5)"/><path class="b" d="M59.471,100a24.688,24.688,0,0,1,29.992-3.8V53.763H0v77.99a2.468,2.468,0,0,0,2.461,2.461H58.832A24.69,24.69,0,0,1,59.471,100Z" transform="translate(0 -40.532)"/><path class="c" d="M5.581,131.753V53.763H0v77.99a2.468,2.468,0,0,0,2.461,2.461H8.042A2.468,2.468,0,0,1,5.581,131.753Z" transform="translate(0 -40.532)"/><path class="d" d="M88.056,0H1.407A1.411,1.411,0,0,0,0,1.407V13.928H89.463V1.407A1.411,1.411,0,0,0,88.056,0Z"/><path class="e" d="M6.988,0H1.407A1.411,1.411,0,0,0,0,1.407V13.928H5.581V1.407A1.411,1.411,0,0,1,6.988,0Z"/><path class="f" d="M66.7,114.594a1.234,1.234,0,0,1-1.23,1.23H38.046a1.234,1.234,0,0,1-1.23-1.23V94.926a1.234,1.234,0,0,1,1.23-1.23H65.472a1.234,1.234,0,0,1,1.23,1.23v19.668h0Z" transform="translate(-27.756 -70.638)"/><path class="g" d="M42.4,114.594V94.926a1.234,1.234,0,0,1,1.23-1.23H38.046a1.234,1.234,0,0,0-1.23,1.23v19.668a1.234,1.234,0,0,0,1.23,1.23h5.581A1.234,1.234,0,0,1,42.4,114.594Z" transform="translate(-27.756 -70.638)"/><path class="h" d="M81.195,281.788H38.046a1.234,1.234,0,0,0-1.23,1.23v11.765a1.234,1.234,0,0,0,1.23,1.23H80.927A24.834,24.834,0,0,1,81.195,281.788Z" transform="translate(-27.756 -212.442)"/><path class="i" d="M42.4,294.784V283.018a1.234,1.234,0,0,1,1.23-1.23H38.046a1.234,1.234,0,0,0-1.23,1.23v11.765a1.234,1.234,0,0,0,1.23,1.23h5.581A1.234,1.234,0,0,1,42.4,294.784Z" transform="translate(-27.756 -212.442)"/><path class="j" d="M189.783,281.788H180.85v14.226h8.665A24.834,24.834,0,0,1,189.783,281.788Z" transform="translate(-136.344 -212.442)"/><g transform="translate(7.214 21.212)"><path class="k" d="M222.679,89.887H192.511a1.846,1.846,0,0,1,0-3.691h30.168a1.846,1.846,0,0,1,0,3.691Z" transform="translate(-150.958 -86.196)"/><path class="k" d="M222.679,119.86H192.511a1.846,1.846,0,0,1,0-3.691h30.168a1.846,1.846,0,0,1,0,3.691Z" transform="translate(-150.958 -108.793)"/><path class="k" d="M222.679,149.833H192.511a1.846,1.846,0,0,1,0-3.691h30.168a1.846,1.846,0,0,1,0,3.691Z" transform="translate(-150.958 -131.39)"/><path class="k" d="M222.679,179.806H192.511a1.846,1.846,0,0,1,0-3.691h30.168a1.846,1.846,0,0,1,0,3.691Z" transform="translate(-150.958 -153.986)"/><path class="k" d="M95.8,213.148H31.162a1.846,1.846,0,0,0,0,3.691H85.69A24.4,24.4,0,0,1,95.8,213.148Z" transform="translate(-29.316 -181.906)"/><path class="k" d="M81.093,243.662H31.162a1.846,1.846,0,1,0,0,3.691h47.05A24.613,24.613,0,0,1,81.093,243.662Z" transform="translate(-29.316 -204.911)"/></g><path class="l" d="M29.241,23.3a1.845,1.845,0,1,1,1.3-.539A1.866,1.866,0,0,1,29.241,23.3Z" transform="translate(-20.653 -14.784)"/><path class="m" d="M53.836,23.3a1.845,1.845,0,1,1,1.307-.542A1.852,1.852,0,0,1,53.836,23.3Z" transform="translate(-39.196 -14.784)"/><path class="n" d="M78.441,23.3a1.845,1.845,0,1,1,1.3-.539A1.855,1.855,0,0,1,78.441,23.3Z" transform="translate(-57.745 -14.784)"/><path class="o" d="M394.271,389.207l-5.058,5.059,9.951,9.951a60.686,60.686,0,0,0,5.059-5.059Z" transform="translate(-293.43 -293.426)"/><path class="d" d="M374.116,363.969l-4.192-4.192A24.8,24.8,0,0,1,359.815,369.9L364,374.086a1.234,1.234,0,0,0,1.74,0l8.377-8.377A1.234,1.234,0,0,0,374.116,363.969Z" transform="translate(-271.267 -271.238)"/><path class="e" d="M366.87,395.292l-3.578-3.578a24.586,24.586,0,0,1-3.477,2.265L364,398.163a1.234,1.234,0,0,0,1.74,0l2.871-2.871A1.234,1.234,0,0,1,366.87,395.292Z" transform="translate(-271.266 -295.316)"/><path class="o" d="M253.249,217.671a25.154,25.154,0,1,1-35.573,0A25.154,25.154,0,0,1,253.249,217.671Z" transform="translate(-158.553 -158.549)"/><path class="f" d="M270.963,270.958a17.637,17.637,0,1,1,0-24.942A17.637,17.637,0,0,1,270.963,270.958Z" transform="translate(-181.582 -181.579)"/><path class="g" d="M270.963,281.547a17.755,17.755,0,0,0,1.709-1.983A17.637,17.637,0,0,1,248,254.9a17.637,17.637,0,1,0,22.96,26.65Z" transform="translate(-181.582 -192.168)"/><path class="o" d="M175.443,0H115.912V13.928h60.937V1.407A1.411,1.411,0,0,0,175.443,0Z" transform="translate(-87.387)"/><g transform="translate(76.986 62.146)"><circle class="p" cx="2.953" cy="2.953" r="2.953"/><circle class="p" cx="2.092" cy="2.092" r="2.092" transform="translate(7.065 3.93)"/></g></svg>