<svg xmlns="http://www.w3.org/2000/svg" width="117.014" height="117.014" viewBox="0 0 117.014 117.014"><defs><style>.a{fill:#79a5ff;}.b{fill:#f7f4f0;}.c{fill:#dbd8d5;}.d{fill:#76cc7a;}.e{fill:#454a6d;}.f{fill:#eae8e5;}.g{fill:#4ac3ed;}.h{fill:#e89d43;}</style></defs><g transform="translate(-2.627 -8.126)"><path class="a" d="M128.014,75.007A58.507,58.507,0,1,1,69.507,16.5,58.507,58.507,0,0,1,128.014,75.007Z" transform="translate(-8.373 -8.374)"/><g transform="translate(4.829 10.513)"><path class="b" d="M3,93.069V3H74.688L87.555,15.867v77.2Z"/><path class="c" d="M54.867,15.867H42V3Z" transform="translate(32.688)"/><circle class="c" cx="5.5" cy="5.5" r="5.5" transform="translate(12.306 12.306)"/><circle class="c" cx="5.5" cy="5.5" r="5.5" transform="translate(30.306 12.306)"/><circle class="d" cx="5.5" cy="5.5" r="5.5" transform="translate(49.306 12.306)"/><circle class="c" cx="5.5" cy="5.5" r="5.5" transform="translate(12.306 30.306)"/><circle class="d" cx="5.5" cy="5.5" r="5.5" transform="translate(30.306 30.306)"/><circle class="c" cx="5.5" cy="5.5" r="5.5" transform="translate(49.306 30.306)"/><path class="e" d="M44,24h3.676v3.676H44Z" transform="translate(34.364 17.601)"/><path class="e" d="M44,20h3.676v3.676H44Z" transform="translate(34.364 14.248)"/><path class="e" d="M44,16h3.676v3.676H44Z" transform="translate(34.364 10.896)"/><path class="f" d="M11,33H86.364V44.029H11Z" transform="translate(6.705 25.144)"/><path class="f" d="M7,47h97.422V65.381H7Z" transform="translate(3.353 36.878)"/><path class="g" d="M10.353,59.543a9.192,9.192,0,0,1,9.191-9.191h90.069V43H19.543a16.543,16.543,0,1,0,0,33.087h90.069V68.734H19.543A9.192,9.192,0,0,1,10.353,59.543Z" transform="translate(0 33.526)"/><path class="h" d="M14.353,41.867a5.514,5.514,0,0,1,5.514-5.514H91.555V29H19.867a12.867,12.867,0,0,0,0,25.734H91.555V47.381H19.867A5.514,5.514,0,0,1,14.353,41.867Z" transform="translate(3.353 21.792)"/><g transform="translate(58.144 93.069)"><path class="c" d="M33,52H55.058v3.676H33Z" transform="translate(-33 -52)"/><path class="c" d="M47,52h3.676v3.676H47Z" transform="translate(-21.266 -52)"/><path class="c" d="M51,52h3.676v3.676H51Z" transform="translate(-17.913 -52)"/><path class="c" d="M55,52h3.676v3.676H55Z" transform="translate(-14.561 -52)"/></g><path class="e" d="M60.676,3l3.676,9.191V76.526H57V12.191Z" transform="translate(45.26)"/><path class="h" d="M57,37h7.353v3.676H57Z" transform="translate(45.26 28.497)"/></g></g></svg>