<svg xmlns="http://www.w3.org/2000/svg" width="121.165" height="126.059" viewBox="0 0 121.165 126.059"><defs><style>.a{fill:#88dd8c;}.b{fill:#445ea0;}.c{fill:#293d7c;}.d{fill:#1a2b63;}.e{fill:#c3ddf4;}.f{fill:#aec1ed;}.g{fill:#fff;}.h{fill:#d9eafc;}.i{fill:#0f9390;}.j{fill:#52bbef;}.k{fill:#85a0dd;}.l{fill:#91e0e8;}.m{fill:#5dc1d8;}.n{fill:#eef6ff;}</style></defs><g transform="translate(-9.94)"><circle class="a" cx="60.321" cy="60.321" r="60.321" transform="translate(10.462 5.417)"/><rect class="b" width="23.23" height="9.993" transform="translate(47.504 95.652)"/><path class="c" d="M163.342,433.313a1.235,1.235,0,0,1-1.231,1.231H119.617a1.235,1.235,0,0,1-1.231-1.231v-3.991a1.235,1.235,0,0,1,1.231-1.231h42.494a1.235,1.235,0,0,1,1.231,1.231v3.991Z" transform="translate(-81.746 -322.691)"/><path class="d" d="M123.271,433.313v-3.991a1.235,1.235,0,0,1,1.231-1.231h-4.885a1.235,1.235,0,0,0-1.231,1.231v3.991a1.235,1.235,0,0,0,1.231,1.231H124.5A1.235,1.235,0,0,1,123.271,433.313Z" transform="translate(-81.746 -322.691)"/><path class="c" d="M93.894,330.888H9.94v11.97A2.469,2.469,0,0,0,12.4,345.32H93.894V330.888Z" transform="translate(0 -249.42)"/><path class="d" d="M14.826,342.858v-11.97H9.94v11.97A2.469,2.469,0,0,0,12.4,345.32h4.885A2.469,2.469,0,0,1,14.826,342.858Z" transform="translate(0 -249.42)"/><path class="b" d="M105.933,105.259H96.09v26.9a2.327,2.327,0,0,0-2.312,2.328v21.842H21.627V105.259H12.3a2.371,2.371,0,0,0-2.364,2.364v53.434H93.894V134.486a2.331,2.331,0,0,1,2.328-2.328H108.3V107.623A2.37,2.37,0,0,0,105.933,105.259Z" transform="translate(0 -79.343)"/><g transform="translate(14.669 30.644)"><path class="c" d="M36.1,124.464H30.378a1.235,1.235,0,0,0-1.231,1.231v43.879a1.235,1.235,0,0,0,1.231,1.231h5.727V124.464Z" transform="translate(-29.147 -124.464)"/><path class="c" d="M366.094,124.464h-6.247v22.177c.044,0,.087-.007.132-.007h7.346V125.7A1.235,1.235,0,0,0,366.094,124.464Z" transform="translate(-278.425 -124.464)"/></g><path class="d" d="M34.032,169.574V125.7a1.235,1.235,0,0,1,1.231-1.231H30.378a1.235,1.235,0,0,0-1.231,1.231v43.879a1.235,1.235,0,0,0,1.231,1.231h4.885A1.235,1.235,0,0,1,34.032,169.574Z" transform="translate(-14.478 -93.82)"/><circle class="b" cx="2.992" cy="2.992" r="2.992" transform="translate(56.126 85.892)"/><path class="e" d="M84.061,16.13a1.1,1.1,0,0,1,1.1-1.1h28.267V1.3a1.3,1.3,0,0,0-1.3-1.3H58.2a1.3,1.3,0,0,0-1.3,1.3V76.985H84.061Z" transform="translate(-35.403)"/><path class="f" d="M63.089,0H58.2a1.3,1.3,0,0,0-1.3,1.3V76.985h4.886V1.3A1.3,1.3,0,0,1,63.089,0Z" transform="translate(-35.403)"/><path class="g" d="M211.679,100.417A2.33,2.33,0,0,1,214,98.09V61.158a1.1,1.1,0,0,0-1.1-1.1H167.293a1.1,1.1,0,0,0-1.1,1.1v61.1h45.482V100.417Z" transform="translate(-117.785 -45.274)"/><path class="h" d="M172.179,60.062h-4.886a1.1,1.1,0,0,0-1.1,1.1v61.1h4.885v-61.1A1.1,1.1,0,0,1,172.179,60.062Z" transform="translate(-117.785 -45.274)"/><path class="i" d="M194.119,135.57a1.846,1.846,0,0,1-1.389-.63l-2.954-3.375a1.847,1.847,0,0,1,2.779-2.433l1.565,1.788,2.488-2.842a1.847,1.847,0,1,1,2.779,2.433l-3.878,4.43A1.846,1.846,0,0,1,194.119,135.57Z" transform="translate(-135.213 -96.068)"/><g transform="translate(67.051 31.168)"><path class="j" d="M263.524,130.284H243.747a1.847,1.847,0,1,1,0-3.693h19.777a1.847,1.847,0,1,1,0,3.693Z" transform="translate(-241.9 -126.591)"/><path class="j" d="M263.524,150.846H243.747a1.847,1.847,0,0,1,0-3.693h19.777a1.847,1.847,0,1,1,0,3.693Z" transform="translate(-241.9 -142.09)"/></g><path class="i" d="M194.119,197.257a1.847,1.847,0,0,1-1.389-.63l-2.954-3.375a1.847,1.847,0,0,1,2.779-2.433l1.565,1.788,2.488-2.842a1.847,1.847,0,1,1,2.779,2.433l-3.878,4.429A1.846,1.846,0,0,1,194.119,197.257Z" transform="translate(-135.213 -142.568)"/><g transform="translate(67.051 46.355)"><path class="j" d="M263.524,191.969H243.747a1.847,1.847,0,1,1,0-3.693h19.777a1.847,1.847,0,1,1,0,3.693Z" transform="translate(-241.9 -188.276)"/><path class="j" d="M263.524,212.532H243.747a1.847,1.847,0,1,1,0-3.693h19.777a1.847,1.847,0,1,1,0,3.693Z" transform="translate(-241.9 -203.776)"/></g><path class="i" d="M194.119,258.942h0a1.847,1.847,0,0,1-1.389-.63l-2.954-3.375a1.847,1.847,0,1,1,2.779-2.433l1.565,1.788,2.488-2.842a1.847,1.847,0,1,1,2.779,2.433l-3.878,4.429A1.846,1.846,0,0,1,194.119,258.942Z" transform="translate(-135.213 -189.065)"/><g transform="translate(67.051 61.543)"><path class="j" d="M263.524,253.655H243.747a1.847,1.847,0,0,1,0-3.693h19.777a1.847,1.847,0,1,1,0,3.693Z" transform="translate(-241.9 -249.962)"/><path class="j" d="M256.253,274.217H243.746a1.847,1.847,0,0,1,0-3.693h12.508a1.847,1.847,0,0,1,0,3.693Z" transform="translate(-241.899 -265.461)"/></g><g transform="translate(26.826 15.477)"><path class="b" d="M94.777,66.553H80.369a1.847,1.847,0,1,1,0-3.693H94.777a1.847,1.847,0,1,1,0,3.693Z" transform="translate(-78.522 -62.86)"/><path class="b" d="M94.777,87.4H80.369a1.847,1.847,0,1,1,0-3.693H94.777a1.847,1.847,0,1,1,0,3.693Z" transform="translate(-78.522 -78.571)"/><path class="b" d="M94.777,108.239H80.369a1.847,1.847,0,1,1,0-3.693H94.777a1.847,1.847,0,1,1,0,3.693Z" transform="translate(-78.522 -94.283)"/><path class="b" d="M94.777,147.731H80.369a1.847,1.847,0,0,1,0-3.693H94.777a1.847,1.847,0,1,1,0,3.693Z" transform="translate(-78.522 -124.051)"/><path class="b" d="M94.777,168.575H80.369a1.847,1.847,0,0,1,0-3.693H94.777a1.847,1.847,0,1,1,0,3.693Z" transform="translate(-78.522 -139.763)"/><path class="b" d="M94.777,189.419H80.369a1.847,1.847,0,0,1,0-3.693H94.777a1.847,1.847,0,1,1,0,3.693Z" transform="translate(-78.522 -155.475)"/><path class="b" d="M94.777,228.911H80.369a1.847,1.847,0,1,1,0-3.693H94.777a1.847,1.847,0,1,1,0,3.693Z" transform="translate(-78.522 -185.244)"/><path class="b" d="M94.777,249.753H80.369a1.847,1.847,0,1,1,0-3.693H94.777a1.847,1.847,0,1,1,0,3.693Z" transform="translate(-78.522 -200.954)"/><path class="b" d="M94.777,270.6H80.369a1.847,1.847,0,1,1,0-3.693H94.777a1.847,1.847,0,1,1,0,3.693Z" transform="translate(-78.522 -216.666)"/><path class="b" d="M237.1,86.192H217.192a1.847,1.847,0,0,1,0-3.693H237.1a1.847,1.847,0,1,1,0,3.693Z" transform="translate(-181.658 -77.664)"/></g><path class="f" d="M380.689,270.222a2.582,2.582,0,0,1-2.574,2.574H352.5a2.582,2.582,0,0,1-2.574-2.574V216.086a2.582,2.582,0,0,1,2.574-2.574h25.613a2.582,2.582,0,0,1,2.574,2.574v54.136Z" transform="translate(-256.279 -160.943)"/><path class="k" d="M354.812,270.222V216.086a2.582,2.582,0,0,1,2.574-2.574H352.5a2.582,2.582,0,0,0-2.574,2.574v54.136A2.582,2.582,0,0,0,352.5,272.8h4.885A2.582,2.582,0,0,1,354.812,270.222Z" transform="translate(-256.279 -160.943)"/><path class="b" d="M391.485,413.15v2.9a1.235,1.235,0,0,0,1.231,1.231h7.835a1.235,1.235,0,0,0,1.231-1.231v-2.9Z" transform="translate(-287.605 -311.429)"/><rect class="l" width="30.761" height="41.058" transform="translate(93.649 60.91)"/><rect class="m" width="4.885" height="41.058" transform="translate(93.649 60.91)"/><path class="b" d="M397.721,226.422h-8.753a1.847,1.847,0,1,1,0-3.693h8.753a1.847,1.847,0,1,1,0,3.693Z" transform="translate(-284.316 -167.891)"/><g transform="translate(97.593 64.666)"><path class="n" d="M388.863,272.483a1.235,1.235,0,0,1-1.231,1.231h-20.45a1.235,1.235,0,0,1-1.231-1.231v-8.607a1.235,1.235,0,0,1,1.231-1.231h20.45a1.235,1.235,0,0,1,1.231,1.231v8.607Z" transform="translate(-365.951 -262.645)"/><path class="n" d="M383.038,321.029H367.973a1.847,1.847,0,0,1,0-3.693h15.065a1.847,1.847,0,1,1,0,3.693Z" transform="translate(-366.083 -303.871)"/><path class="n" d="M383.038,343.144H367.973a1.847,1.847,0,0,1,0-3.693h15.065a1.847,1.847,0,1,1,0,3.693Z" transform="translate(-366.083 -320.541)"/><path class="n" d="M383.038,365.258H367.973a1.847,1.847,0,0,1,0-3.693h15.065a1.847,1.847,0,1,1,0,3.693Z" transform="translate(-366.083 -337.21)"/></g><g transform="translate(97.594 64.666)"><path class="h" d="M370.837,272.483v-8.607a1.235,1.235,0,0,1,1.231-1.231h-4.885a1.235,1.235,0,0,0-1.231,1.231v8.607a1.235,1.235,0,0,0,1.231,1.231h4.885A1.235,1.235,0,0,1,370.837,272.483Z" transform="translate(-365.952 -262.645)"/><path class="h" d="M371.011,319.183a1.846,1.846,0,0,1,1.847-1.847h-4.885a1.847,1.847,0,0,0,0,3.693h4.885A1.847,1.847,0,0,1,371.011,319.183Z" transform="translate(-366.083 -303.871)"/><path class="h" d="M371.011,341.3a1.846,1.846,0,0,1,1.847-1.847h-4.885a1.847,1.847,0,0,0,0,3.693h4.885A1.846,1.846,0,0,1,371.011,341.3Z" transform="translate(-366.083 -320.541)"/><path class="h" d="M371.011,363.412a1.847,1.847,0,0,1,1.847-1.847h-4.885a1.847,1.847,0,0,0,0,3.693h4.885A1.846,1.846,0,0,1,371.011,363.412Z" transform="translate(-366.083 -337.21)"/></g><path class="g" d="M125.086,26.678a1.235,1.235,0,0,1-1.231,1.231H79.291a1.235,1.235,0,0,1-1.231-1.231V23.231A1.235,1.235,0,0,1,79.291,22h44.564a1.235,1.235,0,0,1,1.231,1.231Z" transform="translate(-51.348 -16.583)"/></g></svg>