<svg xmlns="http://www.w3.org/2000/svg" width="1806.701" height="1677.197" viewBox="0 0 1806.701 1677.197"><path d="M268.667,541.224c4.814,92.961,67.737,175.886,65.573,275.906-1.52,70.462,31.873,123.252,94.1,155.987,171.735,90.348,294.929-30.7,408.39-40.585,141.422-12.312,180.34,155.992,299.987,229.565,141.5,87.005,300.374-2.053,351.773-145.271,53.039-147.8-73.422-254.309,20.624-336.638,87.356-76.485,256.358-108.473,261.834-282.324,3.538-91.2-43.683-165.726-121.914-214.173C1367.77,9.507,1124.2,293.636,992.063,73.5,938.828-15.17,908.4-126.776,789.277-116.78,648.966-105.006,600.341,70.7,557.712,187.687,487.641,379.961,259.009,354.635,268.667,541.224Z" transform="translate(1734.883 1638.311) rotate(-164)" fill="#67bc6b"/></svg>