<svg xmlns="http://www.w3.org/2000/svg" width="1927.175" height="109.689" viewBox="0 0 1927.175 109.689"><g transform="translate(6.848 -1093)"><path d="M168,291.7s26.475,77.972,149.311,77.972,117.542-30.393,180.019-30.393,82.6,51.539,166.254,30.393,154.605-48.9,223.437-27.749S999.269,389.5,1089.278,389.5s123.9-71.365,123.9-71.365V279.809H168Z" transform="translate(707.152 813.191)" fill="#6cc570"/><path d="M168,291.7s26.475,77.972,149.311,77.972,117.542-30.393,180.019-30.393,82.6,51.539,166.254,30.393,154.605-48.9,223.437-27.749S999.269,389.5,1089.278,389.5s123.9-71.365,123.9-71.365V279.809H168Z" transform="translate(-174.848 813.191)" fill="#6cc570"/></g></svg>