<svg xmlns="http://www.w3.org/2000/svg" width="72.104" height="104.189" viewBox="0 0 72.104 104.189"><defs><style>.a{fill:#ff525d;}.b{fill:#ef4152;}.c{fill:#ffd15c;}.d{fill:#5c5e70;}</style></defs><g transform="translate(0 0)"><path class="a" d="M148.115,247.5H93.776a7.335,7.335,0,0,0-7.335,7.335V292.44a7.335,7.335,0,0,0,7.335,7.334h54.34a7.334,7.334,0,0,0,7.335-7.334V254.832A7.335,7.335,0,0,0,148.115,247.5Z" transform="translate(-84.893 -197.133)"/><path class="b" d="M92.837,292.44V254.832a7.335,7.335,0,0,1,7.335-7.335h-6.4a7.335,7.335,0,0,0-7.335,7.335V292.44a7.335,7.335,0,0,0,7.335,7.335h6.4A7.335,7.335,0,0,1,92.837,292.44Z" transform="translate(-84.893 -197.133)"/><path class="c" d="M170,7.6h0a21.971,21.971,0,0,0-21.971,21.971V56.421h8.252V29.575a13.719,13.719,0,1,1,27.438,0V56.421h8.253V29.575A21.971,21.971,0,0,0,170,7.6Z" transform="translate(-133.949 -6.057)"/><path class="d" d="M235.558,329.027a7.015,7.015,0,1,0-10.3,6.2v8.735h6.563v-8.735A7.014,7.014,0,0,0,235.558,329.027Z" transform="translate(-192.491 -256.484)"/><path d="M142.058,48.817h-3.651v-25.3a23.519,23.519,0,0,0-47.038,0v25.3H87.718A8.892,8.892,0,0,0,78.836,57.7V67a1.547,1.547,0,0,0,3.095,0V57.7a5.794,5.794,0,0,1,5.787-5.787h54.339a5.794,5.794,0,0,1,5.787,5.787V95.307a5.794,5.794,0,0,1-5.787,5.787H87.718a5.794,5.794,0,0,1-5.787-5.787V72.163a1.547,1.547,0,0,0-3.095,0V95.307a8.892,8.892,0,0,0,8.882,8.882h54.34a8.892,8.892,0,0,0,8.882-8.882V57.7A8.892,8.892,0,0,0,142.058,48.817Zm-11.9,0V35.026a1.547,1.547,0,1,0-3.095,0V48.817H102.716v-25.3a12.172,12.172,0,1,1,24.343,0v6.349a1.547,1.547,0,1,0,3.095,0V23.519a15.266,15.266,0,1,0-30.532,0v25.3H94.464v-25.3a20.424,20.424,0,1,1,40.848,0v25.3Z" transform="translate(-78.836 0)"/><path d="M219.205,339.454h6.563a1.548,1.548,0,0,0,1.547-1.547v-7.864a8.563,8.563,0,1,0-9.657,0v7.864A1.547,1.547,0,0,0,219.205,339.454Zm-2.187-16.483a5.468,5.468,0,1,1,8.024,4.834,1.547,1.547,0,0,0-.822,1.367v7.188h-3.468v-7.188a1.547,1.547,0,0,0-.822-1.367A5.461,5.461,0,0,1,217.019,322.971Z" transform="translate(-186.434 -250.429)"/></g></svg>