<svg xmlns="http://www.w3.org/2000/svg" width="96.994" height="96.984" viewBox="0 0 96.994 96.984"><g transform="translate(0 0)"><path d="M291.173,16.9h-49.1s0,46.2,19.219,56.89a7.162,7.162,0,0,1,3.641,6.27h9.868a7.162,7.162,0,0,1,3.641-6.27,21.188,21.188,0,0,0,5.595-4.623c9.737-11.106,12.515-33.033,13.307-44.642.316-4.634.317-7.625.317-7.625h-6.493Z" transform="translate(-221.374 -15.456)" fill="#fece00"/><path d="M16.847,95.328c.207-17.615,19.575-9.455,19.575-9.455.121,1.776.289,3.795.522,5.978-5.1-1.835-15.98-4.536-14.452,6.588,1.551,11.289,6.475,19.094,13.03,23.3a18.118,18.118,0,0,0,10.013,2.628,33.557,33.557,0,0,0,4.2,6.144h0a25.618,25.618,0,0,1-16.443-3.4C25.646,122.513,16.644,112.641,16.847,95.328Z" transform="translate(-15.403 -76.808)" fill="#eebf00"/><rect width="9.868" height="8.75" transform="translate(43.564 71.21)" fill="#fece00"/><rect width="10.033" height="3.431" transform="translate(43.401 71.21)" fill="#ddb201"/><rect width="40.838" height="9.274" transform="translate(28.079 86.27)" fill="#3e3d43"/><rect width="40.838" height="3.57" transform="translate(28.079 91.973)" fill="#444"/><rect width="25.457" height="6.308" transform="translate(35.77 79.96)" fill="#77767e"/><rect width="25.457" height="3.154" transform="translate(35.77 83.114)" fill="#3e3d43"/><path d="M482.315,762.015h-10.2a3.3,3.3,0,0,1-3.3-3.3h0a3.3,3.3,0,0,1,3.3-3.3h10.2a3.3,3.3,0,0,1,3.3,3.3h0A3.3,3.3,0,0,1,482.315,762.015Z" transform="translate(-428.719 -690.805)" fill="#cba400"/><path d="M571.7,16.9s0,2.991-.317,7.625c-.793,11.609-3.571,33.536-13.308,44.642a21.192,21.192,0,0,1-5.595,4.623,7.161,7.161,0,0,0-3.641,6.27h6.493a7.162,7.162,0,0,1,3.641-6.27,21.186,21.186,0,0,0,5.595-4.623c9.737-11.106,12.515-33.033,13.307-44.642.316-4.634.317-7.625.317-7.625Z" transform="translate(-501.899 -15.46)" fill="#ddb201"/><path d="M266.03,73.791C246.812,63.1,246.811,16.9,246.811,16.9h-4.734s0,46.2,19.219,56.89a7.162,7.162,0,0,1,3.641,6.27h3.376A7.275,7.275,0,0,1,268.992,77,7.053,7.053,0,0,0,266.03,73.791Z" transform="translate(-221.374 -15.46)" fill="#feda44"/><path d="M765.63,95.328c-.207-17.615-19.575-9.455-19.575-9.455-.121,1.776-.289,3.795-.522,5.978,5.1-1.835,15.98-4.537,14.452,6.588-1.55,11.289-6.474,19.094-13.03,23.3a18.117,18.117,0,0,1-10.013,2.628,33.554,33.554,0,0,1-4.2,6.144h0a25.618,25.618,0,0,0,16.443-3.4C756.832,122.513,765.833,112.641,765.63,95.328Z" transform="translate(-670.08 -76.808)" fill="#eebf00"/><g transform="translate(16.494 7.706)"><path d="M194.054,96.353a33.831,33.831,0,0,1,3.854,1.144c-.232-2.184-.4-4.2-.522-5.978a27.9,27.9,0,0,0-4.525-1.359C193.333,92.211,193.779,94.268,194.054,96.353Z" transform="translate(-192.861 -90.16)" fill="#cba400"/><path d="M303.531,551.6a20.137,20.137,0,0,1-4.562-.429c.174.478.349.957.533,1.433a54.877,54.877,0,0,0,2.929,5.278,22.1,22.1,0,0,0,5.3-.137h0A33.57,33.57,0,0,1,303.531,551.6Z" transform="translate(-289.895 -511.743)" fill="#cba400"/><path d="M886.1,96.353a33.826,33.826,0,0,0-3.854,1.144c.232-2.184.4-4.2.521-5.978A27.9,27.9,0,0,1,887.3,90.16C886.824,92.211,886.377,94.268,886.1,96.353Z" transform="translate(-823.29 -90.16)" fill="#cba400"/><path d="M736.947,551.6a20.137,20.137,0,0,0,4.562-.429c-.174.478-.349.957-.533,1.433a54.9,54.9,0,0,1-2.929,5.278,22.1,22.1,0,0,1-5.3-.137h0A33.585,33.585,0,0,0,736.947,551.6Z" transform="translate(-686.578 -511.743)" fill="#cba400"/></g><path d="M505.277,827.479H492.528V815.848h12.749Zm-9.868-2.881H502.4v-5.869h-6.987V824.6Z" transform="translate(-450.405 -746.078)"/><path d="M466.912,748.05h-10.2a4.745,4.745,0,1,1,0-9.491h10.2a4.745,4.745,0,1,1,0,9.491Zm-10.2-6.61a1.864,1.864,0,1,0,0,3.729h10.2a1.864,1.864,0,0,0,0-3.729Z" transform="translate(-413.316 -675.4)"/><path d="M429.735,927.349H401.4V918.16h28.337Zm-25.456-2.881h22.575V921.04H404.279Z" transform="translate(-367.069 -839.64)"/><path d="M355.186,1004.079h-43.72V991.923h43.72v12.156Zm-40.839-2.881h37.958V994.8H314.348Z" transform="translate(-284.829 -907.095)"/><path d="M260.843,66.1H248.094v-1.44a5.718,5.718,0,0,0-2.9-5.012c-4.655-2.59-8.6-7.318-11.717-14.053a82.71,82.71,0,0,1-5.815-19.4,152.819,152.819,0,0,1-2.427-24.7V.058H283.7V1.5c0,.124,0,3.093-.32,7.723-.827,12.114-3.7,34.134-13.661,45.493a22.686,22.686,0,0,1-5.977,4.932,5.717,5.717,0,0,0-2.9,5.012V66.1Zm-9.987-2.881h7.226a8.566,8.566,0,0,1,4.262-6.088,19.822,19.822,0,0,0,5.212-4.314c9.4-10.723,12.151-32.039,12.953-43.79.181-2.658.258-4.781.29-6.086H228.141c.206,7.818,2.055,45.067,18.453,54.191A8.567,8.567,0,0,1,250.856,63.218Z" transform="translate(-205.971 -0.058)"/><path d="M706.5,116.783h0a20.437,20.437,0,0,1-3.429-.25l-2.487-.463,1.668-1.9a32.215,32.215,0,0,0,4.012-5.881l.418-.771.877.018q.18,0,.373,0a16.445,16.445,0,0,0,8.832-2.4c6.591-4.232,10.988-12.147,12.381-22.287.335-2.435.039-4.2-.878-5.254-.8-.915-2.166-1.38-4.066-1.38a24.18,24.18,0,0,0-7.592,1.6l-2.163.779.243-2.286c.208-1.962.382-3.955.517-5.924l.06-.885.817-.344a28.182,28.182,0,0,1,9.712-2c7.553,0,11.766,4.534,11.863,12.766a39.541,39.541,0,0,1-5.489,21.427,34.67,34.67,0,0,1-11.648,11.607A27.242,27.242,0,0,1,706.5,116.783Zm-.359-2.884.358,0h0a24.356,24.356,0,0,0,12.533-3.422c4.807-2.893,15.964-11.659,15.743-30.532-.079-6.675-3.017-9.919-8.982-9.919a24.962,24.962,0,0,0-7.782,1.469c-.072.965-.152,1.934-.242,2.9A23.657,23.657,0,0,1,724.2,73.33c2.769,0,4.868.8,6.237,2.367,1.489,1.707,2.014,4.244,1.561,7.539a40.577,40.577,0,0,1-4.818,14.831,27.276,27.276,0,0,1-8.861,9.488,19.156,19.156,0,0,1-9.943,2.856A37.429,37.429,0,0,1,706.141,113.9Z" transform="translate(-640.666 -61.41)"/><path d="M31.16,116.779a27.241,27.241,0,0,1-14.02-3.835A34.667,34.667,0,0,1,5.492,101.336,39.545,39.545,0,0,1,0,79.909c.1-8.232,4.309-12.766,11.863-12.766a28.178,28.178,0,0,1,9.712,2l.817.344.06.885c.135,1.975.309,3.968.517,5.924l.243,2.286L21.051,77.8a24.186,24.186,0,0,0-7.592-1.6c-1.9,0-3.268.464-4.066,1.379-.917,1.052-1.213,2.82-.879,5.254C9.907,92.981,14.3,100.9,20.9,105.128a16.446,16.446,0,0,0,8.832,2.4q.194,0,.373,0l.877-.018.418.771a32.211,32.211,0,0,0,4.012,5.881l.357.407v.542c0,.375-.141,1.268-1.451,1.46-.211.031-.444.06-.692.085A23.947,23.947,0,0,1,31.16,116.779ZM11.865,70.024c-5.966,0-8.9,3.245-8.982,9.919-.222,18.873,10.935,27.64,15.742,30.532A24.357,24.357,0,0,0,31.16,113.9l.358,0a37.444,37.444,0,0,1-2.236-3.487,19.156,19.156,0,0,1-9.943-2.856,27.282,27.282,0,0,1-8.861-9.488A40.568,40.568,0,0,1,5.661,83.232c-.453-3.3.073-5.832,1.561-7.539,1.369-1.571,3.468-2.367,6.237-2.367a23.651,23.651,0,0,1,6.429,1.067c-.089-.965-.17-1.934-.241-2.9A24.953,24.953,0,0,0,11.865,70.024Z" transform="translate(0.001 -61.406)"/><rect width="55.465" height="2.881" transform="translate(20.704 4.844)"/><g transform="translate(27.448 30.67)"><path d="M400.576,550.385a25.664,25.664,0,0,1-2.624-3.367l2.406-1.585a22.766,22.766,0,0,0,2.327,2.989Z" transform="translate(-391.365 -529.46)" fill="#fff"/><path d="M326.42,374.415a56.143,56.143,0,0,1-5.481-15.109l2.809-.641a53.319,53.319,0,0,0,5.177,14.327Z" transform="translate(-320.938 -358.665)" fill="#fff"/></g><rect width="7.746" height="2.881" transform="translate(81.611 57.863) rotate(89.961)"/><rect width="2.881" height="7.746" transform="translate(84.049 60.294) rotate(89.963)"/><rect width="2.881" height="6.962" transform="translate(16.427 73.146)"/><rect width="6.962" height="2.881" transform="translate(14.387 75.186)"/><rect width="2.718" height="2.881" transform="translate(9.253 54.584)"/><rect width="2.718" height="2.881" transform="translate(26.719 63.107)"/><rect width="2.718" height="2.881" transform="translate(70.52 71.774)"/></g></svg>