<svg xmlns="http://www.w3.org/2000/svg" width="114.071" height="114.07" viewBox="0 0 114.071 114.07"><g transform="translate(0 0)"><path d="M67.235,63.727a28.406,28.406,0,0,1-1.466,5.483L71.722,74.6a35.888,35.888,0,0,1-2.882,5.031L61.2,77.17A28.6,28.6,0,0,1,57.168,81.2l2.464,7.643A36.077,36.077,0,0,1,54.6,91.722l-5.394-5.953a28.368,28.368,0,0,1-5.483,1.466l-1.7,7.863c-.96.076-1.924.146-2.9.146s-1.945-.07-2.907-.146l-1.7-7.863a28.4,28.4,0,0,1-5.483-1.466l-5.394,5.953a35.888,35.888,0,0,1-5.031-2.882L21.075,81.2a28.686,28.686,0,0,1-4.027-4.027L9.405,79.634A36.078,36.078,0,0,1,6.523,74.6l5.953-5.394a28.368,28.368,0,0,1-1.466-5.483l-7.863-1.7C3.07,61.067,3,60.1,3,59.122s.07-1.945.146-2.907l7.863-1.7a28.405,28.405,0,0,1,1.466-5.483L6.523,43.641a35.889,35.889,0,0,1,2.882-5.031l7.643,2.464a28.6,28.6,0,0,1,4.029-4.027l-2.464-7.643a36.079,36.079,0,0,1,5.031-2.882l5.394,5.953A28.368,28.368,0,0,1,34.52,31.01l1.7-7.863c.96-.076,1.924-.146,2.9-.146s1.945.07,2.907.146l1.7,7.863a28.405,28.405,0,0,1,5.483,1.466L54.6,26.523a35.888,35.888,0,0,1,5.031,2.882L57.17,37.048A28.6,28.6,0,0,1,61.2,41.076l7.643-2.464a36.078,36.078,0,0,1,2.882,5.031l-5.953,5.394a28.37,28.37,0,0,1,1.466,5.483l7.863,1.7c.076.96.146,1.924.146,2.9s-.07,1.945-.146,2.907ZM39.122,40.111A19.012,19.012,0,1,0,58.134,59.122,19.011,19.011,0,0,0,39.122,40.111Z" transform="translate(-1.099 16.924)" fill="#454a6d"/><path d="M67.474,28.3a15.237,15.237,0,0,1-1.162,2.814l3,5.753a21.01,21.01,0,0,1-3.451,3.451l-5.753-3A14.979,14.979,0,0,1,57.3,38.472l-1.947,6.2a20.66,20.66,0,0,1-2.437.156,21.016,21.016,0,0,1-2.435-.154l-1.947-6.2a15.107,15.107,0,0,1-2.814-1.162l-5.753,3a21.01,21.01,0,0,1-3.451-3.451l3-5.753A14.98,14.98,0,0,1,38.354,28.3l-6.2-1.947A20.661,20.661,0,0,1,32,23.913a21.012,21.012,0,0,1,.154-2.435l6.2-1.947a15.107,15.107,0,0,1,1.162-2.814l-3-5.753a21.01,21.01,0,0,1,3.451-3.451l5.753,3a14.98,14.98,0,0,1,2.814-1.162l1.947-6.2A20.66,20.66,0,0,1,52.913,3a21.015,21.015,0,0,1,2.435.154l1.947,6.2a15.107,15.107,0,0,1,2.814,1.162l5.753-3a21.01,21.01,0,0,1,3.451,3.451l-3,5.753a14.98,14.98,0,0,1,1.162,2.814l6.2,1.947a20.665,20.665,0,0,1,.156,2.437,21.021,21.021,0,0,1-.154,2.435ZM52.913,16.308a7.6,7.6,0,1,0,7.6,7.6A7.605,7.605,0,0,0,52.913,16.308Z" transform="translate(25.035 -1.1)" fill="#e89d43"/><path d="M72.923,48.668a13.233,13.233,0,0,1-1.234,2.989l1.892,3.981a17.244,17.244,0,0,1-2.943,2.943l-3.981-1.892a13.2,13.2,0,0,1-2.989,1.234l-1.479,4.16a15.625,15.625,0,0,1-4.156,0l-1.479-4.16a13.232,13.232,0,0,1-2.989-1.234L49.584,58.58a17.244,17.244,0,0,1-2.943-2.943l1.892-3.981A13.217,13.217,0,0,1,47.3,48.67l-4.16-1.479a15.639,15.639,0,0,1,0-4.158l4.16-1.479a13.181,13.181,0,0,1,1.234-2.987l-1.892-3.981a17.244,17.244,0,0,1,2.943-2.943l3.981,1.892A13.2,13.2,0,0,1,56.554,32.3l1.479-4.16A16.655,16.655,0,0,1,60.111,28a17.027,17.027,0,0,1,2.078.139l1.479,4.16a13.233,13.233,0,0,1,2.989,1.234l3.981-1.892a17.244,17.244,0,0,1,2.943,2.943l-1.892,3.981a13.2,13.2,0,0,1,1.234,2.989l4.16,1.479a15.625,15.625,0,0,1,0,4.156ZM60.111,39.407a5.7,5.7,0,1,0,5.7,5.7A5.7,5.7,0,0,0,60.111,39.407Z" transform="translate(34.948 21.43)" fill="#4ac3ed"/><g transform="translate(0 0)"><path d="M2.152,63.067a1.9,1.9,0,0,0,1.494,1.707l6.626,1.43a30.035,30.035,0,0,0,.89,3.331L6.146,74.079A1.9,1.9,0,0,0,5.707,76.3,38.016,38.016,0,0,0,8.742,81.6a1.9,1.9,0,0,0,2.146.728l6.439-2.074a30.464,30.464,0,0,0,2.453,2.453l-2.074,6.439a1.9,1.9,0,0,0,.728,2.146,38.016,38.016,0,0,0,5.295,3.034,1.9,1.9,0,0,0,2.226-.439L30.5,88.872a30.607,30.607,0,0,0,3.333.89l1.43,6.626a1.9,1.9,0,0,0,1.705,1.494c1.011.08,2.025.152,3.057.152s2.046-.072,3.057-.152a1.9,1.9,0,0,0,1.707-1.494l1.43-6.626a30.071,30.071,0,0,0,3.333-.89l4.544,5.015a1.9,1.9,0,0,0,2.226.439,38.207,38.207,0,0,0,5.295-3.034,1.9,1.9,0,0,0,.728-2.146l-2.074-6.439a30.757,30.757,0,0,0,2.453-2.451l6.439,2.074a1.9,1.9,0,0,0,2.146-.728,38.018,38.018,0,0,0,3.034-5.295A1.9,1.9,0,0,0,73.9,74.08l-5.015-4.544a30.607,30.607,0,0,0,.89-3.333l6.626-1.43A1.9,1.9,0,0,0,77.9,63.069c.078-1.013.15-2.027.15-3.059s-.072-2.046-.152-3.057A1.9,1.9,0,0,0,76.4,55.245l-6.626-1.43a30.067,30.067,0,0,0-.89-3.333L73.9,45.939a1.9,1.9,0,0,0,.439-2.226,38.208,38.208,0,0,0-3.034-5.295,1.9,1.9,0,0,0-2.146-.728L62.72,39.764a30.459,30.459,0,0,0-2.453-2.453l2.074-6.439a1.9,1.9,0,0,0-.728-2.146,38.016,38.016,0,0,0-5.295-3.034,1.9,1.9,0,0,0-2.226.439l-4.544,5.015a30.606,30.606,0,0,0-3.333-.89l-1.43-6.626a1.9,1.9,0,0,0-1.705-1.494,38.641,38.641,0,0,0-6.116,0,1.9,1.9,0,0,0-1.707,1.494l-1.43,6.626a30.035,30.035,0,0,0-3.331.89l-4.544-5.015a1.9,1.9,0,0,0-2.226-.439,38.016,38.016,0,0,0-5.295,3.034,1.9,1.9,0,0,0-.728,2.146l2.074,6.439a30.461,30.461,0,0,0-2.453,2.453L10.888,37.69a1.9,1.9,0,0,0-2.146.728,38.016,38.016,0,0,0-3.034,5.295,1.9,1.9,0,0,0,.439,2.226l5.015,4.544a30.607,30.607,0,0,0-.89,3.333l-6.626,1.43a1.9,1.9,0,0,0-1.494,1.705C2.072,57.964,2,58.977,2,60.01s.072,2.046.152,3.057Zm3.69-4.405,6.468-1.4a1.9,1.9,0,0,0,1.475-1.553A26.5,26.5,0,0,1,15.152,50.6a1.9,1.9,0,0,0-.5-2.082L9.766,44.087c.426-.816.871-1.6,1.331-2.337l6.266,2.019a1.908,1.908,0,0,0,2.055-.6A26.732,26.732,0,0,1,23.179,39.4a1.9,1.9,0,0,0,.6-2.055l-2.019-6.266q1.109-.693,2.337-1.331l4.426,4.886a1.9,1.9,0,0,0,2.084.5,26.377,26.377,0,0,1,5.114-1.367A1.9,1.9,0,0,0,37.278,32.3l1.4-6.468a25.038,25.038,0,0,1,2.7,0l1.4,6.468a1.9,1.9,0,0,0,1.553,1.475,26.5,26.5,0,0,1,5.116,1.367,1.9,1.9,0,0,0,2.082-.5l4.426-4.884c.816.426,1.6.871,2.337,1.331l-2.019,6.266a1.9,1.9,0,0,0,.6,2.055,26.731,26.731,0,0,1,3.761,3.761,1.894,1.894,0,0,0,2.055.6l6.266-2.019q.693,1.109,1.331,2.335l-4.886,4.426a1.9,1.9,0,0,0-.5,2.084,26.377,26.377,0,0,1,1.367,5.114,1.9,1.9,0,0,0,1.475,1.553l6.468,1.4c.025.447.042.9.042,1.35s-.015.9-.04,1.348l-6.468,1.4a1.9,1.9,0,0,0-1.475,1.553,26.5,26.5,0,0,1-1.367,5.116,1.9,1.9,0,0,0,.5,2.082l4.884,4.426c-.426.816-.871,1.6-1.331,2.337L62.684,76.25a1.893,1.893,0,0,0-2.055.6,26.833,26.833,0,0,1-3.761,3.761,1.9,1.9,0,0,0-.6,2.053l2.019,6.266q-1.109.693-2.335,1.331l-4.426-4.886a1.908,1.908,0,0,0-2.084-.5,26.377,26.377,0,0,1-5.114,1.367,1.9,1.9,0,0,0-1.553,1.475l-1.4,6.468a25.038,25.038,0,0,1-2.7,0l-1.4-6.468a1.9,1.9,0,0,0-1.553-1.475,26.5,26.5,0,0,1-5.116-1.367,1.9,1.9,0,0,0-2.082.5L24.1,90.263c-.816-.426-1.6-.871-2.337-1.331l2.019-6.266a1.9,1.9,0,0,0-.6-2.055,26.732,26.732,0,0,1-3.761-3.761,1.9,1.9,0,0,0-2.055-.6L11.1,78.265q-.693-1.109-1.331-2.337L14.654,71.5a1.9,1.9,0,0,0,.5-2.084A26.376,26.376,0,0,1,13.789,64.3a1.9,1.9,0,0,0-1.475-1.553L5.842,61.36c-.023-.447-.04-.9-.04-1.35S5.818,59.107,5.842,58.662Z" transform="translate(-2 16.036)" fill="#0d1030"/><path d="M75.143,29.063a1.9,1.9,0,0,0,1.318-1.6,22.357,22.357,0,0,0,.167-2.654,22.743,22.743,0,0,0-.165-2.654,1.9,1.9,0,0,0-1.318-1.6l-5.272-1.656q-.237-.647-.525-1.27l2.555-4.9a1.905,1.905,0,0,0-.194-2.059,23.018,23.018,0,0,0-3.762-3.762,1.906,1.906,0,0,0-2.059-.2l-4.9,2.555q-.622-.285-1.27-.523L58.063,3.486a1.9,1.9,0,0,0-1.6-1.318,21.032,21.032,0,0,0-5.31,0,1.9,1.9,0,0,0-1.6,1.318L47.907,8.758q-.647.237-1.27.525l-4.9-2.555a1.91,1.91,0,0,0-2.059.194,23.019,23.019,0,0,0-3.762,3.762,1.9,1.9,0,0,0-.2,2.059l2.553,4.9q-.285.622-.523,1.27l-5.272,1.656a1.9,1.9,0,0,0-1.318,1.6,21.376,21.376,0,0,0,0,5.308,1.9,1.9,0,0,0,1.318,1.6l5.272,1.656q.237.647.525,1.27l-2.555,4.9a1.905,1.905,0,0,0,.194,2.059,23.018,23.018,0,0,0,3.762,3.762,1.905,1.905,0,0,0,2.059.2l4.9-2.553q.622.285,1.27.523l1.656,5.272a1.9,1.9,0,0,0,1.6,1.318,22.469,22.469,0,0,0,2.658.167,22.745,22.745,0,0,0,2.654-.165,1.9,1.9,0,0,0,1.6-1.318l1.656-5.272q.647-.237,1.27-.525l4.9,2.555a1.9,1.9,0,0,0,2.059-.194,23.019,23.019,0,0,0,3.762-3.762,1.9,1.9,0,0,0,.2-2.059l-2.555-4.9q.288-.622.525-1.27ZM67.8,27.382a1.907,1.907,0,0,0-1.251,1.268,13.392,13.392,0,0,1-1.015,2.46,1.9,1.9,0,0,0-.011,1.78l2.413,4.624a19.4,19.4,0,0,1-1.426,1.426L61.89,36.527a1.9,1.9,0,0,0-1.78.011,13.391,13.391,0,0,1-2.46,1.015A1.907,1.907,0,0,0,56.383,38.8l-1.567,4.989a16.018,16.018,0,0,1-2,0L51.246,38.8a1.907,1.907,0,0,0-1.268-1.251,13.21,13.21,0,0,1-2.458-1.015,1.9,1.9,0,0,0-1.781-.011l-4.624,2.413a19.4,19.4,0,0,1-1.426-1.426L42.1,32.89a1.9,1.9,0,0,0-.011-1.78,13.392,13.392,0,0,1-1.015-2.46,1.907,1.907,0,0,0-1.251-1.268l-4.989-1.567c-.023-.348-.032-.681-.032-1s.01-.654.032-1l4.989-1.567a1.907,1.907,0,0,0,1.251-1.268,13.212,13.212,0,0,1,1.015-2.458,1.9,1.9,0,0,0,.011-1.781l-2.413-4.624a19.4,19.4,0,0,1,1.426-1.426L45.738,13.1a1.907,1.907,0,0,0,1.779-.011,13.391,13.391,0,0,1,2.46-1.015,1.907,1.907,0,0,0,1.268-1.251l1.567-4.989a16.016,16.016,0,0,1,2,0l1.567,4.989a1.907,1.907,0,0,0,1.268,1.251,13.211,13.211,0,0,1,2.458,1.015,1.9,1.9,0,0,0,1.781.011l4.624-2.413a19.4,19.4,0,0,1,1.426,1.426l-2.413,4.624a1.9,1.9,0,0,0,.011,1.78,13.392,13.392,0,0,1,1.015,2.46A1.907,1.907,0,0,0,67.8,22.245l4.989,1.567c.023.348.032.681.032,1s-.01.654-.032,1Z" transform="translate(24.134 -2)" fill="#0d1030"/><path d="M78.62,42.14l-3.266-1.16a15.4,15.4,0,0,0-.641-1.553L76.2,36.3a1.893,1.893,0,0,0-.221-1.985,19.133,19.133,0,0,0-3.268-3.27,1.9,1.9,0,0,0-1.987-.221l-3.129,1.485a15.184,15.184,0,0,0-1.551-.639L64.881,28.4a1.906,1.906,0,0,0-1.563-1.251,17.519,17.519,0,0,0-4.614,0A1.9,1.9,0,0,0,57.141,28.4l-1.16,3.266a15.412,15.412,0,0,0-1.553.641L51.3,30.826a1.9,1.9,0,0,0-1.985.221,19.134,19.134,0,0,0-3.27,3.268,1.9,1.9,0,0,0-.221,1.987l1.485,3.129a15.181,15.181,0,0,0-.639,1.551L43.4,42.144a1.906,1.906,0,0,0-1.251,1.563,18.626,18.626,0,0,0-.154,2.3,19.056,19.056,0,0,0,.152,2.306A1.9,1.9,0,0,0,43.4,49.88l3.266,1.16a15.407,15.407,0,0,0,.641,1.553L45.825,55.72a1.893,1.893,0,0,0,.221,1.985,19.134,19.134,0,0,0,3.268,3.27A1.9,1.9,0,0,0,51.3,61.2l3.129-1.485a15.186,15.186,0,0,0,1.551.639l1.162,3.266a1.906,1.906,0,0,0,1.563,1.251,18.362,18.362,0,0,0,2.306.156,19.056,19.056,0,0,0,2.306-.152,1.9,1.9,0,0,0,1.563-1.251l1.16-3.266a15.4,15.4,0,0,0,1.553-.641L70.721,61.2a1.889,1.889,0,0,0,1.985-.221,19.134,19.134,0,0,0,3.27-3.268,1.9,1.9,0,0,0,.221-1.987l-1.485-3.129a15.183,15.183,0,0,0,.639-1.551l3.266-1.162a1.906,1.906,0,0,0,1.251-1.563,18.363,18.363,0,0,0,.156-2.306,19.062,19.062,0,0,0-.152-2.306A1.9,1.9,0,0,0,78.62,42.14ZM76.2,46.705l-3.013,1.07a1.9,1.9,0,0,0-1.2,1.283,11.313,11.313,0,0,1-1.055,2.561,1.906,1.906,0,0,0-.063,1.751l1.365,2.876q-.473.519-.99.991l-2.877-1.365a1.906,1.906,0,0,0-1.751.063,11.319,11.319,0,0,1-2.559,1.055,1.908,1.908,0,0,0-1.285,1.2L61.708,61.2a13,13,0,0,1-1.388,0l-1.07-3.013a1.9,1.9,0,0,0-1.283-1.2,11.313,11.313,0,0,1-2.561-1.055,1.917,1.917,0,0,0-1.751-.063l-2.876,1.365q-.519-.473-.991-.991l1.365-2.876a1.9,1.9,0,0,0-.063-1.751,11.318,11.318,0,0,1-1.055-2.559,1.908,1.908,0,0,0-1.2-1.285l-3.013-1.07c-.015-.23-.023-.46-.023-.694s.008-.466.019-.694l3.013-1.072a1.894,1.894,0,0,0,1.194-1.283A11.369,11.369,0,0,1,51.086,40.4a1.906,1.906,0,0,0,.063-1.751l-1.365-2.876q.473-.519.991-.991l2.876,1.365a1.894,1.894,0,0,0,1.751-.063A11.319,11.319,0,0,1,57.96,35.03a1.908,1.908,0,0,0,1.285-1.2l1.07-3.013a13,13,0,0,1,1.388,0l1.07,3.013a1.9,1.9,0,0,0,1.283,1.2,11.313,11.313,0,0,1,2.561,1.055,1.9,1.9,0,0,0,1.751.063l2.876-1.365q.519.473.991.991L70.871,38.65a1.9,1.9,0,0,0,.063,1.751,11.318,11.318,0,0,1,1.055,2.559,1.908,1.908,0,0,0,1.2,1.285l3.013,1.07c.015.232.023.462.023.7S76.214,46.475,76.2,46.705Z" transform="translate(34.047 20.529)" fill="#0d1030"/><path d="M31.913,72.826A20.913,20.913,0,1,0,11,51.913,20.938,20.938,0,0,0,31.913,72.826Zm0-38.024A17.111,17.111,0,1,1,14.8,51.913,17.131,17.131,0,0,1,31.913,34.8Z" transform="translate(6.111 24.133)" fill="#0d1030"/><path d="M2.022,36.233l2.92,2.435A45.536,45.536,0,0,1,40,22.242c.968,0,1.934.055,2.9.116L40.561,24.7l2.688,2.688,5.7-5.7a1.9,1.9,0,0,0,0-2.688l-5.7-5.7-2.688,2.688,2.584,2.584C42.1,18.5,41.051,18.439,40,18.439A49.33,49.33,0,0,0,2.022,36.233Z" transform="translate(-1.98 8.176)" fill="#0d1030"/><path d="M47.506,9a9.506,9.506,0,1,0,9.506,9.506A9.517,9.517,0,0,0,47.506,9Zm0,15.209a5.7,5.7,0,1,1,5.7-5.7A5.711,5.711,0,0,1,47.506,24.209Z" transform="translate(30.442 4.307)" fill="#0d1030"/><path d="M55.6,33a7.6,7.6,0,1,0,7.6,7.6A7.612,7.612,0,0,0,55.6,33Zm0,11.407a3.8,3.8,0,1,1,3.8-3.8A3.806,3.806,0,0,1,55.6,44.407Z" transform="translate(39.454 25.936)" fill="#0d1030"/><path d="M67.664,5.939l-9.506-1.9A1.9,1.9,0,0,0,55.92,5.529l-1.9,9.506,3.728.747,1.025-5.118a28.527,28.527,0,0,1,2.816,12.348,28.213,28.213,0,0,1-6.255,17.824L58.3,43.214a32.345,32.345,0,0,0,3.751-34.52l4.867.973Z" transform="translate(44.878 -0.199)" fill="#0d1030"/></g></g></svg>